<svg xmlns="http://www.w3.org/2000/svg" xmlns:xlink="http://www.w3.org/1999/xlink" width="500" zoomAndPan="magnify" viewBox="0 0 375 374.999991" height="500" preserveAspectRatio="xMidYMid meet" version="1.0"><defs><clipPath id="f99c4ae967"><path d="M 212.847656 312.800781 L 263.25 312.800781 L 263.25 363.203125 L 212.847656 363.203125 Z M 212.847656 312.800781 " clip-rule="nonzero"/></clipPath><clipPath id="e2b164619f"><path d="M 238.050781 312.800781 C 224.128906 312.800781 212.847656 324.082031 212.847656 338 C 212.847656 351.917969 224.128906 363.203125 238.050781 363.203125 C 251.96875 363.203125 263.25 351.917969 263.25 338 C 263.25 324.082031 251.96875 312.800781 238.050781 312.800781 Z M 238.050781 312.800781 " clip-rule="nonzero"/></clipPath><clipPath id="409efaf08f"><path d="M 13.988281 115.929688 L 64.390625 115.929688 L 64.390625 166.332031 L 13.988281 166.332031 Z M 13.988281 115.929688 " clip-rule="nonzero"/></clipPath><clipPath id="19920c5ec0"><path d="M 39.191406 115.929688 C 25.273438 115.929688 13.988281 127.210938 13.988281 141.128906 C 13.988281 155.050781 25.273438 166.332031 39.191406 166.332031 C 53.109375 166.332031 64.390625 155.050781 64.390625 141.128906 C 64.390625 127.210938 53.109375 115.929688 39.191406 115.929688 Z M 39.191406 115.929688 " clip-rule="nonzero"/></clipPath><clipPath id="980246d6c1"><path d="M 209.140625 16.820312 L 259.542969 16.820312 L 259.542969 67.222656 L 209.140625 67.222656 Z M 209.140625 16.820312 " clip-rule="nonzero"/></clipPath><clipPath id="e9ce737e5c"><path d="M 234.34375 16.820312 C 220.421875 16.820312 209.140625 28.101562 209.140625 42.019531 C 209.140625 55.9375 220.421875 67.222656 234.34375 67.222656 C 248.261719 67.222656 259.542969 55.9375 259.542969 42.019531 C 259.542969 28.101562 248.261719 16.820312 234.34375 16.820312 Z M 234.34375 16.820312 " clip-rule="nonzero"/></clipPath><clipPath id="a828203312"><path d="M 0 101 L 176 101 L 176 374.984375 L 0 374.984375 Z M 0 101 " clip-rule="nonzero"/></clipPath><clipPath id="0361c5a1b8"><path d="M 99 200 L 373 200 L 373 374.984375 L 99 374.984375 Z M 99 200 " clip-rule="nonzero"/></clipPath><clipPath id="e04135c24e"><path d="M 0 299 L 78 299 L 78 374.984375 L 0 374.984375 Z M 0 299 " clip-rule="nonzero"/></clipPath><clipPath id="a6d99d02a3"><path d="M 295 299 L 373 299 L 373 374.984375 L 295 374.984375 Z M 295 299 " clip-rule="nonzero"/></clipPath></defs><rect x="-37.5" width="450" fill="#ffffff" y="-37.499999" height="449.999989" fill-opacity="1"/><rect x="-37.5" width="450" fill="#ffffff" y="-37.499999" height="449.999989" fill-opacity="1"/><g clip-path="url(#f99c4ae967)"><g clip-path="url(#e2b164619f)"><path fill="#20204c" d="M 212.847656 312.800781 L 263.25 312.800781 L 263.25 363.203125 L 212.847656 363.203125 Z M 212.847656 312.800781 " fill-opacity="1" fill-rule="nonzero"/></g></g><g clip-path="url(#409efaf08f)"><g clip-path="url(#19920c5ec0)"><path fill="#20204c" d="M 13.988281 115.929688 L 64.390625 115.929688 L 64.390625 166.332031 L 13.988281 166.332031 Z M 13.988281 115.929688 " fill-opacity="1" fill-rule="nonzero"/></g></g><g clip-path="url(#980246d6c1)"><g clip-path="url(#e9ce737e5c)"><path fill="#20204c" d="M 209.140625 16.820312 L 259.542969 16.820312 L 259.542969 67.222656 L 209.140625 67.222656 Z M 209.140625 16.820312 " fill-opacity="1" fill-rule="nonzero"/></g></g><path fill="#209ce9" d="M 175.402344 42.222656 C 175.609375 48.757812 173.914062 54.824219 170.65625 60.410156 C 169.515625 62.363281 169.816406 63.425781 171.34375 64.949219 C 185.09375 78.589844 198.789062 92.277344 212.40625 106.050781 C 214.191406 107.855469 215.390625 107.914062 217.632812 106.707031 C 232.1875 98.917969 249.59375 101.171875 261.511719 112.160156 C 273.441406 123.148438 277.148438 140.664062 270.691406 155.484375 C 264.230469 170.304688 249.085938 179.488281 232.769531 178.472656 C 205.964844 176.804688 189.105469 147.152344 201.582031 123.25 C 203.304688 119.949219 202.6875 118.378906 200.335938 116.058594 C 187.039062 102.957031 173.828125 89.75 160.730469 76.445312 C 158.808594 74.5 157.488281 74.40625 155.152344 75.636719 C 143.160156 81.921875 131.039062 81.914062 119.121094 75.480469 C 116.976562 74.316406 115.894531 74.539062 114.265625 76.1875 C 100.640625 89.941406 86.953125 103.640625 73.179688 117.253906 C 71.449219 118.96875 71.492188 120.191406 72.539062 122.226562 C 86.238281 148.898438 67.417969 179.148438 37.59375 178.515625 C 17.132812 178.074219 0.175781 160.554688 0.332031 140.003906 C 0.492188 119.324219 17.546875 102.335938 38.152344 102.160156 C 44.96875 102.101562 51.300781 103.574219 57.144531 107.007812 C 58.882812 108.027344 59.921875 107.90625 61.367188 106.457031 C 75.273438 92.585938 89.203125 78.746094 103.277344 65.039062 C 105.355469 63.011719 104.558594 61.664062 103.550781 59.71875 C 92.015625 37.511719 103.902344 10.996094 128.03125 4.992188 C 152.335938 -1.050781 175.425781 17.085938 175.410156 42.222656 Z M 159.625 42.554688 C 159.683594 30.277344 149.535156 20.039062 137.28125 20.019531 C 124.964844 20.003906 114.839844 30.1875 114.929688 42.515625 C 115.023438 54.765625 124.8125 64.617188 137.074219 64.796875 C 149.382812 64.972656 159.574219 54.933594 159.625 42.5625 Z M 234.964844 117.960938 C 222.605469 118.0625 212.597656 128.285156 212.804688 140.578125 C 213.011719 152.832031 222.914062 162.640625 235.113281 162.671875 C 247.308594 162.707031 257.632812 152.390625 257.566406 140.214844 C 257.5 127.976562 247.214844 117.855469 234.964844 117.953125 Z M 38.832031 118.519531 C 26.167969 118.609375 16.722656 128.226562 16.789062 140.96875 C 16.855469 153.496094 26.613281 162.972656 39.359375 162.890625 C 51.726562 162.8125 61.308594 153.105469 61.285156 140.6875 C 61.257812 128.203125 51.367188 118.425781 38.824219 118.519531 Z M 38.832031 118.519531 " fill-opacity="1" fill-rule="nonzero"/><g clip-path="url(#a828203312)"><path fill="#209ce9" d="M 98.761719 336.851562 C 98.671875 330.203125 100.242188 323.949219 103.652344 318.273438 C 104.730469 316.46875 104.464844 315.496094 103.070312 314.109375 C 89.136719 300.269531 75.191406 286.4375 61.460938 272.40625 C 59.207031 270.105469 57.859375 271.585938 56.171875 272.449219 C 30.496094 285.574219 0.0234375 266.871094 0.332031 238.144531 C 0.640625 209.84375 31.113281 191.53125 56.105469 204.765625 C 58.832031 206.210938 60.261719 205.96875 62.375 203.84375 C 75.523438 190.59375 88.78125 177.441406 102.128906 164.394531 C 104.398438 162.175781 104.957031 160.652344 103.394531 157.484375 C 96.085938 142.675781 97.601562 128.328125 108.113281 115.71875 C 118.464844 103.316406 132.292969 99.367188 147.746094 103.648438 C 163.507812 108.011719 172.875 119.066406 175.09375 135.160156 C 177.15625 150.179688 171.683594 162.804688 159.152344 171.523438 C 146.683594 180.203125 133.199219 181.015625 119.609375 174.011719 C 116.941406 172.640625 115.644531 172.996094 113.699219 174.972656 C 100.394531 188.457031 86.992188 201.855469 73.511719 215.164062 C 71.640625 217.015625 71.324219 218.3125 72.605469 220.722656 C 78.929688 232.691406 78.988281 244.804688 72.472656 256.722656 C 71.183594 259.074219 71.742188 260.289062 73.429688 261.96875 C 86.9375 275.449219 100.394531 288.980469 113.75 302.613281 C 115.738281 304.640625 117.082031 304.867188 119.675781 303.511719 C 145.160156 290.171875 175.726562 308.832031 175.234375 337.316406 C 174.867188 358.289062 157.804688 375.160156 136.949219 375.167969 C 115.960938 375.179688 98.90625 358.070312 98.78125 336.851562 Z M 137.066406 162.878906 C 149.734375 162.929688 159.566406 153.328125 159.625 140.851562 C 159.683594 128.460938 149.765625 118.542969 137.289062 118.519531 C 124.730469 118.492188 114.847656 128.34375 114.929688 140.804688 C 115.015625 153.164062 124.707031 162.839844 137.074219 162.890625 Z M 136.714844 359.078125 C 148.835938 359.476562 159.199219 349.800781 159.617188 337.699219 C 160.039062 325.539062 150.671875 315.125 138.910156 314.65625 C 125.460938 314.125 115.214844 323.476562 114.929688 336.535156 C 114.664062 348.589844 124.40625 358.671875 136.714844 359.078125 Z M 39.015625 260.796875 C 51.617188 260.796875 61.335938 251.054688 61.269531 238.488281 C 61.210938 226.027344 51.710938 216.492188 39.242188 216.351562 C 26.773438 216.21875 16.789062 226.058594 16.773438 238.511719 C 16.757812 251.144531 26.390625 260.796875 39.007812 260.796875 Z M 39.015625 260.796875 " fill-opacity="1" fill-rule="nonzero"/></g><g clip-path="url(#0361c5a1b8)"><path fill="#209ce9" d="M 332.058594 276.707031 C 327.171875 276.839844 321.195312 275.265625 315.722656 272.082031 C 313.695312 270.902344 312.574219 270.871094 310.855469 272.617188 C 297.140625 286.488281 283.347656 300.277344 269.476562 314 C 267.847656 315.613281 268.011719 316.652344 268.984375 318.523438 C 282.070312 343.785156 266.46875 372.660156 238.140625 374.945312 C 223.859375 376.101562 212.105469 370.183594 204.0625 358.28125 C 195.832031 346.109375 194.976562 332.96875 201.59375 319.796875 C 203.238281 316.527344 202.730469 314.972656 200.351562 312.636719 C 187.136719 299.648438 174.027344 286.53125 161.019531 273.324219 C 158.941406 271.210938 157.511719 270.996094 154.8125 272.339844 C 140.847656 279.28125 127.125 278.5 114.605469 269.132812 C 101.679688 259.464844 96.660156 246.09375 100.070312 230.359375 C 103.320312 215.320312 112.886719 205.421875 127.914062 201.664062 C 143.632812 197.734375 157.105469 202.363281 167.105469 214.9375 C 177.128906 227.546875 178.300781 241.671875 171.0625 256.117188 C 169.640625 258.949219 170.105469 260.304688 172.109375 262.316406 C 185.425781 275.617188 198.65625 288.980469 211.800781 302.449219 C 213.667969 304.359375 214.898438 304.519531 217.316406 303.261719 C 229.304688 297.035156 241.480469 296.980469 253.390625 303.4375 C 255.851562 304.765625 256.941406 304.078125 258.554688 302.480469 C 272.128906 289.058594 285.726562 275.660156 299.425781 262.359375 C 301.351562 260.488281 301.484375 259.21875 300.1875 256.804688 C 292.5 242.453125 294.769531 225.105469 305.609375 213.277344 C 316.449219 201.457031 333.335938 197.589844 348.125 203.550781 C 362.855469 209.484375 372.554688 224.464844 372.046875 240.488281 C 371.414062 260.570312 354.160156 276.804688 332.050781 276.714844 Z M 137.050781 260.804688 C 149.707031 260.863281 159.558594 251.246094 159.632812 238.761719 C 159.707031 226.234375 149.949219 216.410156 137.390625 216.359375 C 125.003906 216.308594 114.871094 226.375 114.929688 238.679688 C 114.988281 251.003906 124.738281 260.753906 137.050781 260.8125 Z M 333.804688 260.804688 C 346.179688 260.820312 356.289062 250.78125 356.246094 238.511719 C 356.195312 226.078125 346.203125 216.253906 333.71875 216.359375 C 321.335938 216.46875 311.609375 226.117188 311.535156 238.394531 C 311.453125 250.761719 321.417969 260.796875 333.8125 260.8125 Z M 257.746094 336.703125 C 257.699219 324.058594 248.105469 314.601562 235.371094 314.648438 C 222.804688 314.691406 213.34375 324.390625 213.429688 337.125 C 213.511719 349.4375 223.261719 359.101562 235.589844 359.09375 C 248.097656 359.085938 257.796875 349.285156 257.746094 336.710938 Z M 257.746094 336.703125 " fill-opacity="1" fill-rule="nonzero"/></g><path fill="#209ce9" d="M 235.230469 276.832031 C 215.363281 276.722656 198.476562 261.3125 197.054688 241.878906 C 195.566406 221.53125 209.523438 204.015625 229.460938 200.851562 C 237.882812 199.511719 245.703125 200.933594 253.035156 204.972656 C 255.503906 206.328125 256.824219 205.878906 258.652344 204.050781 C 272.144531 190.550781 285.703125 177.128906 299.339844 163.769531 C 301.179688 161.964844 301.609375 160.746094 300.289062 158.234375 C 294.011719 146.28125 293.929688 134.121094 300.363281 122.203125 C 301.652344 119.808594 301.152344 118.667969 299.484375 117.015625 C 285.84375 103.472656 272.21875 89.910156 258.730469 76.21875 C 256.890625 74.355469 255.679688 74.523438 253.558594 75.585938 C 239.171875 82.828125 225.140625 82.011719 212.296875 72.238281 C 199.679688 62.628906 195.058594 49.328125 198.324219 34.011719 C 201.726562 18.066406 212.15625 7.910156 228.03125 4.660156 C 243.394531 1.519531 256.617188 6.515625 266.058594 19.214844 C 275.335938 31.699219 276.441406 45.40625 269.410156 59.371094 C 267.957031 62.261719 268.238281 63.675781 270.449219 65.871094 C 283.804688 79.113281 297.023438 92.492188 310.179688 105.925781 C 312.066406 107.855469 313.414062 108.488281 316.074219 107.074219 C 330.628906 99.34375 347.859375 101.570312 359.519531 112.417969 C 371.316406 123.390625 374.957031 140.636719 368.589844 155.382812 C 362.140625 170.328125 346.695312 179.695312 330.320312 178.425781 C 324.910156 178 319.707031 176.519531 315.050781 173.644531 C 313.132812 172.457031 311.976562 172.804688 310.464844 174.324219 C 296.730469 188.164062 282.949219 201.964844 269.09375 215.679688 C 267.480469 217.273438 267.589844 218.398438 268.5625 220.273438 C 280.738281 243.671875 268.28125 270.40625 242.613281 276.007812 C 240.203125 276.53125 237.683594 276.554688 235.214844 276.8125 Z M 311.519531 140.4375 C 311.601562 152.507812 321.644531 162.554688 333.738281 162.664062 C 345.878906 162.773438 356.261719 152.433594 356.238281 140.246094 C 356.203125 127.863281 346.171875 117.902344 333.769531 117.945312 C 321.359375 117.996094 311.433594 128.019531 311.519531 140.429688 Z M 213.417969 238.59375 C 213.4375 251.128906 223.203125 260.835938 235.738281 260.796875 C 248.007812 260.753906 257.699219 251.019531 257.738281 238.695312 C 257.789062 225.960938 248.3125 216.394531 235.621094 216.359375 C 222.945312 216.328125 213.394531 225.886719 213.410156 238.601562 Z M 257.738281 41.90625 C 257.707031 29.191406 248.171875 19.789062 235.386719 19.855469 C 223.011719 19.921875 213.445312 29.539062 213.417969 41.949219 C 213.394531 54.699219 222.855469 64.183594 235.605469 64.167969 C 248.347656 64.160156 257.78125 54.675781 257.746094 41.898438 Z M 257.738281 41.90625 " fill-opacity="1" fill-rule="nonzero"/><path fill="#209ce9" d="M 77.328125 42.207031 C 77.210938 63.101562 59.53125 80.597656 38.792969 80.332031 C 17.472656 80.050781 0.757812 63.054688 0.898438 41.800781 C 1.046875 20.503906 18.1875 3.496094 39.242188 3.746094 C 60.496094 4.003906 77.441406 21.117188 77.328125 42.199219 Z M 16.789062 42.082031 C 16.707031 54.75 26.257812 64.617188 38.765625 64.796875 C 51.128906 64.980469 61.167969 55.058594 61.285156 42.570312 C 61.394531 30.261719 51.285156 20.03125 39.015625 20.019531 C 26.730469 20.019531 16.882812 29.796875 16.796875 42.082031 Z M 16.789062 42.082031 " fill-opacity="1" fill-rule="nonzero"/><g clip-path="url(#e04135c24e)"><path fill="#209ce9" d="M 39.015625 375.351562 C 17.789062 375.351562 0.898438 358.460938 0.90625 337.234375 C 0.914062 316.097656 17.988281 298.980469 39.042969 299 C 59.820312 299.015625 77.1875 316.410156 77.328125 337.359375 C 77.460938 358.355469 60.328125 375.351562 39.023438 375.359375 Z M 39.148438 314.640625 C 26.492188 314.617188 16.808594 324.191406 16.789062 336.777344 C 16.773438 349.234375 26.65625 359.128906 39.089844 359.085938 C 51.402344 359.042969 61.125 349.378906 61.277344 337.050781 C 61.425781 324.507812 51.710938 314.667969 39.148438 314.640625 Z M 39.148438 314.640625 " fill-opacity="1" fill-rule="nonzero"/></g><path fill="#209ce9" d="M 295.75 41.921875 C 295.765625 20.851562 313.082031 3.570312 334.011719 3.746094 C 355.257812 3.921875 372.113281 20.917969 372.078125 42.113281 C 372.046875 63.085938 354.617188 80.457031 333.738281 80.316406 C 312.507812 80.175781 295.734375 63.21875 295.75 41.921875 Z M 311.519531 42.4375 C 311.535156 54.839844 321.617188 64.882812 333.960938 64.796875 C 346.320312 64.714844 356.421875 54.476562 356.230469 42.222656 C 356.046875 30.105469 345.957031 20.078125 333.894531 20.03125 C 321.550781 19.980469 311.492188 30.046875 311.511719 42.449219 Z M 311.519531 42.4375 " fill-opacity="1" fill-rule="nonzero"/><g clip-path="url(#a6d99d02a3)"><path fill="#209ce9" d="M 333.710938 375.351562 C 312.339844 375.292969 295.691406 358.347656 295.757812 336.703125 C 295.824219 316.003906 313.105469 298.957031 333.96875 299 C 354.914062 299.039062 372.195312 316.660156 372.078125 337.847656 C 371.964844 358.570312 354.742188 375.402344 333.710938 375.351562 Z M 334.070312 314.640625 C 321.425781 314.589844 311.59375 324.226562 311.519531 336.710938 C 311.453125 349.046875 321.484375 359.09375 333.859375 359.09375 C 346.230469 359.09375 356.371094 348.945312 356.246094 336.703125 C 356.121094 324.367188 346.386719 314.683594 334.070312 314.640625 Z M 334.070312 314.640625 " fill-opacity="1" fill-rule="nonzero"/></g></svg>