<svg width="1650" height="302" viewBox="0 0 1650 302" fill="none" xmlns="http://www.w3.org/2000/svg">
<path d="M224.313 296.943H201.028L112.722 162.662L23.0955 296.943H0L100.495 144.807L8.94383 5.06641H32.6809L113.1 127.985L195.255 5.06641H217.52L124.988 144.401L224.313 296.943Z" fill="white"/>
<path d="M22.0762 135.918H202.991V152.519H22.0762V135.918ZM22.0762 185.72H203.028V202.321H22.0762V185.72Z" fill="white"/>
<path fill-rule="evenodd" clip-rule="evenodd" d="M338.073 226.489L338.073 85.583L341.106 85.583L341.106 226.489L338.073 226.489Z" fill="white" fill-opacity="0.33"/>
<path d="M690.349 296.944H667.343L473.907 38.3877H472.12C473.907 69.8117 474.801 93.5152 474.801 109.498V296.944H452.911V5.06738H475.694L668.906 268.38H670.246C668.906 243.998 668.236 220.836 668.236 198.894V5.06738H690.349V296.944Z" fill="white"/>
<path d="M940.304 198.488H807.624L762.057 296.944H736.817L868.156 5.06738H882.675L1011.33 296.944H985.647L940.304 198.488ZM815.889 179.796H932.71L888.26 72.7239C884.537 64.3261 880.069 52.6775 874.857 37.7782C870.836 50.7812 866.444 62.5653 861.679 73.1303L815.889 179.796Z" fill="white"/>
<path d="M1295.23 296.944H1269.35L1078.78 38.3877H1077C1078.78 69.8117 1079.68 93.5152 1079.68 109.498V296.944H1057.79V5.06738H1080.57L1273.78 268.38H1275.12C1273.78 243.998 1273.11 220.836 1273.11 198.894V5.06738H1295.23V296.944Z" fill="white"/>
<path fill-rule="evenodd" clip-rule="evenodd" d="M1650 151.005C1650 233.924 1582.78 301.143 1499.86 301.143C1416.94 301.143 1349.72 233.924 1349.72 151.005C1349.72 68.0862 1416.94 0.867188 1499.86 0.867188C1582.78 0.867188 1650 68.0862 1650 151.005ZM1499.86 280.145C1571.18 280.145 1629 222.327 1629 151.005C1629 79.6832 1571.18 21.8655 1499.86 21.8655C1428.54 21.8655 1370.72 79.6832 1370.72 151.005C1370.72 222.327 1428.54 280.145 1499.86 280.145Z" fill="white"/>
</svg>
