<svg xmlns="http://www.w3.org/2000/svg" xmlns:xlink="http://www.w3.org/1999/xlink" width="500" zoomAndPan="magnify" viewBox="0 0 375 374.999991" height="500" preserveAspectRatio="xMidYMid meet" version="1.0"><defs><g/><clipPath id="e6d79bf585"><path d="M 199.746094 189.300781 L 224.101562 189.300781 L 224.101562 213.65625 L 199.746094 213.65625 Z M 199.746094 189.300781 " clip-rule="nonzero"/></clipPath><clipPath id="36940ae5e4"><path d="M 211.925781 189.300781 C 205.199219 189.300781 199.746094 194.753906 199.746094 201.480469 C 199.746094 208.203125 205.199219 213.65625 211.925781 213.65625 C 218.648438 213.65625 224.101562 208.203125 224.101562 201.480469 C 224.101562 194.753906 218.648438 189.300781 211.925781 189.300781 Z M 211.925781 189.300781 " clip-rule="nonzero"/></clipPath><clipPath id="077fa5439c"><path d="M 103.664062 94.179688 L 128.015625 94.179688 L 128.015625 118.53125 L 103.664062 118.53125 Z M 103.664062 94.179688 " clip-rule="nonzero"/></clipPath><clipPath id="f8df875614"><path d="M 115.839844 94.179688 C 109.113281 94.179688 103.664062 99.628906 103.664062 106.355469 C 103.664062 113.082031 109.113281 118.53125 115.839844 118.53125 C 122.566406 118.53125 128.015625 113.082031 128.015625 106.355469 C 128.015625 99.628906 122.566406 94.179688 115.839844 94.179688 Z M 115.839844 94.179688 " clip-rule="nonzero"/></clipPath><clipPath id="bb78170c47"><path d="M 197.957031 46.289062 L 222.308594 46.289062 L 222.308594 70.644531 L 197.957031 70.644531 Z M 197.957031 46.289062 " clip-rule="nonzero"/></clipPath><clipPath id="6495bd5ad6"><path d="M 210.132812 46.289062 C 203.40625 46.289062 197.957031 51.742188 197.957031 58.46875 C 197.957031 65.191406 203.40625 70.644531 210.132812 70.644531 C 216.859375 70.644531 222.308594 65.191406 222.308594 58.46875 C 222.308594 51.742188 216.859375 46.289062 210.132812 46.289062 Z M 210.132812 46.289062 " clip-rule="nonzero"/></clipPath><clipPath id="0872937a07"><path d="M 97 87 L 182 87 L 182 219.75 L 97 219.75 Z M 97 87 " clip-rule="nonzero"/></clipPath><clipPath id="14b66e35f8"><path d="M 144 134 L 277 134 L 277 219.75 L 144 219.75 Z M 144 134 " clip-rule="nonzero"/></clipPath><clipPath id="9186046fc6"><path d="M 97 182 L 135 182 L 135 219.75 L 97 219.75 Z M 97 182 " clip-rule="nonzero"/></clipPath><clipPath id="72957d82c2"><path d="M 239 182 L 277 182 L 277 219.75 L 239 219.75 Z M 239 182 " clip-rule="nonzero"/></clipPath></defs><g clip-path="url(#e6d79bf585)"><g clip-path="url(#36940ae5e4)"><path fill="#20204c" d="M 199.746094 189.300781 L 224.101562 189.300781 L 224.101562 213.65625 L 199.746094 213.65625 Z M 199.746094 189.300781 " fill-opacity="1" fill-rule="nonzero"/></g></g><g clip-path="url(#077fa5439c)"><g clip-path="url(#f8df875614)"><path fill="#20204c" d="M 103.664062 94.179688 L 128.015625 94.179688 L 128.015625 118.53125 L 103.664062 118.53125 Z M 103.664062 94.179688 " fill-opacity="1" fill-rule="nonzero"/></g></g><g clip-path="url(#bb78170c47)"><g clip-path="url(#6495bd5ad6)"><path fill="#20204c" d="M 197.957031 46.289062 L 222.308594 46.289062 L 222.308594 70.644531 L 197.957031 70.644531 Z M 197.957031 46.289062 " fill-opacity="1" fill-rule="nonzero"/></g></g><path fill="#209ce9" d="M 181.660156 58.566406 C 181.761719 61.726562 180.941406 64.65625 179.367188 67.355469 C 178.816406 68.300781 178.960938 68.8125 179.699219 69.546875 C 186.34375 76.140625 192.960938 82.753906 199.542969 89.410156 C 200.40625 90.28125 200.984375 90.308594 202.066406 89.726562 C 209.101562 85.964844 217.511719 87.050781 223.269531 92.363281 C 229.035156 97.671875 230.824219 106.136719 227.703125 113.296875 C 224.582031 120.457031 217.265625 124.894531 209.382812 124.40625 C 196.429688 123.597656 188.28125 109.273438 194.3125 97.71875 C 195.144531 96.125 194.847656 95.367188 193.710938 94.246094 C 187.28125 87.917969 180.902344 81.535156 174.570312 75.105469 C 173.644531 74.164062 173.003906 74.121094 171.875 74.714844 C 166.078125 77.75 160.222656 77.746094 154.464844 74.636719 C 153.429688 74.074219 152.90625 74.183594 152.117188 74.980469 C 145.535156 81.625 138.921875 88.246094 132.265625 94.824219 C 131.429688 95.652344 131.449219 96.242188 131.957031 97.226562 C 138.574219 110.117188 129.480469 124.730469 115.070312 124.425781 C 105.183594 124.214844 96.988281 115.746094 97.066406 105.816406 C 97.140625 95.824219 105.382812 87.613281 115.339844 87.53125 C 118.632812 87.503906 121.695312 88.214844 124.515625 89.871094 C 125.355469 90.367188 125.859375 90.304688 126.558594 89.605469 C 133.277344 82.902344 140.007812 76.214844 146.808594 69.59375 C 147.8125 68.613281 147.425781 67.960938 146.941406 67.023438 C 141.367188 56.289062 147.109375 43.476562 158.769531 40.578125 C 170.515625 37.65625 181.671875 46.421875 181.664062 58.566406 Z M 174.035156 58.726562 C 174.066406 52.796875 169.160156 47.847656 163.238281 47.839844 C 157.289062 47.832031 152.394531 52.75 152.441406 58.707031 C 152.484375 64.628906 157.214844 69.386719 163.140625 69.476562 C 169.089844 69.5625 174.011719 64.707031 174.035156 58.730469 Z M 210.441406 95.164062 C 204.46875 95.214844 199.632812 100.15625 199.734375 106.09375 C 199.835938 112.015625 204.617188 116.753906 210.515625 116.769531 C 216.40625 116.785156 221.394531 111.800781 221.363281 105.917969 C 221.332031 100.003906 216.363281 95.113281 210.441406 95.160156 Z M 115.667969 95.433594 C 109.546875 95.480469 104.984375 100.125 105.015625 106.285156 C 105.050781 112.335938 109.765625 116.914062 115.921875 116.875 C 121.898438 116.839844 126.53125 112.148438 126.515625 106.148438 C 126.503906 100.113281 121.726562 95.390625 115.664062 95.433594 Z M 115.667969 95.433594 " fill-opacity="1" fill-rule="nonzero"/><g clip-path="url(#0872937a07)"><path fill="#209ce9" d="M 144.628906 200.9375 C 144.582031 197.722656 145.34375 194.703125 146.988281 191.960938 C 147.511719 191.085938 147.382812 190.617188 146.707031 189.945312 C 139.976562 183.257812 133.238281 176.574219 126.601562 169.796875 C 125.511719 168.683594 124.863281 169.398438 124.046875 169.816406 C 111.640625 176.160156 96.914062 167.121094 97.066406 153.238281 C 97.214844 139.5625 111.9375 130.714844 124.015625 137.109375 C 125.332031 137.808594 126.023438 137.691406 127.042969 136.664062 C 133.398438 130.261719 139.804688 123.90625 146.253906 117.601562 C 147.351562 116.53125 147.621094 115.792969 146.863281 114.265625 C 143.335938 107.105469 144.066406 100.175781 149.144531 94.082031 C 154.148438 88.089844 160.832031 86.179688 168.296875 88.25 C 175.914062 90.359375 180.4375 95.699219 181.511719 103.476562 C 182.507812 110.734375 179.863281 116.835938 173.808594 121.046875 C 167.78125 125.242188 161.269531 125.636719 154.699219 122.25 C 153.410156 121.585938 152.785156 121.757812 151.84375 122.714844 C 145.414062 129.230469 138.941406 135.703125 132.425781 142.132812 C 131.523438 143.03125 131.371094 143.65625 131.988281 144.820312 C 135.042969 150.605469 135.074219 156.457031 131.921875 162.21875 C 131.300781 163.355469 131.570312 163.941406 132.386719 164.75 C 138.914062 171.265625 145.414062 177.804688 151.871094 184.390625 C 152.828125 185.371094 153.480469 185.480469 154.734375 184.824219 C 167.046875 178.378906 181.816406 187.394531 181.578125 201.160156 C 181.402344 211.292969 173.15625 219.449219 163.078125 219.453125 C 152.9375 219.457031 144.695312 211.191406 144.636719 200.9375 Z M 163.136719 116.871094 C 169.257812 116.894531 174.007812 112.257812 174.035156 106.226562 C 174.066406 100.238281 169.273438 95.445312 163.246094 95.433594 C 157.175781 95.421875 152.398438 100.183594 152.441406 106.203125 C 152.480469 112.175781 157.164062 116.851562 163.140625 116.875 Z M 162.96875 211.675781 C 168.824219 211.867188 173.832031 207.195312 174.03125 201.34375 C 174.238281 195.46875 169.710938 190.4375 164.027344 190.210938 C 157.527344 189.953125 152.578125 194.472656 152.441406 200.785156 C 152.3125 206.605469 157.019531 211.480469 162.96875 211.675781 Z M 115.757812 164.183594 C 121.847656 164.183594 126.542969 159.476562 126.507812 153.40625 C 126.480469 147.382812 121.890625 142.777344 115.867188 142.710938 C 109.839844 142.644531 105.015625 147.398438 105.007812 153.417969 C 105 159.523438 109.65625 164.183594 115.753906 164.183594 Z M 115.757812 164.183594 " fill-opacity="1" fill-rule="nonzero"/></g><g clip-path="url(#14b66e35f8)"><path fill="#209ce9" d="M 257.359375 171.871094 C 254.996094 171.9375 252.109375 171.179688 249.464844 169.640625 C 248.484375 169.070312 247.945312 169.054688 247.113281 169.898438 C 240.484375 176.601562 233.820312 183.261719 227.117188 189.894531 C 226.332031 190.675781 226.410156 191.175781 226.882812 192.078125 C 233.203125 204.285156 225.664062 218.238281 211.976562 219.34375 C 205.074219 219.902344 199.398438 217.042969 195.507812 211.289062 C 191.53125 205.410156 191.117188 199.058594 194.316406 192.695312 C 195.109375 191.117188 194.867188 190.363281 193.71875 189.234375 C 187.332031 182.957031 180.996094 176.621094 174.710938 170.238281 C 173.707031 169.21875 173.015625 169.113281 171.710938 169.765625 C 164.964844 173.117188 158.332031 172.742188 152.285156 168.214844 C 146.039062 163.542969 143.613281 157.078125 145.257812 149.476562 C 146.828125 142.210938 151.453125 137.425781 158.714844 135.613281 C 166.308594 133.710938 172.820312 135.949219 177.652344 142.027344 C 182.496094 148.121094 183.0625 154.941406 179.5625 161.925781 C 178.875 163.292969 179.101562 163.949219 180.070312 164.921875 C 186.503906 171.347656 192.898438 177.804688 199.246094 184.3125 C 200.152344 185.234375 200.746094 185.3125 201.914062 184.707031 C 207.707031 181.695312 213.589844 181.667969 219.347656 184.789062 C 220.535156 185.433594 221.0625 185.097656 221.839844 184.328125 C 228.398438 177.839844 234.96875 171.367188 241.589844 164.941406 C 242.523438 164.035156 242.585938 163.421875 241.960938 162.257812 C 238.242188 155.320312 239.339844 146.9375 244.578125 141.222656 C 249.816406 135.511719 257.976562 133.644531 265.121094 136.523438 C 272.238281 139.390625 276.925781 146.628906 276.683594 154.371094 C 276.375 164.078125 268.039062 171.921875 257.355469 171.875 Z M 163.128906 164.1875 C 169.246094 164.21875 174.003906 159.570312 174.039062 153.539062 C 174.078125 147.484375 169.359375 142.738281 163.292969 142.714844 C 157.308594 142.6875 152.410156 147.554688 152.441406 153.496094 C 152.46875 159.453125 157.179688 164.164062 163.128906 164.191406 Z M 258.203125 164.1875 C 264.183594 164.195312 269.066406 159.34375 269.046875 153.417969 C 269.023438 147.410156 264.195312 142.660156 258.160156 142.714844 C 252.175781 142.765625 247.476562 147.429688 247.441406 153.359375 C 247.402344 159.335938 252.21875 164.183594 258.207031 164.191406 Z M 221.449219 200.863281 C 221.425781 194.753906 216.792969 190.183594 210.640625 190.207031 C 204.566406 190.226562 199.996094 194.914062 200.035156 201.070312 C 200.074219 207.015625 204.785156 211.6875 210.742188 211.683594 C 216.789062 211.679688 221.476562 206.945312 221.449219 200.867188 Z M 221.449219 200.863281 " fill-opacity="1" fill-rule="nonzero"/></g><path fill="#209ce9" d="M 210.570312 171.933594 C 200.972656 171.878906 192.808594 164.433594 192.121094 155.042969 C 191.402344 145.210938 198.148438 136.75 207.78125 135.21875 C 211.851562 134.570312 215.632812 135.257812 219.171875 137.210938 C 220.367188 137.863281 221.003906 137.648438 221.890625 136.765625 C 228.40625 130.242188 234.957031 123.753906 241.550781 117.300781 C 242.4375 116.429688 242.644531 115.839844 242.007812 114.625 C 238.976562 108.851562 238.933594 102.972656 242.042969 97.214844 C 242.667969 96.058594 242.425781 95.507812 241.617188 94.707031 C 235.027344 88.164062 228.445312 81.609375 221.925781 74.996094 C 221.039062 74.09375 220.449219 74.175781 219.425781 74.691406 C 212.472656 78.1875 205.695312 77.792969 199.488281 73.070312 C 193.390625 68.429688 191.160156 62 192.738281 54.597656 C 194.378906 46.894531 199.421875 41.988281 207.09375 40.417969 C 214.515625 38.898438 220.90625 41.3125 225.46875 47.449219 C 229.949219 53.484375 230.484375 60.105469 227.085938 66.855469 C 226.382812 68.25 226.519531 68.933594 227.589844 69.996094 C 234.042969 76.394531 240.429688 82.859375 246.785156 89.351562 C 247.699219 90.28125 248.347656 90.585938 249.636719 89.902344 C 256.667969 86.167969 264.992188 87.246094 270.628906 92.488281 C 276.328125 97.789062 278.085938 106.121094 275.011719 113.25 C 271.894531 120.46875 264.429688 124.996094 256.519531 124.382812 C 253.902344 124.175781 251.390625 123.460938 249.140625 122.074219 C 248.214844 121.496094 247.65625 121.667969 246.921875 122.402344 C 240.289062 129.089844 233.628906 135.757812 226.933594 142.382812 C 226.15625 143.15625 226.207031 143.695312 226.675781 144.605469 C 232.5625 155.910156 226.539062 168.828125 214.136719 171.535156 C 212.972656 171.789062 211.753906 171.800781 210.5625 171.925781 Z M 247.433594 106.027344 C 247.472656 111.859375 252.324219 116.714844 258.167969 116.765625 C 264.039062 116.820312 269.054688 111.820312 269.042969 105.933594 C 269.027344 99.949219 264.179688 95.136719 258.1875 95.15625 C 252.1875 95.183594 247.394531 100.027344 247.433594 106.023438 Z M 200.03125 153.457031 C 200.039062 159.515625 204.757812 164.207031 210.816406 164.183594 C 216.742188 164.164062 221.425781 159.460938 221.445312 153.503906 C 221.472656 147.351562 216.890625 142.730469 210.757812 142.714844 C 204.632812 142.695312 200.019531 147.316406 200.027344 153.460938 Z M 221.445312 58.414062 C 221.429688 52.269531 216.824219 47.726562 210.648438 47.757812 C 204.667969 47.792969 200.042969 52.4375 200.03125 58.433594 C 200.019531 64.597656 204.589844 69.179688 210.75 69.171875 C 216.910156 69.167969 221.46875 64.585938 221.449219 58.410156 Z M 221.445312 58.414062 " fill-opacity="1" fill-rule="nonzero"/><path fill="#209ce9" d="M 134.269531 58.558594 C 134.214844 68.65625 125.671875 77.113281 115.648438 76.984375 C 105.347656 76.847656 97.269531 68.632812 97.335938 58.363281 C 97.410156 48.074219 105.691406 39.855469 115.867188 39.976562 C 126.136719 40.101562 134.324219 48.371094 134.269531 58.554688 Z M 105.015625 58.5 C 104.976562 64.621094 109.59375 69.386719 115.636719 69.476562 C 121.609375 69.566406 126.460938 64.769531 126.515625 58.738281 C 126.570312 52.789062 121.6875 47.84375 115.757812 47.839844 C 109.820312 47.839844 105.0625 52.5625 105.019531 58.5 Z M 105.015625 58.5 " fill-opacity="1" fill-rule="nonzero"/><g clip-path="url(#9186046fc6)"><path fill="#209ce9" d="M 115.757812 219.539062 C 105.5 219.539062 97.335938 211.378906 97.339844 201.121094 C 97.347656 190.90625 105.59375 182.636719 115.769531 182.644531 C 125.8125 182.652344 134.199219 191.058594 134.269531 201.179688 C 134.332031 211.328125 126.054688 219.539062 115.761719 219.542969 Z M 115.820312 190.203125 C 109.703125 190.191406 105.023438 194.820312 105.015625 200.898438 C 105.007812 206.921875 109.785156 211.699219 115.792969 211.679688 C 121.742188 211.660156 126.441406 206.988281 126.511719 201.03125 C 126.585938 194.972656 121.890625 190.214844 115.820312 190.203125 Z M 115.820312 190.203125 " fill-opacity="1" fill-rule="nonzero"/></g><path fill="#209ce9" d="M 239.816406 58.421875 C 239.824219 48.242188 248.1875 39.890625 258.300781 39.976562 C 268.570312 40.058594 276.714844 48.273438 276.699219 58.515625 C 276.683594 68.648438 268.257812 77.042969 258.167969 76.976562 C 247.910156 76.90625 239.804688 68.714844 239.8125 58.421875 Z M 247.433594 58.671875 C 247.441406 64.664062 252.3125 69.515625 258.277344 69.476562 C 264.25 69.4375 269.128906 64.488281 269.039062 58.566406 C 268.949219 52.710938 264.074219 47.867188 258.246094 47.84375 C 252.28125 47.820312 247.421875 52.683594 247.429688 58.675781 Z M 247.433594 58.671875 " fill-opacity="1" fill-rule="nonzero"/><g clip-path="url(#72957d82c2)"><path fill="#209ce9" d="M 258.15625 219.539062 C 247.832031 219.511719 239.785156 211.324219 239.820312 200.863281 C 239.851562 190.863281 248.199219 182.625 258.28125 182.644531 C 268.402344 182.664062 276.753906 191.179688 276.699219 201.417969 C 276.640625 211.429688 268.320312 219.5625 258.15625 219.539062 Z M 258.332031 190.203125 C 252.222656 190.179688 247.46875 194.835938 247.433594 200.867188 C 247.402344 206.828125 252.25 211.683594 258.230469 211.683594 C 264.207031 211.683594 269.105469 206.78125 269.046875 200.863281 C 268.984375 194.902344 264.28125 190.222656 258.332031 190.203125 Z M 258.332031 190.203125 " fill-opacity="1" fill-rule="nonzero"/></g><g fill="#20204c" fill-opacity="1"><g transform="translate(30.657091, 284.142747)"><g><path d="M 26.375 -10.796875 C 26.445312 -8.609375 25.960938 -6.660156 24.921875 -4.953125 C 23.878906 -3.253906 22.316406 -1.910156 20.234375 -0.921875 C 18.148438 0.0546875 15.535156 0.546875 12.390625 0.546875 C 10.523438 0.546875 8.78125 0.335938 7.15625 -0.078125 C 5.53125 -0.503906 4.128906 -1.15625 2.953125 -2.03125 C 2.703125 -2.207031 2.53125 -2.425781 2.4375 -2.6875 C 2.34375 -2.945312 2.351562 -3.273438 2.46875 -3.671875 L 3.40625 -7.015625 C 3.550781 -7.378906 3.832031 -7.648438 4.25 -7.828125 C 4.664062 -8.015625 5.09375 -8.019531 5.53125 -7.84375 C 6.488281 -7.332031 7.566406 -6.875 8.765625 -6.46875 C 9.972656 -6.0625 11.328125 -5.859375 12.828125 -5.859375 C 14.617188 -5.859375 16.117188 -6.285156 17.328125 -7.140625 C 18.535156 -8.003906 19.140625 -9.207031 19.140625 -10.75 C 19.097656 -12.101562 18.484375 -13.265625 17.296875 -14.234375 C 16.109375 -15.203125 14.53125 -16.101562 12.5625 -16.9375 C 10.695312 -17.664062 9.003906 -18.5625 7.484375 -19.625 C 5.960938 -20.6875 4.742188 -21.910156 3.828125 -23.296875 C 2.921875 -24.691406 2.429688 -26.265625 2.359375 -28.015625 C 2.316406 -30.140625 2.816406 -32.015625 3.859375 -33.640625 C 4.898438 -35.265625 6.398438 -36.550781 8.359375 -37.5 C 10.316406 -38.445312 12.59375 -38.921875 15.1875 -38.921875 C 17.3125 -38.921875 19.101562 -38.664062 20.5625 -38.15625 C 22.019531 -37.644531 23.023438 -37.207031 23.578125 -36.84375 C 23.898438 -36.625 24.144531 -36.394531 24.3125 -36.15625 C 24.476562 -35.914062 24.507812 -35.597656 24.40625 -35.203125 L 22.859375 -31.578125 C 22.316406 -30.585938 21.601562 -30.351562 20.71875 -30.875 C 19.59375 -31.53125 18.546875 -31.984375 17.578125 -32.234375 C 16.609375 -32.492188 15.703125 -32.585938 14.859375 -32.515625 C 13.503906 -32.441406 12.28125 -32.019531 11.1875 -31.25 C 10.09375 -30.476562 9.582031 -29.472656 9.65625 -28.234375 C 9.6875 -27.242188 10.082031 -26.328125 10.84375 -25.484375 C 11.613281 -24.648438 12.878906 -23.867188 14.640625 -23.140625 C 15.953125 -22.585938 17.285156 -21.960938 18.640625 -21.265625 C 19.992188 -20.578125 21.242188 -19.75 22.390625 -18.78125 C 23.546875 -17.8125 24.488281 -16.675781 25.21875 -15.375 C 25.945312 -14.082031 26.332031 -12.554688 26.375 -10.796875 Z M 26.375 -10.796875 "/></g></g></g><g fill="#20204c" fill-opacity="1"><g transform="translate(64.262317, 284.142747)"><g><path d="M 1.859375 -32.1875 C 1.421875 -32.1875 1.046875 -32.300781 0.734375 -32.53125 C 0.429688 -32.769531 0.28125 -33.070312 0.28125 -33.4375 L 0.28125 -37.125 C 0.28125 -37.488281 0.429688 -37.785156 0.734375 -38.015625 C 1.046875 -38.253906 1.421875 -38.375 1.859375 -38.375 L 29.21875 -38.375 C 29.695312 -38.375 30.0625 -38.253906 30.3125 -38.015625 C 30.570312 -37.785156 30.703125 -37.488281 30.703125 -37.125 L 30.703125 -33.4375 C 30.703125 -33.070312 30.570312 -32.769531 30.3125 -32.53125 C 30.0625 -32.300781 29.695312 -32.1875 29.21875 -32.1875 L 19.03125 -32.1875 L 19.03125 -1.265625 C 19.03125 -0.898438 18.878906 -0.597656 18.578125 -0.359375 C 18.285156 -0.117188 17.941406 0 17.546875 0 L 13.484375 0 C 13.046875 0 12.671875 -0.117188 12.359375 -0.359375 C 12.046875 -0.597656 11.890625 -0.898438 11.890625 -1.265625 L 11.890625 -32.1875 Z M 1.859375 -32.1875 "/></g></g></g><g fill="#20204c" fill-opacity="1"><g transform="translate(100.772829, 284.142747)"><g><path d="M 26.15625 -9.375 L 10.90625 -9.375 L 7.84375 -1.203125 C 7.65625 -0.910156 7.40625 -0.632812 7.09375 -0.375 C 6.789062 -0.125 6.472656 0 6.140625 0 L 2.140625 0 C 1.515625 0 1.054688 -0.171875 0.765625 -0.515625 C 0.472656 -0.867188 0.421875 -1.28125 0.609375 -1.75 L 14.578125 -37.171875 C 14.765625 -37.460938 15.019531 -37.734375 15.34375 -37.984375 C 15.675781 -38.242188 15.988281 -38.375 16.28125 -38.375 L 21.65625 -38.375 C 21.914062 -38.375 22.21875 -38.28125 22.5625 -38.09375 C 22.90625 -37.914062 23.113281 -37.738281 23.1875 -37.5625 L 36.34375 -1.703125 C 36.53125 -1.222656 36.457031 -0.816406 36.125 -0.484375 C 35.800781 -0.160156 35.363281 0 34.8125 0 L 30.703125 0 C 30.441406 0 30.140625 -0.0859375 29.796875 -0.265625 C 29.453125 -0.453125 29.242188 -0.640625 29.171875 -0.828125 Z M 13.375 -15.796875 L 23.84375 -15.796875 L 18.921875 -30.09375 Z M 13.375 -15.796875 "/></g></g></g><g fill="#20204c" fill-opacity="1"><g transform="translate(142.98429, 284.142747)"><g><path d="M 10.859375 -1.265625 C 10.859375 -0.898438 10.703125 -0.597656 10.390625 -0.359375 C 10.078125 -0.117188 9.703125 0 9.265625 0 L 5.203125 0 C 4.734375 0 4.351562 -0.117188 4.0625 -0.359375 C 3.769531 -0.597656 3.625 -0.898438 3.625 -1.265625 L 3.625 -37.125 C 3.625 -37.488281 3.769531 -37.785156 4.0625 -38.015625 C 4.351562 -38.253906 4.734375 -38.375 5.203125 -38.375 L 9.921875 -38.375 L 27.6875 -23.578125 L 27.6875 -37.125 C 27.6875 -37.488281 27.832031 -37.785156 28.125 -38.015625 C 28.414062 -38.253906 28.800781 -38.375 29.28125 -38.375 L 33.390625 -38.375 C 33.828125 -38.375 34.203125 -38.253906 34.515625 -38.015625 C 34.828125 -37.785156 34.984375 -37.488281 34.984375 -37.125 L 34.984375 -1.265625 C 34.984375 -0.898438 34.828125 -0.597656 34.515625 -0.359375 C 34.203125 -0.117188 33.828125 0 33.390625 0 L 29.28125 0 C 28.800781 0 28.414062 -0.117188 28.125 -0.359375 C 27.832031 -0.597656 27.6875 -0.898438 27.6875 -1.265625 L 27.6875 -14.96875 L 10.859375 -28.734375 Z M 10.859375 -1.265625 "/></g></g></g><g fill="#20204c" fill-opacity="1"><g transform="translate(186.840238, 284.142747)"><g><path d="M 34 -19.25 C 34 -16.757812 33.640625 -14.378906 32.921875 -12.109375 C 32.210938 -9.847656 31.117188 -7.832031 29.640625 -6.0625 C 28.160156 -4.289062 26.273438 -2.863281 23.984375 -1.78125 C 21.703125 -0.707031 18.988281 -0.113281 15.84375 0 L 5.265625 0 C 4.828125 0 4.453125 -0.117188 4.140625 -0.359375 C 3.828125 -0.597656 3.671875 -0.898438 3.671875 -1.265625 L 3.671875 -37.125 C 3.671875 -37.488281 3.828125 -37.785156 4.140625 -38.015625 C 4.453125 -38.253906 4.828125 -38.375 5.265625 -38.375 L 15.734375 -38.375 C 19.316406 -38.375 22.476562 -37.570312 25.21875 -35.96875 C 27.957031 -34.363281 30.101562 -32.125 31.65625 -29.25 C 33.21875 -26.382812 34 -23.050781 34 -19.25 Z M 10.90625 -6.53125 L 15.734375 -6.53125 C 18.078125 -6.601562 20.0625 -7.234375 21.6875 -8.421875 C 23.3125 -9.609375 24.550781 -11.160156 25.40625 -13.078125 C 26.269531 -14.992188 26.703125 -17.050781 26.703125 -19.25 C 26.703125 -21.4375 26.34375 -23.488281 25.625 -25.40625 C 24.914062 -27.332031 23.765625 -28.890625 22.171875 -30.078125 C 20.585938 -31.265625 18.441406 -31.859375 15.734375 -31.859375 L 10.90625 -31.859375 Z M 10.90625 -6.53125 "/></g></g></g><g fill="#20204c" fill-opacity="1"><g transform="translate(228.558342, 284.142747)"><g><path d="M 26.15625 -9.375 L 10.90625 -9.375 L 7.84375 -1.203125 C 7.65625 -0.910156 7.40625 -0.632812 7.09375 -0.375 C 6.789062 -0.125 6.472656 0 6.140625 0 L 2.140625 0 C 1.515625 0 1.054688 -0.171875 0.765625 -0.515625 C 0.472656 -0.867188 0.421875 -1.28125 0.609375 -1.75 L 14.578125 -37.171875 C 14.765625 -37.460938 15.019531 -37.734375 15.34375 -37.984375 C 15.675781 -38.242188 15.988281 -38.375 16.28125 -38.375 L 21.65625 -38.375 C 21.914062 -38.375 22.21875 -38.28125 22.5625 -38.09375 C 22.90625 -37.914062 23.113281 -37.738281 23.1875 -37.5625 L 36.34375 -1.703125 C 36.53125 -1.222656 36.457031 -0.816406 36.125 -0.484375 C 35.800781 -0.160156 35.363281 0 34.8125 0 L 30.703125 0 C 30.441406 0 30.140625 -0.0859375 29.796875 -0.265625 C 29.453125 -0.453125 29.242188 -0.640625 29.171875 -0.828125 Z M 13.375 -15.796875 L 23.84375 -15.796875 L 18.921875 -30.09375 Z M 13.375 -15.796875 "/></g></g></g><g fill="#20204c" fill-opacity="1"><g transform="translate(270.769803, 284.142747)"><g><path d="M 10.859375 -1.265625 C 10.859375 -0.898438 10.703125 -0.597656 10.390625 -0.359375 C 10.078125 -0.117188 9.703125 0 9.265625 0 L 5.15625 0 C 4.675781 0 4.289062 -0.117188 4 -0.359375 C 3.707031 -0.597656 3.5625 -0.898438 3.5625 -1.265625 L 3.5625 -37.125 C 3.5625 -37.488281 3.707031 -37.785156 4 -38.015625 C 4.289062 -38.253906 4.675781 -38.375 5.15625 -38.375 L 14.640625 -38.375 C 17.492188 -38.375 20.039062 -37.953125 22.28125 -37.109375 C 24.53125 -36.273438 26.300781 -34.953125 27.59375 -33.140625 C 28.894531 -31.328125 29.546875 -28.960938 29.546875 -26.046875 C 29.546875 -20.410156 27.132812 -16.679688 22.3125 -14.859375 L 29.828125 -1.859375 C 30.078125 -1.390625 30.070312 -0.960938 29.8125 -0.578125 C 29.5625 -0.191406 29.128906 0 28.515625 0 L 23.625 0 C 23.039062 0 22.550781 -0.3125 22.15625 -0.9375 L 15.078125 -13.546875 L 10.859375 -13.546875 Z M 14.6875 -19.84375 C 17.507812 -19.84375 19.519531 -20.414062 20.71875 -21.5625 C 21.925781 -22.71875 22.53125 -24.191406 22.53125 -25.984375 C 22.53125 -26.492188 22.445312 -27.085938 22.28125 -27.765625 C 22.125 -28.441406 21.78125 -29.097656 21.25 -29.734375 C 20.71875 -30.378906 19.921875 -30.910156 18.859375 -31.328125 C 17.796875 -31.753906 16.367188 -31.96875 14.578125 -31.96875 L 10.859375 -31.96875 L 10.859375 -19.84375 Z M 14.6875 -19.84375 "/></g></g></g><g fill="#20204c" fill-opacity="1"><g transform="translate(307.828486, 284.142747)"><g><path d="M 34 -19.25 C 34 -16.757812 33.640625 -14.378906 32.921875 -12.109375 C 32.210938 -9.847656 31.117188 -7.832031 29.640625 -6.0625 C 28.160156 -4.289062 26.273438 -2.863281 23.984375 -1.78125 C 21.703125 -0.707031 18.988281 -0.113281 15.84375 0 L 5.265625 0 C 4.828125 0 4.453125 -0.117188 4.140625 -0.359375 C 3.828125 -0.597656 3.671875 -0.898438 3.671875 -1.265625 L 3.671875 -37.125 C 3.671875 -37.488281 3.828125 -37.785156 4.140625 -38.015625 C 4.453125 -38.253906 4.828125 -38.375 5.265625 -38.375 L 15.734375 -38.375 C 19.316406 -38.375 22.476562 -37.570312 25.21875 -35.96875 C 27.957031 -34.363281 30.101562 -32.125 31.65625 -29.25 C 33.21875 -26.382812 34 -23.050781 34 -19.25 Z M 10.90625 -6.53125 L 15.734375 -6.53125 C 18.078125 -6.601562 20.0625 -7.234375 21.6875 -8.421875 C 23.3125 -9.609375 24.550781 -11.160156 25.40625 -13.078125 C 26.269531 -14.992188 26.703125 -17.050781 26.703125 -19.25 C 26.703125 -21.4375 26.34375 -23.488281 25.625 -25.40625 C 24.914062 -27.332031 23.765625 -28.890625 22.171875 -30.078125 C 20.585938 -31.265625 18.441406 -31.859375 15.734375 -31.859375 L 10.90625 -31.859375 Z M 10.90625 -6.53125 "/></g></g></g><g fill="#20204c" fill-opacity="1"><g transform="translate(41.715003, 323.631512)"><g><path d="M 13.6875 0 L 11.6875 0 L 3.5625 -12.515625 L 3.484375 -12.515625 C 3.503906 -12.179688 3.523438 -11.800781 3.546875 -11.375 C 3.578125 -10.957031 3.601562 -10.507812 3.625 -10.03125 C 3.644531 -9.550781 3.65625 -9.0625 3.65625 -8.5625 L 3.65625 0 L 2.03125 0 L 2.03125 -14.90625 L 4.03125 -14.90625 L 12.125 -2.421875 L 12.1875 -2.421875 C 12.175781 -2.660156 12.160156 -3 12.140625 -3.4375 C 12.117188 -3.875 12.097656 -4.34375 12.078125 -4.84375 C 12.066406 -5.351562 12.0625 -5.828125 12.0625 -6.265625 L 12.0625 -14.90625 L 13.6875 -14.90625 Z M 13.6875 0 "/></g></g></g><g fill="#20204c" fill-opacity="1"><g transform="translate(58.640673, 323.631512)"><g><path d="M 11.390625 0 L 9.546875 -4.734375 L 3.578125 -4.734375 L 1.75 0 L 0 0 L 5.828125 -14.96875 L 7.390625 -14.96875 L 13.171875 0 Z M 9.03125 -6.265625 L 7.28125 -10.96875 C 7.25 -11.09375 7.1875 -11.289062 7.09375 -11.5625 C 7 -11.84375 6.90625 -12.132812 6.8125 -12.4375 C 6.71875 -12.738281 6.640625 -12.976562 6.578125 -13.15625 C 6.503906 -12.875 6.425781 -12.597656 6.34375 -12.328125 C 6.269531 -12.054688 6.195312 -11.800781 6.125 -11.5625 C 6.050781 -11.332031 5.988281 -11.132812 5.9375 -10.96875 L 4.15625 -6.265625 Z M 9.03125 -6.265625 "/></g></g></g><g fill="#20204c" fill-opacity="1"><g transform="translate(73.049182, 323.631512)"><g><path d="M 13.6875 0 L 11.6875 0 L 3.5625 -12.515625 L 3.484375 -12.515625 C 3.503906 -12.179688 3.523438 -11.800781 3.546875 -11.375 C 3.578125 -10.957031 3.601562 -10.507812 3.625 -10.03125 C 3.644531 -9.550781 3.65625 -9.0625 3.65625 -8.5625 L 3.65625 0 L 2.03125 0 L 2.03125 -14.90625 L 4.03125 -14.90625 L 12.125 -2.421875 L 12.1875 -2.421875 C 12.175781 -2.660156 12.160156 -3 12.140625 -3.4375 C 12.117188 -3.875 12.097656 -4.34375 12.078125 -4.84375 C 12.066406 -5.351562 12.0625 -5.828125 12.0625 -6.265625 L 12.0625 -14.90625 L 13.6875 -14.90625 Z M 13.6875 0 "/></g></g></g><g fill="#20204c" fill-opacity="1"><g transform="translate(89.974849, 323.631512)"><g><path d="M 14.96875 -7.46875 C 14.96875 -6.320312 14.820312 -5.273438 14.53125 -4.328125 C 14.238281 -3.390625 13.800781 -2.582031 13.21875 -1.90625 C 12.644531 -1.226562 11.929688 -0.707031 11.078125 -0.34375 C 10.234375 0.0195312 9.253906 0.203125 8.140625 0.203125 C 6.984375 0.203125 5.972656 0.0195312 5.109375 -0.34375 C 4.253906 -0.707031 3.539062 -1.226562 2.96875 -1.90625 C 2.40625 -2.59375 1.984375 -3.40625 1.703125 -4.34375 C 1.421875 -5.289062 1.28125 -6.335938 1.28125 -7.484375 C 1.28125 -9.015625 1.53125 -10.351562 2.03125 -11.5 C 2.53125 -12.644531 3.289062 -13.535156 4.3125 -14.171875 C 5.332031 -14.816406 6.617188 -15.140625 8.171875 -15.140625 C 9.640625 -15.140625 10.878906 -14.820312 11.890625 -14.1875 C 12.898438 -13.550781 13.664062 -12.660156 14.1875 -11.515625 C 14.707031 -10.378906 14.96875 -9.03125 14.96875 -7.46875 Z M 3.09375 -7.46875 C 3.09375 -6.207031 3.269531 -5.113281 3.625 -4.1875 C 3.988281 -3.257812 4.539062 -2.546875 5.28125 -2.046875 C 6.03125 -1.546875 6.984375 -1.296875 8.140625 -1.296875 C 9.285156 -1.296875 10.226562 -1.546875 10.96875 -2.046875 C 11.707031 -2.546875 12.253906 -3.257812 12.609375 -4.1875 C 12.960938 -5.113281 13.140625 -6.207031 13.140625 -7.46875 C 13.140625 -9.394531 12.734375 -10.898438 11.921875 -11.984375 C 11.117188 -13.066406 9.867188 -13.609375 8.171875 -13.609375 C 7.015625 -13.609375 6.0625 -13.359375 5.3125 -12.859375 C 4.5625 -12.367188 4.003906 -11.664062 3.640625 -10.75 C 3.273438 -9.832031 3.09375 -8.738281 3.09375 -7.46875 Z M 3.09375 -7.46875 "/></g></g></g><g fill="#20204c" fill-opacity="1"><g transform="translate(107.420267, 323.631512)"><g/></g></g><g fill="#20204c" fill-opacity="1"><g transform="translate(114.053068, 323.631512)"><g><path d="M 7.078125 -11.375 C 8.398438 -11.375 9.398438 -11.046875 10.078125 -10.390625 C 10.753906 -9.742188 11.09375 -8.707031 11.09375 -7.28125 L 11.09375 0 L 9.421875 0 L 9.421875 -7.171875 C 9.421875 -8.097656 9.207031 -8.789062 8.78125 -9.25 C 8.363281 -9.71875 7.71875 -9.953125 6.84375 -9.953125 C 5.601562 -9.953125 4.726562 -9.597656 4.21875 -8.890625 C 3.71875 -8.191406 3.46875 -7.175781 3.46875 -5.84375 L 3.46875 0 L 1.78125 0 L 1.78125 -11.171875 L 3.15625 -11.171875 L 3.40625 -9.5625 L 3.5 -9.5625 C 3.738281 -9.957031 4.039062 -10.285156 4.40625 -10.546875 C 4.769531 -10.816406 5.175781 -11.019531 5.625 -11.15625 C 6.082031 -11.300781 6.566406 -11.375 7.078125 -11.375 Z M 7.078125 -11.375 "/></g></g></g><g fill="#20204c" fill-opacity="1"><g transform="translate(128.064126, 323.631512)"><g><path d="M 6.078125 -11.375 C 7.035156 -11.375 7.851562 -11.160156 8.53125 -10.734375 C 9.207031 -10.316406 9.722656 -9.726562 10.078125 -8.96875 C 10.441406 -8.21875 10.625 -7.332031 10.625 -6.3125 L 10.625 -5.265625 L 2.921875 -5.265625 C 2.941406 -3.953125 3.265625 -2.953125 3.890625 -2.265625 C 4.523438 -1.585938 5.414062 -1.25 6.5625 -1.25 C 7.269531 -1.25 7.894531 -1.3125 8.4375 -1.4375 C 8.976562 -1.5625 9.539062 -1.753906 10.125 -2.015625 L 10.125 -0.515625 C 9.5625 -0.265625 9.003906 -0.0820312 8.453125 0.03125 C 7.898438 0.144531 7.25 0.203125 6.5 0.203125 C 5.414062 0.203125 4.472656 -0.015625 3.671875 -0.453125 C 2.878906 -0.890625 2.257812 -1.53125 1.8125 -2.375 C 1.375 -3.226562 1.15625 -4.269531 1.15625 -5.5 C 1.15625 -6.707031 1.359375 -7.75 1.765625 -8.625 C 2.171875 -9.507812 2.742188 -10.1875 3.484375 -10.65625 C 4.222656 -11.132812 5.085938 -11.375 6.078125 -11.375 Z M 6.0625 -9.984375 C 5.15625 -9.984375 4.429688 -9.6875 3.890625 -9.09375 C 3.359375 -8.507812 3.046875 -7.6875 2.953125 -6.625 L 8.859375 -6.625 C 8.847656 -7.289062 8.742188 -7.875 8.546875 -8.375 C 8.347656 -8.882812 8.039062 -9.28125 7.625 -9.5625 C 7.21875 -9.84375 6.695312 -9.984375 6.0625 -9.984375 Z M 6.0625 -9.984375 "/></g></g></g><g fill="#20204c" fill-opacity="1"><g transform="translate(140.994942, 323.631512)"><g><path d="M 5.390625 -1.1875 C 5.671875 -1.1875 5.957031 -1.207031 6.25 -1.25 C 6.539062 -1.300781 6.78125 -1.359375 6.96875 -1.421875 L 6.96875 -0.109375 C 6.769531 -0.0234375 6.492188 0.046875 6.140625 0.109375 C 5.785156 0.171875 5.441406 0.203125 5.109375 0.203125 C 4.523438 0.203125 3.988281 0.0976562 3.5 -0.109375 C 3.019531 -0.316406 2.632812 -0.664062 2.34375 -1.15625 C 2.0625 -1.65625 1.921875 -2.34375 1.921875 -3.21875 L 1.921875 -9.84375 L 0.328125 -9.84375 L 0.328125 -10.671875 L 1.921875 -11.328125 L 2.59375 -13.765625 L 3.625 -13.765625 L 3.625 -11.171875 L 6.890625 -11.171875 L 6.890625 -9.84375 L 3.625 -9.84375 L 3.625 -3.265625 C 3.625 -2.566406 3.785156 -2.046875 4.109375 -1.703125 C 4.429688 -1.359375 4.859375 -1.1875 5.390625 -1.1875 Z M 5.390625 -1.1875 "/></g></g></g><g fill="#20204c" fill-opacity="1"><g transform="translate(149.645553, 323.631512)"><g><path d="M 10.875 -0.015625 L 8.890625 -6.53125 C 8.796875 -6.800781 8.707031 -7.070312 8.625 -7.34375 C 8.550781 -7.613281 8.484375 -7.867188 8.421875 -8.109375 C 8.359375 -8.359375 8.300781 -8.59375 8.25 -8.8125 C 8.195312 -9.03125 8.15625 -9.21875 8.125 -9.375 L 8.046875 -9.375 C 8.023438 -9.21875 7.988281 -9.03125 7.9375 -8.8125 C 7.894531 -8.59375 7.835938 -8.359375 7.765625 -8.109375 C 7.703125 -7.859375 7.632812 -7.59375 7.5625 -7.3125 C 7.488281 -7.039062 7.40625 -6.769531 7.3125 -6.5 L 5.234375 -0.015625 L 3.328125 -0.015625 L 0.25 -11.1875 L 2 -11.1875 L 3.609375 -5.03125 C 3.710938 -4.613281 3.8125 -4.207031 3.90625 -3.8125 C 4.007812 -3.414062 4.097656 -3.039062 4.171875 -2.6875 C 4.242188 -2.34375 4.296875 -2.039062 4.328125 -1.78125 L 4.40625 -1.78125 C 4.445312 -1.945312 4.492188 -2.148438 4.546875 -2.390625 C 4.597656 -2.628906 4.65625 -2.882812 4.71875 -3.15625 C 4.789062 -3.425781 4.863281 -3.691406 4.9375 -3.953125 C 5.007812 -4.222656 5.082031 -4.476562 5.15625 -4.71875 L 7.21875 -11.1875 L 9.046875 -11.1875 L 11.03125 -4.734375 C 11.132812 -4.398438 11.234375 -4.054688 11.328125 -3.703125 C 11.429688 -3.359375 11.519531 -3.019531 11.59375 -2.6875 C 11.675781 -2.351562 11.734375 -2.054688 11.765625 -1.796875 L 11.859375 -1.796875 C 11.878906 -2.035156 11.925781 -2.320312 12 -2.65625 C 12.082031 -3 12.171875 -3.375 12.265625 -3.78125 C 12.367188 -4.1875 12.472656 -4.601562 12.578125 -5.03125 L 14.203125 -11.1875 L 15.9375 -11.1875 L 12.84375 -0.015625 Z M 10.875 -0.015625 "/></g></g></g><g fill="#20204c" fill-opacity="1"><g transform="translate(167.029825, 323.631512)"><g><path d="M 11.421875 -5.609375 C 11.421875 -4.691406 11.300781 -3.867188 11.0625 -3.140625 C 10.820312 -2.421875 10.476562 -1.8125 10.03125 -1.3125 C 9.582031 -0.820312 9.039062 -0.445312 8.40625 -0.1875 C 7.769531 0.0703125 7.050781 0.203125 6.25 0.203125 C 5.5 0.203125 4.8125 0.0703125 4.1875 -0.1875 C 3.570312 -0.445312 3.035156 -0.820312 2.578125 -1.3125 C 2.128906 -1.8125 1.78125 -2.421875 1.53125 -3.140625 C 1.28125 -3.867188 1.15625 -4.691406 1.15625 -5.609375 C 1.15625 -6.828125 1.363281 -7.863281 1.78125 -8.71875 C 2.195312 -9.582031 2.789062 -10.238281 3.5625 -10.6875 C 4.332031 -11.144531 5.25 -11.375 6.3125 -11.375 C 7.332031 -11.375 8.222656 -11.144531 8.984375 -10.6875 C 9.753906 -10.238281 10.351562 -9.582031 10.78125 -8.71875 C 11.207031 -7.863281 11.421875 -6.828125 11.421875 -5.609375 Z M 2.921875 -5.609375 C 2.921875 -4.710938 3.035156 -3.929688 3.265625 -3.265625 C 3.503906 -2.609375 3.867188 -2.097656 4.359375 -1.734375 C 4.859375 -1.378906 5.5 -1.203125 6.28125 -1.203125 C 7.0625 -1.203125 7.703125 -1.378906 8.203125 -1.734375 C 8.703125 -2.097656 9.066406 -2.609375 9.296875 -3.265625 C 9.535156 -3.929688 9.65625 -4.710938 9.65625 -5.609375 C 9.65625 -6.492188 9.535156 -7.257812 9.296875 -7.90625 C 9.066406 -8.5625 8.703125 -9.066406 8.203125 -9.421875 C 7.710938 -9.773438 7.070312 -9.953125 6.28125 -9.953125 C 5.113281 -9.953125 4.257812 -9.566406 3.71875 -8.796875 C 3.1875 -8.023438 2.921875 -6.960938 2.921875 -5.609375 Z M 2.921875 -5.609375 "/></g></g></g><g fill="#20204c" fill-opacity="1"><g transform="translate(180.7963, 323.631512)"><g><path d="M 6.859375 -11.375 C 7.085938 -11.375 7.320312 -11.359375 7.5625 -11.328125 C 7.8125 -11.304688 8.03125 -11.28125 8.21875 -11.25 L 8 -9.671875 C 7.8125 -9.722656 7.601562 -9.757812 7.375 -9.78125 C 7.15625 -9.8125 6.953125 -9.828125 6.765625 -9.828125 C 6.304688 -9.828125 5.878906 -9.734375 5.484375 -9.546875 C 5.085938 -9.367188 4.738281 -9.113281 4.4375 -8.78125 C 4.144531 -8.445312 3.910156 -8.039062 3.734375 -7.5625 C 3.566406 -7.09375 3.484375 -6.570312 3.484375 -6 L 3.484375 0 L 1.78125 0 L 1.78125 -11.171875 L 3.1875 -11.171875 L 3.375 -9.109375 L 3.4375 -9.109375 C 3.675781 -9.523438 3.957031 -9.90625 4.28125 -10.25 C 4.601562 -10.59375 4.976562 -10.863281 5.40625 -11.0625 C 5.84375 -11.269531 6.328125 -11.375 6.859375 -11.375 Z M 6.859375 -11.375 "/></g></g></g><g fill="#20204c" fill-opacity="1"><g transform="translate(190.53735, 323.631512)"><g><path d="M 3.46875 -15.859375 L 3.46875 -7.625 C 3.46875 -7.351562 3.457031 -7.019531 3.4375 -6.625 C 3.414062 -6.238281 3.398438 -5.894531 3.390625 -5.59375 L 3.453125 -5.59375 C 3.597656 -5.769531 3.804688 -6.03125 4.078125 -6.375 C 4.359375 -6.726562 4.59375 -7.007812 4.78125 -7.21875 L 8.484375 -11.171875 L 10.484375 -11.171875 L 5.984375 -6.40625 L 10.796875 0 L 8.765625 0 L 4.828125 -5.296875 L 3.46875 -4.046875 L 3.46875 0 L 1.78125 0 L 1.78125 -15.859375 Z M 3.46875 -15.859375 "/></g></g></g><g fill="#20204c" fill-opacity="1"><g transform="translate(202.714034, 323.631512)"><g/></g></g><g fill="#20204c" fill-opacity="1"><g transform="translate(209.346835, 323.631512)"><g><path d="M 3.46875 -11.171875 L 3.46875 0 L 1.78125 0 L 1.78125 -11.171875 Z M 2.65625 -15.34375 C 2.925781 -15.34375 3.160156 -15.253906 3.359375 -15.078125 C 3.566406 -14.898438 3.671875 -14.617188 3.671875 -14.234375 C 3.671875 -13.859375 3.566406 -13.578125 3.359375 -13.390625 C 3.160156 -13.210938 2.925781 -13.125 2.65625 -13.125 C 2.363281 -13.125 2.117188 -13.210938 1.921875 -13.390625 C 1.722656 -13.578125 1.625 -13.859375 1.625 -14.234375 C 1.625 -14.617188 1.722656 -14.898438 1.921875 -15.078125 C 2.117188 -15.253906 2.363281 -15.34375 2.65625 -15.34375 Z M 2.65625 -15.34375 "/></g></g></g><g fill="#20204c" fill-opacity="1"><g transform="translate(215.826777, 323.631512)"><g><path d="M 7.078125 -11.375 C 8.398438 -11.375 9.398438 -11.046875 10.078125 -10.390625 C 10.753906 -9.742188 11.09375 -8.707031 11.09375 -7.28125 L 11.09375 0 L 9.421875 0 L 9.421875 -7.171875 C 9.421875 -8.097656 9.207031 -8.789062 8.78125 -9.25 C 8.363281 -9.71875 7.71875 -9.953125 6.84375 -9.953125 C 5.601562 -9.953125 4.726562 -9.597656 4.21875 -8.890625 C 3.71875 -8.191406 3.46875 -7.175781 3.46875 -5.84375 L 3.46875 0 L 1.78125 0 L 1.78125 -11.171875 L 3.15625 -11.171875 L 3.40625 -9.5625 L 3.5 -9.5625 C 3.738281 -9.957031 4.039062 -10.285156 4.40625 -10.546875 C 4.769531 -10.816406 5.175781 -11.019531 5.625 -11.15625 C 6.082031 -11.300781 6.566406 -11.375 7.078125 -11.375 Z M 7.078125 -11.375 "/></g></g></g><g fill="#20204c" fill-opacity="1"><g transform="translate(229.837835, 323.631512)"><g><path d="M 5.390625 -1.1875 C 5.671875 -1.1875 5.957031 -1.207031 6.25 -1.25 C 6.539062 -1.300781 6.78125 -1.359375 6.96875 -1.421875 L 6.96875 -0.109375 C 6.769531 -0.0234375 6.492188 0.046875 6.140625 0.109375 C 5.785156 0.171875 5.441406 0.203125 5.109375 0.203125 C 4.523438 0.203125 3.988281 0.0976562 3.5 -0.109375 C 3.019531 -0.316406 2.632812 -0.664062 2.34375 -1.15625 C 2.0625 -1.65625 1.921875 -2.34375 1.921875 -3.21875 L 1.921875 -9.84375 L 0.328125 -9.84375 L 0.328125 -10.671875 L 1.921875 -11.328125 L 2.59375 -13.765625 L 3.625 -13.765625 L 3.625 -11.171875 L 6.890625 -11.171875 L 6.890625 -9.84375 L 3.625 -9.84375 L 3.625 -3.265625 C 3.625 -2.566406 3.785156 -2.046875 4.109375 -1.703125 C 4.429688 -1.359375 4.859375 -1.1875 5.390625 -1.1875 Z M 5.390625 -1.1875 "/></g></g></g><g fill="#20204c" fill-opacity="1"><g transform="translate(238.488435, 323.631512)"><g><path d="M 6.078125 -11.375 C 7.035156 -11.375 7.851562 -11.160156 8.53125 -10.734375 C 9.207031 -10.316406 9.722656 -9.726562 10.078125 -8.96875 C 10.441406 -8.21875 10.625 -7.332031 10.625 -6.3125 L 10.625 -5.265625 L 2.921875 -5.265625 C 2.941406 -3.953125 3.265625 -2.953125 3.890625 -2.265625 C 4.523438 -1.585938 5.414062 -1.25 6.5625 -1.25 C 7.269531 -1.25 7.894531 -1.3125 8.4375 -1.4375 C 8.976562 -1.5625 9.539062 -1.753906 10.125 -2.015625 L 10.125 -0.515625 C 9.5625 -0.265625 9.003906 -0.0820312 8.453125 0.03125 C 7.898438 0.144531 7.25 0.203125 6.5 0.203125 C 5.414062 0.203125 4.472656 -0.015625 3.671875 -0.453125 C 2.878906 -0.890625 2.257812 -1.53125 1.8125 -2.375 C 1.375 -3.226562 1.15625 -4.269531 1.15625 -5.5 C 1.15625 -6.707031 1.359375 -7.75 1.765625 -8.625 C 2.171875 -9.507812 2.742188 -10.1875 3.484375 -10.65625 C 4.222656 -11.132812 5.085938 -11.375 6.078125 -11.375 Z M 6.0625 -9.984375 C 5.15625 -9.984375 4.429688 -9.6875 3.890625 -9.09375 C 3.359375 -8.507812 3.046875 -7.6875 2.953125 -6.625 L 8.859375 -6.625 C 8.847656 -7.289062 8.742188 -7.875 8.546875 -8.375 C 8.347656 -8.882812 8.039062 -9.28125 7.625 -9.5625 C 7.21875 -9.84375 6.695312 -9.984375 6.0625 -9.984375 Z M 6.0625 -9.984375 "/></g></g></g><g fill="#20204c" fill-opacity="1"><g transform="translate(251.419251, 323.631512)"><g><path d="M 3.484375 0 L 1.78125 0 L 1.78125 -15.859375 L 3.484375 -15.859375 Z M 3.484375 0 "/></g></g></g><g fill="#20204c" fill-opacity="1"><g transform="translate(257.899193, 323.631512)"><g><path d="M 3.484375 0 L 1.78125 0 L 1.78125 -15.859375 L 3.484375 -15.859375 Z M 3.484375 0 "/></g></g></g><g fill="#20204c" fill-opacity="1"><g transform="translate(264.379135, 323.631512)"><g><path d="M 3.46875 -11.171875 L 3.46875 0 L 1.78125 0 L 1.78125 -11.171875 Z M 2.65625 -15.34375 C 2.925781 -15.34375 3.160156 -15.253906 3.359375 -15.078125 C 3.566406 -14.898438 3.671875 -14.617188 3.671875 -14.234375 C 3.671875 -13.859375 3.566406 -13.578125 3.359375 -13.390625 C 3.160156 -13.210938 2.925781 -13.125 2.65625 -13.125 C 2.363281 -13.125 2.117188 -13.210938 1.921875 -13.390625 C 1.722656 -13.578125 1.625 -13.859375 1.625 -14.234375 C 1.625 -14.617188 1.722656 -14.898438 1.921875 -15.078125 C 2.117188 -15.253906 2.363281 -15.34375 2.65625 -15.34375 Z M 2.65625 -15.34375 "/></g></g></g><g fill="#20204c" fill-opacity="1"><g transform="translate(270.859076, 323.631512)"><g><path d="M 4.90625 5.015625 C 3.4375 5.015625 2.300781 4.738281 1.5 4.1875 C 0.707031 3.644531 0.3125 2.878906 0.3125 1.890625 C 0.3125 1.191406 0.535156 0.59375 0.984375 0.09375 C 1.429688 -0.394531 2.046875 -0.722656 2.828125 -0.890625 C 2.535156 -1.023438 2.285156 -1.226562 2.078125 -1.5 C 1.878906 -1.769531 1.78125 -2.082031 1.78125 -2.4375 C 1.78125 -2.84375 1.890625 -3.195312 2.109375 -3.5 C 2.335938 -3.8125 2.6875 -4.113281 3.15625 -4.40625 C 2.570312 -4.644531 2.097656 -5.046875 1.734375 -5.609375 C 1.367188 -6.179688 1.1875 -6.84375 1.1875 -7.59375 C 1.1875 -8.394531 1.351562 -9.078125 1.6875 -9.640625 C 2.019531 -10.210938 2.503906 -10.644531 3.140625 -10.9375 C 3.773438 -11.238281 4.539062 -11.390625 5.4375 -11.390625 C 5.632812 -11.390625 5.832031 -11.378906 6.03125 -11.359375 C 6.226562 -11.347656 6.414062 -11.328125 6.59375 -11.296875 C 6.78125 -11.265625 6.941406 -11.226562 7.078125 -11.1875 L 10.921875 -11.1875 L 10.921875 -10.09375 L 8.859375 -9.84375 C 9.054688 -9.582031 9.222656 -9.265625 9.359375 -8.890625 C 9.503906 -8.515625 9.578125 -8.097656 9.578125 -7.640625 C 9.578125 -6.523438 9.195312 -5.640625 8.4375 -4.984375 C 7.6875 -4.328125 6.648438 -4 5.328125 -4 C 5.015625 -4 4.695312 -4.03125 4.375 -4.09375 C 4.039062 -3.90625 3.785156 -3.695312 3.609375 -3.46875 C 3.441406 -3.25 3.359375 -2.992188 3.359375 -2.703125 C 3.359375 -2.484375 3.421875 -2.304688 3.546875 -2.171875 C 3.679688 -2.046875 3.875 -1.953125 4.125 -1.890625 C 4.375 -1.835938 4.675781 -1.8125 5.03125 -1.8125 L 7 -1.8125 C 8.21875 -1.8125 9.148438 -1.554688 9.796875 -1.046875 C 10.453125 -0.535156 10.78125 0.207031 10.78125 1.1875 C 10.78125 2.414062 10.273438 3.359375 9.265625 4.015625 C 8.253906 4.679688 6.800781 5.015625 4.90625 5.015625 Z M 4.953125 3.6875 C 5.878906 3.6875 6.644531 3.59375 7.25 3.40625 C 7.863281 3.21875 8.320312 2.945312 8.625 2.59375 C 8.925781 2.25 9.078125 1.835938 9.078125 1.359375 C 9.078125 0.910156 8.972656 0.570312 8.765625 0.34375 C 8.554688 0.113281 8.253906 -0.0351562 7.859375 -0.109375 C 7.472656 -0.191406 6.992188 -0.234375 6.421875 -0.234375 L 4.484375 -0.234375 C 3.984375 -0.234375 3.546875 -0.15625 3.171875 0 C 2.796875 0.15625 2.507812 0.382812 2.3125 0.6875 C 2.113281 1 2.015625 1.378906 2.015625 1.828125 C 2.015625 2.429688 2.265625 2.890625 2.765625 3.203125 C 3.273438 3.523438 4.003906 3.6875 4.953125 3.6875 Z M 5.390625 -5.234375 C 6.203125 -5.234375 6.8125 -5.4375 7.21875 -5.84375 C 7.625 -6.257812 7.828125 -6.859375 7.828125 -7.640625 C 7.828125 -8.472656 7.617188 -9.097656 7.203125 -9.515625 C 6.785156 -9.929688 6.175781 -10.140625 5.375 -10.140625 C 4.59375 -10.140625 3.992188 -9.921875 3.578125 -9.484375 C 3.160156 -9.054688 2.953125 -8.429688 2.953125 -7.609375 C 2.953125 -6.847656 3.160156 -6.257812 3.578125 -5.84375 C 4.003906 -5.4375 4.609375 -5.234375 5.390625 -5.234375 Z M 5.390625 -5.234375 "/></g></g></g><g fill="#20204c" fill-opacity="1"><g transform="translate(283.402624, 323.631512)"><g><path d="M 6.078125 -11.375 C 7.035156 -11.375 7.851562 -11.160156 8.53125 -10.734375 C 9.207031 -10.316406 9.722656 -9.726562 10.078125 -8.96875 C 10.441406 -8.21875 10.625 -7.332031 10.625 -6.3125 L 10.625 -5.265625 L 2.921875 -5.265625 C 2.941406 -3.953125 3.265625 -2.953125 3.890625 -2.265625 C 4.523438 -1.585938 5.414062 -1.25 6.5625 -1.25 C 7.269531 -1.25 7.894531 -1.3125 8.4375 -1.4375 C 8.976562 -1.5625 9.539062 -1.753906 10.125 -2.015625 L 10.125 -0.515625 C 9.5625 -0.265625 9.003906 -0.0820312 8.453125 0.03125 C 7.898438 0.144531 7.25 0.203125 6.5 0.203125 C 5.414062 0.203125 4.472656 -0.015625 3.671875 -0.453125 C 2.878906 -0.890625 2.257812 -1.53125 1.8125 -2.375 C 1.375 -3.226562 1.15625 -4.269531 1.15625 -5.5 C 1.15625 -6.707031 1.359375 -7.75 1.765625 -8.625 C 2.171875 -9.507812 2.742188 -10.1875 3.484375 -10.65625 C 4.222656 -11.132812 5.085938 -11.375 6.078125 -11.375 Z M 6.0625 -9.984375 C 5.15625 -9.984375 4.429688 -9.6875 3.890625 -9.09375 C 3.359375 -8.507812 3.046875 -7.6875 2.953125 -6.625 L 8.859375 -6.625 C 8.847656 -7.289062 8.742188 -7.875 8.546875 -8.375 C 8.347656 -8.882812 8.039062 -9.28125 7.625 -9.5625 C 7.21875 -9.84375 6.695312 -9.984375 6.0625 -9.984375 Z M 6.0625 -9.984375 "/></g></g></g><g fill="#20204c" fill-opacity="1"><g transform="translate(296.33344, 323.631512)"><g><path d="M 7.078125 -11.375 C 8.398438 -11.375 9.398438 -11.046875 10.078125 -10.390625 C 10.753906 -9.742188 11.09375 -8.707031 11.09375 -7.28125 L 11.09375 0 L 9.421875 0 L 9.421875 -7.171875 C 9.421875 -8.097656 9.207031 -8.789062 8.78125 -9.25 C 8.363281 -9.71875 7.71875 -9.953125 6.84375 -9.953125 C 5.601562 -9.953125 4.726562 -9.597656 4.21875 -8.890625 C 3.71875 -8.191406 3.46875 -7.175781 3.46875 -5.84375 L 3.46875 0 L 1.78125 0 L 1.78125 -11.171875 L 3.15625 -11.171875 L 3.40625 -9.5625 L 3.5 -9.5625 C 3.738281 -9.957031 4.039062 -10.285156 4.40625 -10.546875 C 4.769531 -10.816406 5.175781 -11.019531 5.625 -11.15625 C 6.082031 -11.300781 6.566406 -11.375 7.078125 -11.375 Z M 7.078125 -11.375 "/></g></g></g><g fill="#20204c" fill-opacity="1"><g transform="translate(310.344486, 323.631512)"><g><path d="M 6.265625 0.203125 C 5.253906 0.203125 4.363281 -0.00390625 3.59375 -0.421875 C 2.832031 -0.835938 2.234375 -1.46875 1.796875 -2.3125 C 1.367188 -3.164062 1.15625 -4.238281 1.15625 -5.53125 C 1.15625 -6.875 1.378906 -7.972656 1.828125 -8.828125 C 2.285156 -9.691406 2.910156 -10.332031 3.703125 -10.75 C 4.503906 -11.164062 5.410156 -11.375 6.421875 -11.375 C 6.972656 -11.375 7.507812 -11.316406 8.03125 -11.203125 C 8.550781 -11.085938 8.976562 -10.945312 9.3125 -10.78125 L 8.8125 -9.375 C 8.46875 -9.507812 8.070312 -9.628906 7.625 -9.734375 C 7.1875 -9.835938 6.769531 -9.890625 6.375 -9.890625 C 5.601562 -9.890625 4.957031 -9.722656 4.4375 -9.390625 C 3.925781 -9.054688 3.546875 -8.566406 3.296875 -7.921875 C 3.046875 -7.285156 2.921875 -6.492188 2.921875 -5.546875 C 2.921875 -4.640625 3.039062 -3.863281 3.28125 -3.21875 C 3.53125 -2.582031 3.898438 -2.097656 4.390625 -1.765625 C 4.890625 -1.429688 5.507812 -1.265625 6.25 -1.265625 C 6.84375 -1.265625 7.375 -1.328125 7.84375 -1.453125 C 8.320312 -1.578125 8.753906 -1.722656 9.140625 -1.890625 L 9.140625 -0.390625 C 8.765625 -0.203125 8.347656 -0.0546875 7.890625 0.046875 C 7.429688 0.148438 6.890625 0.203125 6.265625 0.203125 Z M 6.265625 0.203125 "/></g></g></g><g fill="#20204c" fill-opacity="1"><g transform="translate(321.553035, 323.631512)"><g><path d="M 6.078125 -11.375 C 7.035156 -11.375 7.851562 -11.160156 8.53125 -10.734375 C 9.207031 -10.316406 9.722656 -9.726562 10.078125 -8.96875 C 10.441406 -8.21875 10.625 -7.332031 10.625 -6.3125 L 10.625 -5.265625 L 2.921875 -5.265625 C 2.941406 -3.953125 3.265625 -2.953125 3.890625 -2.265625 C 4.523438 -1.585938 5.414062 -1.25 6.5625 -1.25 C 7.269531 -1.25 7.894531 -1.3125 8.4375 -1.4375 C 8.976562 -1.5625 9.539062 -1.753906 10.125 -2.015625 L 10.125 -0.515625 C 9.5625 -0.265625 9.003906 -0.0820312 8.453125 0.03125 C 7.898438 0.144531 7.25 0.203125 6.5 0.203125 C 5.414062 0.203125 4.472656 -0.015625 3.671875 -0.453125 C 2.878906 -0.890625 2.257812 -1.53125 1.8125 -2.375 C 1.375 -3.226562 1.15625 -4.269531 1.15625 -5.5 C 1.15625 -6.707031 1.359375 -7.75 1.765625 -8.625 C 2.171875 -9.507812 2.742188 -10.1875 3.484375 -10.65625 C 4.222656 -11.132812 5.085938 -11.375 6.078125 -11.375 Z M 6.0625 -9.984375 C 5.15625 -9.984375 4.429688 -9.6875 3.890625 -9.09375 C 3.359375 -8.507812 3.046875 -7.6875 2.953125 -6.625 L 8.859375 -6.625 C 8.847656 -7.289062 8.742188 -7.875 8.546875 -8.375 C 8.347656 -8.882812 8.039062 -9.28125 7.625 -9.5625 C 7.21875 -9.84375 6.695312 -9.984375 6.0625 -9.984375 Z M 6.0625 -9.984375 "/></g></g></g></svg>