<svg xmlns="http://www.w3.org/2000/svg" xmlns:xlink="http://www.w3.org/1999/xlink" width="300" zoomAndPan="magnify" viewBox="0 0 224.87999 74.999997" height="100" preserveAspectRatio="xMidYMid meet" version="1.0"><defs><g/><clipPath id="e1dd676db2"><path d="M 2.265625 25.90625 L 10.429688 25.90625 L 10.429688 34.070312 L 2.265625 34.070312 Z M 2.265625 25.90625 " clip-rule="nonzero"/></clipPath><clipPath id="f6444d8714"><path d="M 6.347656 25.90625 C 4.09375 25.90625 2.265625 27.734375 2.265625 29.988281 C 2.265625 32.242188 4.09375 34.070312 6.347656 34.070312 C 8.601562 34.070312 10.429688 32.242188 10.429688 29.988281 C 10.429688 27.734375 8.601562 25.90625 6.347656 25.90625 Z M 6.347656 25.90625 " clip-rule="nonzero"/></clipPath><clipPath id="150c67c3a8"><path d="M 33.878906 9.851562 L 42.042969 9.851562 L 42.042969 18.015625 L 33.878906 18.015625 Z M 33.878906 9.851562 " clip-rule="nonzero"/></clipPath><clipPath id="7343f3f612"><path d="M 37.960938 9.851562 C 35.707031 9.851562 33.878906 11.679688 33.878906 13.933594 C 33.878906 16.1875 35.707031 18.015625 37.960938 18.015625 C 40.214844 18.015625 42.042969 16.1875 42.042969 13.933594 C 42.042969 11.679688 40.214844 9.851562 37.960938 9.851562 Z M 37.960938 9.851562 " clip-rule="nonzero"/></clipPath><clipPath id="99b8671aed"><path d="M 34.480469 57.796875 L 42.644531 57.796875 L 42.644531 65.960938 L 34.480469 65.960938 Z M 34.480469 57.796875 " clip-rule="nonzero"/></clipPath><clipPath id="d2e60b6ca2"><path d="M 38.5625 57.796875 C 36.304688 57.796875 34.480469 59.625 34.480469 61.878906 C 34.480469 64.132812 36.304688 65.960938 38.5625 65.960938 C 40.816406 65.960938 42.644531 64.132812 42.644531 61.878906 C 42.644531 59.625 40.816406 57.796875 38.5625 57.796875 Z M 38.5625 57.796875 " clip-rule="nonzero"/></clipPath><clipPath id="dbf9538b17"><path d="M 0 23 L 29 23 L 29 67.933594 L 0 67.933594 Z M 0 23 " clip-rule="nonzero"/></clipPath><clipPath id="c79e64899f"><path d="M 16 39 L 61 39 L 61 67.933594 L 16 67.933594 Z M 16 39 " clip-rule="nonzero"/></clipPath><clipPath id="7781822fac"><path d="M 0 55 L 13 55 L 13 67.933594 L 0 67.933594 Z M 0 55 " clip-rule="nonzero"/></clipPath><clipPath id="b412ae608b"><path d="M 47 55 L 61 55 L 61 67.933594 L 47 67.933594 Z M 47 55 " clip-rule="nonzero"/></clipPath></defs><g clip-path="url(#e1dd676db2)"><g clip-path="url(#f6444d8714)"><path fill="#20204c" d="M 2.265625 25.90625 L 10.429688 25.90625 L 10.429688 34.070312 L 2.265625 34.070312 Z M 2.265625 25.90625 " fill-opacity="1" fill-rule="nonzero"/></g></g><g clip-path="url(#150c67c3a8)"><g clip-path="url(#7343f3f612)"><path fill="#20204c" d="M 33.878906 9.851562 L 42.042969 9.851562 L 42.042969 18.015625 L 33.878906 18.015625 Z M 33.878906 9.851562 " fill-opacity="1" fill-rule="nonzero"/></g></g><g clip-path="url(#99b8671aed)"><g clip-path="url(#d2e60b6ca2)"><path fill="#20204c" d="M 34.480469 57.796875 L 42.644531 57.796875 L 42.644531 65.960938 L 34.480469 65.960938 Z M 34.480469 57.796875 " fill-opacity="1" fill-rule="nonzero"/></g></g><path fill="#209ce9" d="M 28.414062 13.964844 C 28.449219 15.023438 28.175781 16.007812 27.648438 16.910156 C 27.460938 17.226562 27.511719 17.398438 27.757812 17.644531 C 29.984375 19.855469 32.207031 22.074219 34.410156 24.304688 C 34.699219 24.597656 34.894531 24.605469 35.257812 24.410156 C 37.617188 23.148438 40.433594 23.515625 42.367188 25.292969 C 44.300781 27.074219 44.898438 29.914062 43.851562 32.3125 C 42.808594 34.714844 40.351562 36.203125 37.710938 36.039062 C 33.367188 35.765625 30.636719 30.964844 32.65625 27.089844 C 32.9375 26.554688 32.835938 26.300781 32.457031 25.925781 C 30.300781 23.804688 28.160156 21.664062 26.039062 19.507812 C 25.726562 19.191406 25.515625 19.179688 25.136719 19.378906 C 23.191406 20.394531 21.230469 20.394531 19.296875 19.351562 C 18.949219 19.164062 18.777344 19.199219 18.511719 19.464844 C 16.304688 21.695312 14.085938 23.914062 11.855469 26.121094 C 11.574219 26.398438 11.582031 26.59375 11.75 26.925781 C 13.972656 31.246094 10.921875 36.148438 6.089844 36.042969 C 2.773438 35.972656 0.0273438 33.132812 0.0546875 29.804688 C 0.078125 26.457031 2.84375 23.703125 6.179688 23.675781 C 7.285156 23.664062 8.3125 23.902344 9.257812 24.460938 C 9.539062 24.625 9.707031 24.605469 9.941406 24.371094 C 12.195312 22.125 14.453125 19.882812 16.730469 17.660156 C 17.066406 17.332031 16.9375 17.113281 16.777344 16.800781 C 14.90625 13.199219 16.832031 8.90625 20.742188 7.933594 C 24.679688 6.953125 28.417969 9.890625 28.417969 13.964844 Z M 25.859375 14.019531 C 25.871094 12.03125 24.226562 10.371094 22.242188 10.367188 C 20.246094 10.363281 18.605469 12.015625 18.621094 14.011719 C 18.632812 15.996094 20.21875 17.59375 22.207031 17.621094 C 24.199219 17.648438 25.851562 16.023438 25.859375 14.019531 Z M 38.066406 26.234375 C 36.0625 26.25 34.441406 27.90625 34.476562 29.898438 C 34.507812 31.882812 36.113281 33.472656 38.089844 33.476562 C 40.066406 33.484375 41.738281 31.8125 41.726562 29.839844 C 41.714844 27.855469 40.050781 26.21875 38.066406 26.234375 Z M 6.292969 26.324219 C 4.238281 26.339844 2.710938 27.898438 2.71875 29.960938 C 2.730469 31.992188 4.3125 33.527344 6.375 33.511719 C 8.378906 33.5 9.933594 31.929688 9.929688 29.917969 C 9.925781 27.894531 8.320312 26.308594 6.289062 26.324219 Z M 6.292969 26.324219 " fill-opacity="1" fill-rule="nonzero"/><g clip-path="url(#dbf9538b17)"><path fill="#209ce9" d="M 16 61.695312 C 15.984375 60.617188 16.238281 59.605469 16.792969 58.6875 C 16.96875 58.394531 16.925781 58.238281 16.699219 58.011719 C 14.441406 55.769531 12.179688 53.527344 9.957031 51.253906 C 9.589844 50.882812 9.375 51.121094 9.101562 51.261719 C 4.941406 53.390625 0.00390625 50.359375 0.0546875 45.703125 C 0.105469 41.121094 5.039062 38.152344 9.089844 40.296875 C 9.53125 40.53125 9.761719 40.492188 10.105469 40.148438 C 12.234375 38 14.382812 35.871094 16.546875 33.757812 C 16.914062 33.398438 17.003906 33.152344 16.75 32.636719 C 15.566406 30.238281 15.8125 27.914062 17.515625 25.871094 C 19.191406 23.863281 21.433594 23.222656 23.9375 23.914062 C 26.488281 24.621094 28.007812 26.414062 28.367188 29.019531 C 28.699219 31.453125 27.8125 33.5 25.78125 34.910156 C 23.761719 36.316406 21.578125 36.449219 19.378906 35.316406 C 18.945312 35.09375 18.734375 35.152344 18.421875 35.472656 C 16.265625 37.65625 14.09375 39.824219 11.910156 41.980469 C 11.605469 42.28125 11.554688 42.492188 11.761719 42.882812 C 12.789062 44.820312 12.796875 46.785156 11.742188 48.714844 C 11.53125 49.097656 11.621094 49.292969 11.894531 49.5625 C 14.085938 51.75 16.265625 53.941406 18.429688 56.148438 C 18.75 56.476562 18.96875 56.515625 19.386719 56.292969 C 23.515625 54.132812 28.46875 57.15625 28.390625 61.769531 C 28.328125 65.167969 25.566406 67.902344 22.1875 67.902344 C 18.785156 67.90625 16.023438 65.132812 16.003906 61.695312 Z M 22.207031 33.511719 C 24.257812 33.519531 25.851562 31.964844 25.859375 29.941406 C 25.871094 27.933594 24.261719 26.328125 22.242188 26.324219 C 20.207031 26.320312 18.605469 27.917969 18.621094 29.933594 C 18.632812 31.9375 20.203125 33.503906 22.207031 33.511719 Z M 22.148438 65.296875 C 24.113281 65.359375 25.792969 63.792969 25.859375 61.832031 C 25.925781 59.863281 24.410156 58.175781 22.503906 58.101562 C 20.324219 58.015625 18.664062 59.527344 18.621094 61.644531 C 18.578125 63.597656 20.15625 65.230469 22.148438 65.296875 Z M 6.320312 49.375 C 8.363281 49.375 9.9375 47.796875 9.925781 45.761719 C 9.917969 43.742188 8.378906 42.195312 6.355469 42.175781 C 4.335938 42.152344 2.71875 43.746094 2.71875 45.765625 C 2.714844 47.8125 4.277344 49.375 6.320312 49.375 Z M 6.320312 49.375 " fill-opacity="1" fill-rule="nonzero"/></g><g clip-path="url(#c79e64899f)"><path fill="#209ce9" d="M 53.796875 51.953125 C 53.003906 51.972656 52.035156 51.71875 51.148438 51.203125 C 50.820312 51.011719 50.636719 51.007812 50.359375 51.289062 C 48.136719 53.535156 45.902344 55.769531 43.65625 57.992188 C 43.394531 58.253906 43.417969 58.421875 43.578125 58.726562 C 45.695312 62.820312 43.167969 67.496094 38.578125 67.867188 C 36.265625 68.054688 34.363281 67.09375 33.058594 65.167969 C 31.726562 63.195312 31.585938 61.066406 32.660156 58.933594 C 32.925781 58.402344 32.84375 58.152344 32.457031 57.773438 C 30.316406 55.667969 28.195312 53.542969 26.085938 51.402344 C 25.75 51.0625 25.519531 51.027344 25.082031 51.246094 C 22.816406 52.371094 20.59375 52.242188 18.566406 50.726562 C 16.472656 49.160156 15.660156 46.992188 16.210938 44.441406 C 16.738281 42.007812 18.289062 40.402344 20.722656 39.792969 C 23.269531 39.15625 25.453125 39.90625 27.070312 41.945312 C 28.695312 43.988281 28.886719 46.277344 27.710938 48.617188 C 27.484375 49.074219 27.558594 49.296875 27.882812 49.621094 C 30.039062 51.777344 32.183594 53.941406 34.3125 56.121094 C 34.617188 56.433594 34.816406 56.457031 35.207031 56.253906 C 37.148438 55.246094 39.121094 55.234375 41.050781 56.28125 C 41.449219 56.496094 41.625 56.386719 41.886719 56.128906 C 44.085938 53.953125 46.289062 51.78125 48.507812 49.628906 C 48.820312 49.324219 48.84375 49.117188 48.632812 48.726562 C 47.386719 46.402344 47.753906 43.59375 49.511719 41.675781 C 51.265625 39.761719 54.003906 39.136719 56.398438 40.101562 C 58.785156 41.0625 60.355469 43.488281 60.273438 46.085938 C 60.171875 49.339844 57.375 51.96875 53.792969 51.953125 Z M 22.203125 49.375 C 24.253906 49.386719 25.847656 47.828125 25.859375 45.804688 C 25.875 43.773438 24.292969 42.183594 22.257812 42.175781 C 20.25 42.167969 18.609375 43.796875 18.621094 45.792969 C 18.628906 47.789062 20.207031 49.367188 22.203125 49.378906 Z M 54.078125 49.375 C 56.082031 49.378906 57.71875 47.75 57.714844 45.765625 C 57.707031 43.75 56.085938 42.15625 54.0625 42.175781 C 52.058594 42.191406 50.480469 43.757812 50.46875 45.746094 C 50.457031 47.75 52.070312 49.375 54.078125 49.378906 Z M 41.757812 61.671875 C 41.75 59.625 40.195312 58.089844 38.132812 58.097656 C 36.09375 58.105469 34.5625 59.675781 34.578125 61.742188 C 34.589844 63.734375 36.167969 65.300781 38.167969 65.300781 C 40.191406 65.296875 41.765625 63.710938 41.757812 61.671875 Z M 41.757812 61.671875 " fill-opacity="1" fill-rule="nonzero"/></g><path fill="#209ce9" d="M 38.109375 51.972656 C 34.890625 51.953125 32.152344 49.457031 31.921875 46.308594 C 31.683594 43.011719 33.945312 40.175781 37.175781 39.664062 C 38.539062 39.445312 39.804688 39.675781 40.992188 40.332031 C 41.394531 40.550781 41.605469 40.476562 41.902344 40.179688 C 44.089844 37.996094 46.285156 35.820312 48.496094 33.65625 C 48.792969 33.363281 48.863281 33.164062 48.648438 32.757812 C 47.632812 30.824219 47.617188 28.851562 48.660156 26.921875 C 48.871094 26.535156 48.789062 26.347656 48.519531 26.082031 C 46.308594 23.886719 44.101562 21.691406 41.914062 19.472656 C 41.617188 19.171875 41.421875 19.199219 41.078125 19.371094 C 38.746094 20.542969 36.472656 20.410156 34.394531 18.828125 C 32.347656 17.269531 31.601562 15.117188 32.128906 12.632812 C 32.679688 10.050781 34.371094 8.40625 36.941406 7.878906 C 39.429688 7.371094 41.574219 8.179688 43.101562 10.238281 C 44.605469 12.257812 44.785156 14.480469 43.644531 16.742188 C 43.410156 17.210938 43.457031 17.441406 43.8125 17.796875 C 45.976562 19.941406 48.117188 22.109375 50.25 24.285156 C 50.554688 24.597656 50.773438 24.699219 51.207031 24.46875 C 53.5625 23.21875 56.355469 23.578125 58.246094 25.335938 C 60.15625 27.113281 60.746094 29.90625 59.714844 32.296875 C 58.667969 34.71875 56.167969 36.234375 53.511719 36.03125 C 52.636719 35.960938 51.792969 35.722656 51.039062 35.253906 C 50.730469 35.0625 50.542969 35.121094 50.296875 35.367188 C 48.070312 37.609375 45.839844 39.84375 43.59375 42.066406 C 43.332031 42.324219 43.351562 42.503906 43.507812 42.808594 C 45.480469 46.601562 43.460938 50.929688 39.304688 51.839844 C 38.914062 51.921875 38.503906 51.925781 38.105469 51.96875 Z M 50.46875 29.875 C 50.480469 31.832031 52.109375 33.460938 54.066406 33.476562 C 56.035156 33.496094 57.714844 31.820312 57.710938 29.84375 C 57.707031 27.839844 56.082031 26.226562 54.074219 26.230469 C 52.0625 26.238281 50.453125 27.863281 50.46875 29.875 Z M 34.574219 45.777344 C 34.578125 47.808594 36.160156 49.382812 38.191406 49.375 C 40.179688 49.367188 41.75 47.789062 41.753906 45.792969 C 41.761719 43.730469 40.226562 42.179688 38.171875 42.175781 C 36.117188 42.171875 34.570312 43.71875 34.574219 45.777344 Z M 41.753906 13.914062 C 41.75 11.851562 40.207031 10.328125 38.132812 10.339844 C 36.128906 10.351562 34.578125 11.910156 34.574219 13.921875 C 34.570312 15.984375 36.101562 17.523438 38.167969 17.519531 C 40.234375 17.519531 41.761719 15.980469 41.757812 13.910156 Z M 41.753906 13.914062 " fill-opacity="1" fill-rule="nonzero"/><path fill="#209ce9" d="M 12.527344 13.960938 C 12.507812 17.347656 9.644531 20.183594 6.285156 20.136719 C 2.832031 20.09375 0.121094 17.339844 0.144531 13.894531 C 0.167969 10.445312 2.945312 7.691406 6.355469 7.730469 C 9.800781 7.773438 12.546875 10.546875 12.527344 13.960938 Z M 2.71875 13.941406 C 2.707031 15.992188 4.253906 17.59375 6.28125 17.621094 C 8.28125 17.652344 9.910156 16.042969 9.929688 14.019531 C 9.945312 12.027344 8.308594 10.367188 6.320312 10.367188 C 4.332031 10.367188 2.734375 11.953125 2.722656 13.941406 Z M 2.71875 13.941406 " fill-opacity="1" fill-rule="nonzero"/><g clip-path="url(#7781822fac)"><path fill="#209ce9" d="M 6.320312 67.933594 C 2.882812 67.933594 0.144531 65.195312 0.148438 61.757812 C 0.148438 58.332031 2.914062 55.5625 6.324219 55.5625 C 9.691406 55.566406 12.503906 58.382812 12.527344 61.777344 C 12.550781 65.179688 9.773438 67.933594 6.320312 67.933594 Z M 6.34375 58.097656 C 4.292969 58.09375 2.722656 59.644531 2.71875 61.683594 C 2.71875 63.703125 4.320312 65.304688 6.332031 65.296875 C 8.328125 65.292969 9.902344 63.726562 9.925781 61.726562 C 9.953125 59.695312 8.378906 58.101562 6.34375 58.097656 Z M 6.34375 58.097656 " fill-opacity="1" fill-rule="nonzero"/></g><path fill="#209ce9" d="M 47.914062 13.917969 C 47.914062 10.503906 50.722656 7.703125 54.113281 7.730469 C 57.554688 7.757812 60.285156 10.511719 60.277344 13.945312 C 60.273438 17.34375 57.449219 20.160156 54.066406 20.136719 C 50.628906 20.113281 47.910156 17.367188 47.914062 13.917969 Z M 50.46875 14 C 50.46875 16.007812 52.105469 17.636719 54.101562 17.621094 C 56.105469 17.609375 57.742188 15.949219 57.710938 13.964844 C 57.679688 12 56.046875 10.378906 54.09375 10.367188 C 52.09375 10.359375 50.464844 11.992188 50.464844 14 Z M 50.46875 14 " fill-opacity="1" fill-rule="nonzero"/><g clip-path="url(#b412ae608b)"><path fill="#209ce9" d="M 54.0625 67.933594 C 50.601562 67.921875 47.902344 65.179688 47.914062 61.671875 C 47.925781 58.320312 50.726562 55.558594 54.105469 55.5625 C 57.5 55.570312 60.296875 58.425781 60.277344 61.855469 C 60.261719 65.214844 57.46875 67.941406 54.0625 67.933594 Z M 54.121094 58.097656 C 52.074219 58.089844 50.480469 59.648438 50.46875 61.671875 C 50.457031 63.671875 52.082031 65.300781 54.085938 65.300781 C 56.089844 65.300781 57.734375 63.65625 57.714844 61.671875 C 57.695312 59.671875 56.117188 58.105469 54.121094 58.097656 Z M 54.121094 58.097656 " fill-opacity="1" fill-rule="nonzero"/></g><g fill="#20204c" fill-opacity="1"><g transform="translate(72.096419, 37.148791)"><g><path d="M 12.734375 -5.21875 C 12.773438 -4.15625 12.539062 -3.210938 12.03125 -2.390625 C 11.53125 -1.578125 10.773438 -0.929688 9.765625 -0.453125 C 8.765625 0.0234375 7.503906 0.265625 5.984375 0.265625 C 5.085938 0.265625 4.242188 0.164062 3.453125 -0.03125 C 2.671875 -0.238281 2 -0.554688 1.4375 -0.984375 C 1.3125 -1.066406 1.222656 -1.171875 1.171875 -1.296875 C 1.128906 -1.421875 1.132812 -1.582031 1.1875 -1.78125 L 1.640625 -3.390625 C 1.710938 -3.566406 1.847656 -3.695312 2.046875 -3.78125 C 2.253906 -3.875 2.460938 -3.875 2.671875 -3.78125 C 3.128906 -3.539062 3.648438 -3.320312 4.234375 -3.125 C 4.816406 -2.925781 5.472656 -2.828125 6.203125 -2.828125 C 7.066406 -2.828125 7.789062 -3.035156 8.375 -3.453125 C 8.957031 -3.867188 9.25 -4.445312 9.25 -5.1875 C 9.226562 -5.84375 8.929688 -6.40625 8.359375 -6.875 C 7.785156 -7.34375 7.019531 -7.78125 6.0625 -8.1875 C 5.164062 -8.539062 4.347656 -8.972656 3.609375 -9.484375 C 2.878906 -9.992188 2.289062 -10.582031 1.84375 -11.25 C 1.40625 -11.925781 1.171875 -12.6875 1.140625 -13.53125 C 1.117188 -14.550781 1.359375 -15.453125 1.859375 -16.234375 C 2.367188 -17.023438 3.09375 -17.648438 4.03125 -18.109375 C 4.976562 -18.566406 6.082031 -18.796875 7.34375 -18.796875 C 8.363281 -18.796875 9.222656 -18.671875 9.921875 -18.421875 C 10.628906 -18.179688 11.117188 -17.972656 11.390625 -17.796875 C 11.546875 -17.691406 11.660156 -17.582031 11.734375 -17.46875 C 11.816406 -17.351562 11.832031 -17.195312 11.78125 -17 L 11.046875 -15.25 C 10.773438 -14.78125 10.429688 -14.664062 10.015625 -14.90625 C 9.460938 -15.226562 8.953125 -15.453125 8.484375 -15.578125 C 8.015625 -15.703125 7.578125 -15.742188 7.171875 -15.703125 C 6.523438 -15.671875 5.9375 -15.46875 5.40625 -15.09375 C 4.875 -14.726562 4.625 -14.242188 4.65625 -13.640625 C 4.675781 -13.160156 4.867188 -12.71875 5.234375 -12.3125 C 5.609375 -11.90625 6.222656 -11.523438 7.078125 -11.171875 C 7.710938 -10.910156 8.351562 -10.609375 9 -10.265625 C 9.65625 -9.929688 10.257812 -9.53125 10.8125 -9.0625 C 11.375 -8.601562 11.832031 -8.054688 12.1875 -7.421875 C 12.539062 -6.796875 12.722656 -6.0625 12.734375 -5.21875 Z M 12.734375 -5.21875 "/></g></g></g><g fill="#20204c" fill-opacity="1"><g transform="translate(88.324499, 37.148791)"><g><path d="M 0.90625 -15.546875 C 0.6875 -15.546875 0.5 -15.601562 0.34375 -15.71875 C 0.195312 -15.832031 0.125 -15.976562 0.125 -16.15625 L 0.125 -17.9375 C 0.125 -18.101562 0.195312 -18.242188 0.34375 -18.359375 C 0.5 -18.484375 0.6875 -18.546875 0.90625 -18.546875 L 14.109375 -18.546875 C 14.335938 -18.546875 14.515625 -18.484375 14.640625 -18.359375 C 14.765625 -18.242188 14.828125 -18.101562 14.828125 -17.9375 L 14.828125 -16.15625 C 14.828125 -15.976562 14.765625 -15.832031 14.640625 -15.71875 C 14.515625 -15.601562 14.335938 -15.546875 14.109375 -15.546875 L 9.1875 -15.546875 L 9.1875 -0.609375 C 9.1875 -0.429688 9.113281 -0.285156 8.96875 -0.171875 C 8.832031 -0.0546875 8.664062 0 8.46875 0 L 6.515625 0 C 6.304688 0 6.125 -0.0546875 5.96875 -0.171875 C 5.820312 -0.285156 5.75 -0.429688 5.75 -0.609375 L 5.75 -15.546875 Z M 0.90625 -15.546875 "/></g></g></g><g fill="#20204c" fill-opacity="1"><g transform="translate(105.955546, 37.148791)"><g><path d="M 12.640625 -4.53125 L 5.265625 -4.53125 L 3.78125 -0.578125 C 3.695312 -0.441406 3.578125 -0.3125 3.421875 -0.1875 C 3.273438 -0.0625 3.125 0 2.96875 0 L 1.03125 0 C 0.726562 0 0.503906 -0.0820312 0.359375 -0.25 C 0.222656 -0.414062 0.203125 -0.613281 0.296875 -0.84375 L 7.046875 -17.953125 C 7.128906 -18.097656 7.25 -18.234375 7.40625 -18.359375 C 7.570312 -18.484375 7.722656 -18.546875 7.859375 -18.546875 L 10.46875 -18.546875 C 10.582031 -18.546875 10.722656 -18.5 10.890625 -18.40625 C 11.066406 -18.320312 11.171875 -18.234375 11.203125 -18.140625 L 17.5625 -0.828125 C 17.644531 -0.597656 17.609375 -0.398438 17.453125 -0.234375 C 17.296875 -0.078125 17.082031 0 16.8125 0 L 14.828125 0 C 14.703125 0 14.554688 -0.0390625 14.390625 -0.125 C 14.222656 -0.21875 14.125 -0.304688 14.09375 -0.390625 Z M 6.46875 -7.625 L 11.515625 -7.625 L 9.140625 -14.546875 Z M 6.46875 -7.625 "/></g></g></g><g fill="#20204c" fill-opacity="1"><g transform="translate(126.339574, 37.148791)"><g><path d="M 5.25 -0.609375 C 5.25 -0.429688 5.171875 -0.285156 5.015625 -0.171875 C 4.867188 -0.0546875 4.6875 0 4.46875 0 L 2.515625 0 C 2.285156 0 2.097656 -0.0546875 1.953125 -0.171875 C 1.816406 -0.285156 1.75 -0.429688 1.75 -0.609375 L 1.75 -17.9375 C 1.75 -18.101562 1.816406 -18.242188 1.953125 -18.359375 C 2.097656 -18.484375 2.285156 -18.546875 2.515625 -18.546875 L 4.796875 -18.546875 L 13.375 -11.390625 L 13.375 -17.9375 C 13.375 -18.101562 13.441406 -18.242188 13.578125 -18.359375 C 13.722656 -18.484375 13.910156 -18.546875 14.140625 -18.546875 L 16.125 -18.546875 C 16.34375 -18.546875 16.523438 -18.484375 16.671875 -18.359375 C 16.816406 -18.242188 16.890625 -18.101562 16.890625 -17.9375 L 16.890625 -0.609375 C 16.890625 -0.429688 16.816406 -0.285156 16.671875 -0.171875 C 16.523438 -0.0546875 16.34375 0 16.125 0 L 14.140625 0 C 13.910156 0 13.722656 -0.0546875 13.578125 -0.171875 C 13.441406 -0.285156 13.375 -0.429688 13.375 -0.609375 L 13.375 -7.234375 L 5.25 -13.875 Z M 5.25 -0.609375 "/></g></g></g><g fill="#20204c" fill-opacity="1"><g transform="translate(147.517732, 37.148791)"><g><path d="M 16.421875 -9.296875 C 16.421875 -8.097656 16.25 -6.953125 15.90625 -5.859375 C 15.5625 -4.765625 15.03125 -3.785156 14.3125 -2.921875 C 13.601562 -2.066406 12.695312 -1.378906 11.59375 -0.859375 C 10.488281 -0.335938 9.175781 -0.0507812 7.65625 0 L 2.546875 0 C 2.328125 0 2.144531 -0.0546875 2 -0.171875 C 1.851562 -0.285156 1.78125 -0.429688 1.78125 -0.609375 L 1.78125 -17.9375 C 1.78125 -18.101562 1.851562 -18.242188 2 -18.359375 C 2.144531 -18.484375 2.328125 -18.546875 2.546875 -18.546875 L 7.59375 -18.546875 C 9.332031 -18.546875 10.863281 -18.15625 12.1875 -17.375 C 13.507812 -16.59375 14.546875 -15.507812 15.296875 -14.125 C 16.046875 -12.738281 16.421875 -11.128906 16.421875 -9.296875 Z M 5.265625 -3.15625 L 7.59375 -3.15625 C 8.726562 -3.1875 9.6875 -3.488281 10.46875 -4.0625 C 11.257812 -4.632812 11.859375 -5.382812 12.265625 -6.3125 C 12.679688 -7.238281 12.890625 -8.234375 12.890625 -9.296875 C 12.890625 -10.359375 12.71875 -11.351562 12.375 -12.28125 C 12.03125 -13.207031 11.472656 -13.957031 10.703125 -14.53125 C 9.941406 -15.101562 8.90625 -15.390625 7.59375 -15.390625 L 5.265625 -15.390625 Z M 5.265625 -3.15625 "/></g></g></g><g fill="#20204c" fill-opacity="1"><g transform="translate(167.663518, 37.148791)"><g><path d="M 12.640625 -4.53125 L 5.265625 -4.53125 L 3.78125 -0.578125 C 3.695312 -0.441406 3.578125 -0.3125 3.421875 -0.1875 C 3.273438 -0.0625 3.125 0 2.96875 0 L 1.03125 0 C 0.726562 0 0.503906 -0.0820312 0.359375 -0.25 C 0.222656 -0.414062 0.203125 -0.613281 0.296875 -0.84375 L 7.046875 -17.953125 C 7.128906 -18.097656 7.25 -18.234375 7.40625 -18.359375 C 7.570312 -18.484375 7.722656 -18.546875 7.859375 -18.546875 L 10.46875 -18.546875 C 10.582031 -18.546875 10.722656 -18.5 10.890625 -18.40625 C 11.066406 -18.320312 11.171875 -18.234375 11.203125 -18.140625 L 17.5625 -0.828125 C 17.644531 -0.597656 17.609375 -0.398438 17.453125 -0.234375 C 17.296875 -0.078125 17.082031 0 16.8125 0 L 14.828125 0 C 14.703125 0 14.554688 -0.0390625 14.390625 -0.125 C 14.222656 -0.21875 14.125 -0.304688 14.09375 -0.390625 Z M 6.46875 -7.625 L 11.515625 -7.625 L 9.140625 -14.546875 Z M 6.46875 -7.625 "/></g></g></g><g fill="#20204c" fill-opacity="1"><g transform="translate(188.04755, 37.148791)"><g><path d="M 5.25 -0.609375 C 5.25 -0.429688 5.171875 -0.285156 5.015625 -0.171875 C 4.867188 -0.0546875 4.6875 0 4.46875 0 L 2.484375 0 C 2.253906 0 2.066406 -0.0546875 1.921875 -0.171875 C 1.785156 -0.285156 1.71875 -0.429688 1.71875 -0.609375 L 1.71875 -17.9375 C 1.71875 -18.101562 1.785156 -18.242188 1.921875 -18.359375 C 2.066406 -18.484375 2.253906 -18.546875 2.484375 -18.546875 L 7.078125 -18.546875 C 8.453125 -18.546875 9.679688 -18.34375 10.765625 -17.9375 C 11.847656 -17.53125 12.703125 -16.890625 13.328125 -16.015625 C 13.960938 -15.140625 14.28125 -13.992188 14.28125 -12.578125 C 14.28125 -9.859375 13.113281 -8.054688 10.78125 -7.171875 L 14.40625 -0.90625 C 14.53125 -0.675781 14.53125 -0.46875 14.40625 -0.28125 C 14.28125 -0.09375 14.066406 0 13.765625 0 L 11.421875 0 C 11.128906 0 10.890625 -0.148438 10.703125 -0.453125 L 7.28125 -6.546875 L 5.25 -6.546875 Z M 7.09375 -9.59375 C 8.457031 -9.59375 9.429688 -9.867188 10.015625 -10.421875 C 10.597656 -10.972656 10.890625 -11.679688 10.890625 -12.546875 C 10.890625 -12.796875 10.847656 -13.082031 10.765625 -13.40625 C 10.679688 -13.738281 10.507812 -14.054688 10.25 -14.359375 C 10 -14.671875 9.617188 -14.925781 9.109375 -15.125 C 8.597656 -15.332031 7.910156 -15.4375 7.046875 -15.4375 L 5.25 -15.4375 L 5.25 -9.59375 Z M 7.09375 -9.59375 "/></g></g></g><g fill="#20204c" fill-opacity="1"><g transform="translate(205.943306, 37.148791)"><g><path d="M 16.421875 -9.296875 C 16.421875 -8.097656 16.25 -6.953125 15.90625 -5.859375 C 15.5625 -4.765625 15.03125 -3.785156 14.3125 -2.921875 C 13.601562 -2.066406 12.695312 -1.378906 11.59375 -0.859375 C 10.488281 -0.335938 9.175781 -0.0507812 7.65625 0 L 2.546875 0 C 2.328125 0 2.144531 -0.0546875 2 -0.171875 C 1.851562 -0.285156 1.78125 -0.429688 1.78125 -0.609375 L 1.78125 -17.9375 C 1.78125 -18.101562 1.851562 -18.242188 2 -18.359375 C 2.144531 -18.484375 2.328125 -18.546875 2.546875 -18.546875 L 7.59375 -18.546875 C 9.332031 -18.546875 10.863281 -18.15625 12.1875 -17.375 C 13.507812 -16.59375 14.546875 -15.507812 15.296875 -14.125 C 16.046875 -12.738281 16.421875 -11.128906 16.421875 -9.296875 Z M 5.265625 -3.15625 L 7.59375 -3.15625 C 8.726562 -3.1875 9.6875 -3.488281 10.46875 -4.0625 C 11.257812 -4.632812 11.859375 -5.382812 12.265625 -6.3125 C 12.679688 -7.238281 12.890625 -8.234375 12.890625 -9.296875 C 12.890625 -10.359375 12.71875 -11.351562 12.375 -12.28125 C 12.03125 -13.207031 11.472656 -13.957031 10.703125 -14.53125 C 9.941406 -15.101562 8.90625 -15.390625 7.59375 -15.390625 L 5.265625 -15.390625 Z M 5.265625 -3.15625 "/></g></g></g><g fill="#20204c" fill-opacity="1"><g transform="translate(72.096419, 56.175249)"><g><path d="M 7.34375 0 L 6.28125 0 L 1.921875 -6.71875 L 1.875 -6.71875 C 1.882812 -6.539062 1.894531 -6.335938 1.90625 -6.109375 C 1.925781 -5.878906 1.9375 -5.632812 1.9375 -5.375 C 1.945312 -5.125 1.953125 -4.863281 1.953125 -4.59375 L 1.953125 0 L 1.09375 0 L 1.09375 -8 L 2.15625 -8 L 6.5 -1.296875 L 6.546875 -1.296875 C 6.535156 -1.429688 6.523438 -1.613281 6.515625 -1.84375 C 6.503906 -2.082031 6.492188 -2.335938 6.484375 -2.609375 C 6.472656 -2.878906 6.46875 -3.128906 6.46875 -3.359375 L 6.46875 -8 L 7.34375 -8 Z M 7.34375 0 "/></g></g></g><g fill="#20204c" fill-opacity="1"><g transform="translate(81.177427, 56.175249)"><g><path d="M 6.109375 0 L 5.125 -2.53125 L 1.921875 -2.53125 L 0.9375 0 L 0 0 L 3.125 -8.03125 L 3.96875 -8.03125 L 7.078125 0 Z M 4.84375 -3.359375 L 3.90625 -5.890625 C 3.882812 -5.953125 3.847656 -6.054688 3.796875 -6.203125 C 3.753906 -6.359375 3.707031 -6.515625 3.65625 -6.671875 C 3.601562 -6.835938 3.5625 -6.96875 3.53125 -7.0625 C 3.488281 -6.914062 3.445312 -6.765625 3.40625 -6.609375 C 3.363281 -6.460938 3.320312 -6.328125 3.28125 -6.203125 C 3.25 -6.078125 3.21875 -5.972656 3.1875 -5.890625 L 2.234375 -3.359375 Z M 4.84375 -3.359375 "/></g></g></g><g fill="#20204c" fill-opacity="1"><g transform="translate(88.907918, 56.175249)"><g><path d="M 7.34375 0 L 6.28125 0 L 1.921875 -6.71875 L 1.875 -6.71875 C 1.882812 -6.539062 1.894531 -6.335938 1.90625 -6.109375 C 1.925781 -5.878906 1.9375 -5.632812 1.9375 -5.375 C 1.945312 -5.125 1.953125 -4.863281 1.953125 -4.59375 L 1.953125 0 L 1.09375 0 L 1.09375 -8 L 2.15625 -8 L 6.5 -1.296875 L 6.546875 -1.296875 C 6.535156 -1.429688 6.523438 -1.613281 6.515625 -1.84375 C 6.503906 -2.082031 6.492188 -2.335938 6.484375 -2.609375 C 6.472656 -2.878906 6.46875 -3.128906 6.46875 -3.359375 L 6.46875 -8 L 7.34375 -8 Z M 7.34375 0 "/></g></g></g><g fill="#20204c" fill-opacity="1"><g transform="translate(97.988928, 56.175249)"><g><path d="M 8.03125 -4.015625 C 8.03125 -3.390625 7.953125 -2.820312 7.796875 -2.3125 C 7.640625 -1.8125 7.40625 -1.378906 7.09375 -1.015625 C 6.789062 -0.660156 6.410156 -0.382812 5.953125 -0.1875 C 5.492188 0.0078125 4.960938 0.109375 4.359375 0.109375 C 3.742188 0.109375 3.203125 0.0078125 2.734375 -0.1875 C 2.273438 -0.382812 1.894531 -0.664062 1.59375 -1.03125 C 1.289062 -1.394531 1.0625 -1.828125 0.90625 -2.328125 C 0.757812 -2.835938 0.6875 -3.398438 0.6875 -4.015625 C 0.6875 -4.835938 0.820312 -5.554688 1.09375 -6.171875 C 1.363281 -6.785156 1.769531 -7.265625 2.3125 -7.609375 C 2.863281 -7.953125 3.550781 -8.125 4.375 -8.125 C 5.164062 -8.125 5.832031 -7.953125 6.375 -7.609375 C 6.914062 -7.273438 7.328125 -6.800781 7.609375 -6.1875 C 7.890625 -5.570312 8.03125 -4.847656 8.03125 -4.015625 Z M 1.65625 -4.015625 C 1.65625 -3.335938 1.753906 -2.75 1.953125 -2.25 C 2.148438 -1.75 2.445312 -1.363281 2.84375 -1.09375 C 3.238281 -0.820312 3.742188 -0.6875 4.359375 -0.6875 C 4.984375 -0.6875 5.492188 -0.820312 5.890625 -1.09375 C 6.285156 -1.363281 6.578125 -1.75 6.765625 -2.25 C 6.953125 -2.75 7.046875 -3.335938 7.046875 -4.015625 C 7.046875 -5.046875 6.828125 -5.847656 6.390625 -6.421875 C 5.960938 -7.003906 5.289062 -7.296875 4.375 -7.296875 C 3.757812 -7.296875 3.25 -7.160156 2.84375 -6.890625 C 2.445312 -6.628906 2.148438 -6.253906 1.953125 -5.765625 C 1.753906 -5.273438 1.65625 -4.691406 1.65625 -4.015625 Z M 1.65625 -4.015625 "/></g></g></g><g fill="#20204c" fill-opacity="1"><g transform="translate(107.348786, 56.175249)"><g/></g></g><g fill="#20204c" fill-opacity="1"><g transform="translate(110.907439, 56.175249)"><g><path d="M 3.796875 -6.109375 C 4.503906 -6.109375 5.039062 -5.929688 5.40625 -5.578125 C 5.769531 -5.234375 5.953125 -4.675781 5.953125 -3.90625 L 5.953125 0 L 5.0625 0 L 5.0625 -3.84375 C 5.0625 -4.34375 4.945312 -4.71875 4.71875 -4.96875 C 4.488281 -5.21875 4.140625 -5.34375 3.671875 -5.34375 C 3.003906 -5.34375 2.535156 -5.15625 2.265625 -4.78125 C 1.992188 -4.40625 1.859375 -3.859375 1.859375 -3.140625 L 1.859375 0 L 0.953125 0 L 0.953125 -6 L 1.6875 -6 L 1.828125 -5.125 L 1.875 -5.125 C 2 -5.34375 2.160156 -5.519531 2.359375 -5.65625 C 2.554688 -5.800781 2.773438 -5.910156 3.015625 -5.984375 C 3.265625 -6.066406 3.523438 -6.109375 3.796875 -6.109375 Z M 3.796875 -6.109375 "/></g></g></g><g fill="#20204c" fill-opacity="1"><g transform="translate(118.42469, 56.175249)"><g><path d="M 3.265625 -6.109375 C 3.773438 -6.109375 4.210938 -5.992188 4.578125 -5.765625 C 4.941406 -5.535156 5.21875 -5.21875 5.40625 -4.8125 C 5.601562 -4.40625 5.703125 -3.929688 5.703125 -3.390625 L 5.703125 -2.828125 L 1.5625 -2.828125 C 1.570312 -2.117188 1.742188 -1.582031 2.078125 -1.21875 C 2.421875 -0.851562 2.898438 -0.671875 3.515625 -0.671875 C 3.898438 -0.671875 4.238281 -0.703125 4.53125 -0.765625 C 4.820312 -0.835938 5.125 -0.941406 5.4375 -1.078125 L 5.4375 -0.28125 C 5.132812 -0.144531 4.832031 -0.046875 4.53125 0.015625 C 4.238281 0.078125 3.890625 0.109375 3.484375 0.109375 C 2.910156 0.109375 2.40625 -0.00390625 1.96875 -0.234375 C 1.539062 -0.472656 1.207031 -0.820312 0.96875 -1.28125 C 0.738281 -1.738281 0.625 -2.296875 0.625 -2.953125 C 0.625 -3.597656 0.734375 -4.15625 0.953125 -4.625 C 1.171875 -5.101562 1.476562 -5.46875 1.875 -5.71875 C 2.269531 -5.976562 2.734375 -6.109375 3.265625 -6.109375 Z M 3.25 -5.359375 C 2.769531 -5.359375 2.382812 -5.195312 2.09375 -4.875 C 1.800781 -4.5625 1.628906 -4.125 1.578125 -3.5625 L 4.75 -3.5625 C 4.75 -3.914062 4.691406 -4.226562 4.578125 -4.5 C 4.472656 -4.769531 4.3125 -4.976562 4.09375 -5.125 C 3.875 -5.28125 3.59375 -5.359375 3.25 -5.359375 Z M 3.25 -5.359375 "/></g></g></g><g fill="#20204c" fill-opacity="1"><g transform="translate(125.362367, 56.175249)"><g><path d="M 2.890625 -0.640625 C 3.046875 -0.640625 3.203125 -0.648438 3.359375 -0.671875 C 3.515625 -0.703125 3.640625 -0.734375 3.734375 -0.765625 L 3.734375 -0.0625 C 3.628906 -0.0078125 3.484375 0.03125 3.296875 0.0625 C 3.109375 0.09375 2.925781 0.109375 2.75 0.109375 C 2.425781 0.109375 2.132812 0.0546875 1.875 -0.046875 C 1.625 -0.160156 1.421875 -0.347656 1.265625 -0.609375 C 1.109375 -0.878906 1.03125 -1.253906 1.03125 -1.734375 L 1.03125 -5.28125 L 0.171875 -5.28125 L 0.171875 -5.734375 L 1.03125 -6.078125 L 1.390625 -7.390625 L 1.9375 -7.390625 L 1.9375 -6 L 3.703125 -6 L 3.703125 -5.28125 L 1.9375 -5.28125 L 1.9375 -1.75 C 1.9375 -1.375 2.023438 -1.09375 2.203125 -0.90625 C 2.378906 -0.726562 2.609375 -0.640625 2.890625 -0.640625 Z M 2.890625 -0.640625 "/></g></g></g><g fill="#20204c" fill-opacity="1"><g transform="translate(130.00362, 56.175249)"><g><path d="M 5.84375 -0.015625 L 4.765625 -3.5 C 4.722656 -3.644531 4.679688 -3.789062 4.640625 -3.9375 C 4.597656 -4.082031 4.554688 -4.222656 4.515625 -4.359375 C 4.484375 -4.492188 4.453125 -4.617188 4.421875 -4.734375 C 4.398438 -4.847656 4.378906 -4.945312 4.359375 -5.03125 L 4.328125 -5.03125 C 4.304688 -4.945312 4.28125 -4.847656 4.25 -4.734375 C 4.226562 -4.617188 4.203125 -4.492188 4.171875 -4.359375 C 4.140625 -4.222656 4.101562 -4.078125 4.0625 -3.921875 C 4.019531 -3.773438 3.972656 -3.628906 3.921875 -3.484375 L 2.8125 -0.015625 L 1.78125 -0.015625 L 0.125 -6 L 1.078125 -6 L 1.9375 -2.703125 C 2 -2.484375 2.054688 -2.265625 2.109375 -2.046875 C 2.160156 -1.835938 2.203125 -1.640625 2.234375 -1.453125 C 2.273438 -1.265625 2.304688 -1.097656 2.328125 -0.953125 L 2.375 -0.953125 C 2.394531 -1.046875 2.414062 -1.15625 2.4375 -1.28125 C 2.46875 -1.414062 2.5 -1.550781 2.53125 -1.6875 C 2.570312 -1.832031 2.609375 -1.976562 2.640625 -2.125 C 2.679688 -2.269531 2.722656 -2.40625 2.765625 -2.53125 L 3.875 -6 L 4.859375 -6 L 5.921875 -2.53125 C 5.972656 -2.363281 6.023438 -2.179688 6.078125 -1.984375 C 6.128906 -1.796875 6.175781 -1.613281 6.21875 -1.4375 C 6.269531 -1.257812 6.300781 -1.101562 6.3125 -0.96875 L 6.359375 -0.96875 C 6.378906 -1.09375 6.40625 -1.242188 6.4375 -1.421875 C 6.476562 -1.609375 6.523438 -1.8125 6.578125 -2.03125 C 6.628906 -2.25 6.6875 -2.472656 6.75 -2.703125 L 7.625 -6 L 8.546875 -6 L 6.890625 -0.015625 Z M 5.84375 -0.015625 "/></g></g></g><g fill="#20204c" fill-opacity="1"><g transform="translate(139.330672, 56.175249)"><g><path d="M 6.125 -3.015625 C 6.125 -2.515625 6.0625 -2.070312 5.9375 -1.6875 C 5.8125 -1.300781 5.625 -0.972656 5.375 -0.703125 C 5.132812 -0.441406 4.84375 -0.238281 4.5 -0.09375 C 4.164062 0.0390625 3.785156 0.109375 3.359375 0.109375 C 2.953125 0.109375 2.582031 0.0390625 2.25 -0.09375 C 1.914062 -0.238281 1.625 -0.441406 1.375 -0.703125 C 1.132812 -0.972656 0.945312 -1.300781 0.8125 -1.6875 C 0.6875 -2.070312 0.625 -2.515625 0.625 -3.015625 C 0.625 -3.671875 0.734375 -4.226562 0.953125 -4.6875 C 1.179688 -5.144531 1.5 -5.492188 1.90625 -5.734375 C 2.320312 -5.984375 2.816406 -6.109375 3.390625 -6.109375 C 3.941406 -6.109375 4.421875 -5.984375 4.828125 -5.734375 C 5.234375 -5.492188 5.550781 -5.140625 5.78125 -4.671875 C 6.007812 -4.210938 6.125 -3.660156 6.125 -3.015625 Z M 1.5625 -3.015625 C 1.5625 -2.523438 1.625 -2.101562 1.75 -1.75 C 1.882812 -1.394531 2.082031 -1.117188 2.34375 -0.921875 C 2.613281 -0.734375 2.957031 -0.640625 3.375 -0.640625 C 3.789062 -0.640625 4.128906 -0.734375 4.390625 -0.921875 C 4.660156 -1.117188 4.859375 -1.394531 4.984375 -1.75 C 5.117188 -2.101562 5.1875 -2.523438 5.1875 -3.015625 C 5.1875 -3.484375 5.117188 -3.890625 4.984375 -4.234375 C 4.859375 -4.585938 4.660156 -4.859375 4.390625 -5.046875 C 4.128906 -5.242188 3.789062 -5.34375 3.375 -5.34375 C 2.75 -5.34375 2.289062 -5.132812 2 -4.71875 C 1.707031 -4.3125 1.5625 -3.742188 1.5625 -3.015625 Z M 1.5625 -3.015625 "/></g></g></g><g fill="#20204c" fill-opacity="1"><g transform="translate(146.716699, 56.175249)"><g><path d="M 3.6875 -6.109375 C 3.800781 -6.109375 3.921875 -6.097656 4.046875 -6.078125 C 4.179688 -6.066406 4.300781 -6.050781 4.40625 -6.03125 L 4.296875 -5.1875 C 4.191406 -5.21875 4.078125 -5.238281 3.953125 -5.25 C 3.835938 -5.257812 3.726562 -5.265625 3.625 -5.265625 C 3.382812 -5.265625 3.15625 -5.21875 2.9375 -5.125 C 2.726562 -5.03125 2.539062 -4.890625 2.375 -4.703125 C 2.21875 -4.523438 2.09375 -4.3125 2 -4.0625 C 1.914062 -3.8125 1.875 -3.53125 1.875 -3.21875 L 1.875 0 L 0.953125 0 L 0.953125 -6 L 1.71875 -6 L 1.8125 -4.890625 L 1.84375 -4.890625 C 1.96875 -5.109375 2.117188 -5.3125 2.296875 -5.5 C 2.472656 -5.6875 2.675781 -5.832031 2.90625 -5.9375 C 3.132812 -6.050781 3.394531 -6.109375 3.6875 -6.109375 Z M 3.6875 -6.109375 "/></g></g></g><g fill="#20204c" fill-opacity="1"><g transform="translate(151.942998, 56.175249)"><g><path d="M 1.859375 -8.515625 L 1.859375 -4.09375 C 1.859375 -3.945312 1.851562 -3.769531 1.84375 -3.5625 C 1.832031 -3.351562 1.820312 -3.164062 1.8125 -3 L 1.859375 -3 C 1.929688 -3.09375 2.039062 -3.234375 2.1875 -3.421875 C 2.332031 -3.609375 2.457031 -3.757812 2.5625 -3.875 L 4.5625 -6 L 5.625 -6 L 3.21875 -3.4375 L 5.796875 0 L 4.703125 0 L 2.59375 -2.84375 L 1.859375 -2.171875 L 1.859375 0 L 0.953125 0 L 0.953125 -8.515625 Z M 1.859375 -8.515625 "/></g></g></g><g fill="#20204c" fill-opacity="1"><g transform="translate(158.476067, 56.175249)"><g/></g></g><g fill="#20204c" fill-opacity="1"><g transform="translate(162.034719, 56.175249)"><g><path d="M 3.203125 -6.09375 C 3.910156 -6.09375 4.4375 -5.929688 4.78125 -5.609375 C 5.132812 -5.285156 5.3125 -4.773438 5.3125 -4.078125 L 5.3125 0 L 4.65625 0 L 4.46875 -0.890625 L 4.4375 -0.890625 C 4.257812 -0.671875 4.078125 -0.484375 3.890625 -0.328125 C 3.710938 -0.179688 3.503906 -0.0703125 3.265625 0 C 3.035156 0.0703125 2.742188 0.109375 2.390625 0.109375 C 2.023438 0.109375 1.703125 0.046875 1.421875 -0.078125 C 1.140625 -0.210938 0.914062 -0.40625 0.75 -0.65625 C 0.59375 -0.914062 0.515625 -1.242188 0.515625 -1.640625 C 0.515625 -2.242188 0.75 -2.703125 1.21875 -3.015625 C 1.695312 -3.335938 2.421875 -3.515625 3.390625 -3.546875 L 4.421875 -3.59375 L 4.421875 -3.953125 C 4.421875 -4.472656 4.3125 -4.835938 4.09375 -5.046875 C 3.875 -5.253906 3.5625 -5.359375 3.15625 -5.359375 C 2.84375 -5.359375 2.539062 -5.3125 2.25 -5.21875 C 1.96875 -5.132812 1.695312 -5.03125 1.4375 -4.90625 L 1.171875 -5.59375 C 1.429688 -5.726562 1.738281 -5.84375 2.09375 -5.9375 C 2.445312 -6.039062 2.816406 -6.09375 3.203125 -6.09375 Z M 4.421875 -2.953125 L 3.5 -2.921875 C 2.75 -2.890625 2.21875 -2.765625 1.90625 -2.546875 C 1.601562 -2.328125 1.453125 -2.023438 1.453125 -1.640625 C 1.453125 -1.296875 1.554688 -1.039062 1.765625 -0.875 C 1.972656 -0.707031 2.25 -0.625 2.59375 -0.625 C 3.125 -0.625 3.5625 -0.769531 3.90625 -1.0625 C 4.25 -1.363281 4.421875 -1.8125 4.421875 -2.40625 Z M 4.421875 -2.953125 "/></g></g></g><g fill="#20204c" fill-opacity="1"><g transform="translate(168.906785, 56.175249)"><g><path d="M 3.796875 -6.109375 C 4.503906 -6.109375 5.039062 -5.929688 5.40625 -5.578125 C 5.769531 -5.234375 5.953125 -4.675781 5.953125 -3.90625 L 5.953125 0 L 5.0625 0 L 5.0625 -3.84375 C 5.0625 -4.34375 4.945312 -4.71875 4.71875 -4.96875 C 4.488281 -5.21875 4.140625 -5.34375 3.671875 -5.34375 C 3.003906 -5.34375 2.535156 -5.15625 2.265625 -4.78125 C 1.992188 -4.40625 1.859375 -3.859375 1.859375 -3.140625 L 1.859375 0 L 0.953125 0 L 0.953125 -6 L 1.6875 -6 L 1.828125 -5.125 L 1.875 -5.125 C 2 -5.34375 2.160156 -5.519531 2.359375 -5.65625 C 2.554688 -5.800781 2.773438 -5.910156 3.015625 -5.984375 C 3.265625 -6.066406 3.523438 -6.109375 3.796875 -6.109375 Z M 3.796875 -6.109375 "/></g></g></g><g fill="#20204c" fill-opacity="1"><g transform="translate(176.424036, 56.175249)"><g><path d="M 3.203125 -6.09375 C 3.910156 -6.09375 4.4375 -5.929688 4.78125 -5.609375 C 5.132812 -5.285156 5.3125 -4.773438 5.3125 -4.078125 L 5.3125 0 L 4.65625 0 L 4.46875 -0.890625 L 4.4375 -0.890625 C 4.257812 -0.671875 4.078125 -0.484375 3.890625 -0.328125 C 3.710938 -0.179688 3.503906 -0.0703125 3.265625 0 C 3.035156 0.0703125 2.742188 0.109375 2.390625 0.109375 C 2.023438 0.109375 1.703125 0.046875 1.421875 -0.078125 C 1.140625 -0.210938 0.914062 -0.40625 0.75 -0.65625 C 0.59375 -0.914062 0.515625 -1.242188 0.515625 -1.640625 C 0.515625 -2.242188 0.75 -2.703125 1.21875 -3.015625 C 1.695312 -3.335938 2.421875 -3.515625 3.390625 -3.546875 L 4.421875 -3.59375 L 4.421875 -3.953125 C 4.421875 -4.472656 4.3125 -4.835938 4.09375 -5.046875 C 3.875 -5.253906 3.5625 -5.359375 3.15625 -5.359375 C 2.84375 -5.359375 2.539062 -5.3125 2.25 -5.21875 C 1.96875 -5.132812 1.695312 -5.03125 1.4375 -4.90625 L 1.171875 -5.59375 C 1.429688 -5.726562 1.738281 -5.84375 2.09375 -5.9375 C 2.445312 -6.039062 2.816406 -6.09375 3.203125 -6.09375 Z M 4.421875 -2.953125 L 3.5 -2.921875 C 2.75 -2.890625 2.21875 -2.765625 1.90625 -2.546875 C 1.601562 -2.328125 1.453125 -2.023438 1.453125 -1.640625 C 1.453125 -1.296875 1.554688 -1.039062 1.765625 -0.875 C 1.972656 -0.707031 2.25 -0.625 2.59375 -0.625 C 3.125 -0.625 3.5625 -0.769531 3.90625 -1.0625 C 4.25 -1.363281 4.421875 -1.8125 4.421875 -2.40625 Z M 4.421875 -2.953125 "/></g></g></g><g fill="#20204c" fill-opacity="1"><g transform="translate(183.296101, 56.175249)"><g><path d="M 1.875 0 L 0.953125 0 L 0.953125 -8.515625 L 1.875 -8.515625 Z M 1.875 0 "/></g></g></g><g fill="#20204c" fill-opacity="1"><g transform="translate(186.772738, 56.175249)"><g><path d="M 0.015625 -6 L 0.984375 -6 L 2.3125 -2.515625 C 2.382812 -2.304688 2.453125 -2.109375 2.515625 -1.921875 C 2.585938 -1.734375 2.644531 -1.550781 2.6875 -1.375 C 2.738281 -1.207031 2.78125 -1.046875 2.8125 -0.890625 L 2.859375 -0.890625 C 2.910156 -1.078125 2.984375 -1.316406 3.078125 -1.609375 C 3.171875 -1.910156 3.269531 -2.210938 3.375 -2.515625 L 4.640625 -6 L 5.609375 -6 L 3 0.875 C 2.863281 1.25 2.703125 1.570312 2.515625 1.84375 C 2.335938 2.113281 2.113281 2.320312 1.84375 2.46875 C 1.582031 2.625 1.265625 2.703125 0.890625 2.703125 C 0.722656 2.703125 0.570312 2.691406 0.4375 2.671875 C 0.3125 2.648438 0.203125 2.625 0.109375 2.59375 L 0.109375 1.875 C 0.179688 1.882812 0.273438 1.894531 0.390625 1.90625 C 0.503906 1.925781 0.625 1.9375 0.75 1.9375 C 0.976562 1.9375 1.175781 1.894531 1.34375 1.8125 C 1.507812 1.726562 1.648438 1.601562 1.765625 1.4375 C 1.890625 1.269531 1.992188 1.078125 2.078125 0.859375 L 2.40625 0.015625 Z M 0.015625 -6 "/></g></g></g><g fill="#20204c" fill-opacity="1"><g transform="translate(193.032423, 56.175249)"><g><path d="M 2.890625 -0.640625 C 3.046875 -0.640625 3.203125 -0.648438 3.359375 -0.671875 C 3.515625 -0.703125 3.640625 -0.734375 3.734375 -0.765625 L 3.734375 -0.0625 C 3.628906 -0.0078125 3.484375 0.03125 3.296875 0.0625 C 3.109375 0.09375 2.925781 0.109375 2.75 0.109375 C 2.425781 0.109375 2.132812 0.0546875 1.875 -0.046875 C 1.625 -0.160156 1.421875 -0.347656 1.265625 -0.609375 C 1.109375 -0.878906 1.03125 -1.253906 1.03125 -1.734375 L 1.03125 -5.28125 L 0.171875 -5.28125 L 0.171875 -5.734375 L 1.03125 -6.078125 L 1.390625 -7.390625 L 1.9375 -7.390625 L 1.9375 -6 L 3.703125 -6 L 3.703125 -5.28125 L 1.9375 -5.28125 L 1.9375 -1.75 C 1.9375 -1.375 2.023438 -1.09375 2.203125 -0.90625 C 2.378906 -0.726562 2.609375 -0.640625 2.890625 -0.640625 Z M 2.890625 -0.640625 "/></g></g></g><g fill="#20204c" fill-opacity="1"><g transform="translate(197.673676, 56.175249)"><g><path d="M 1.859375 -6 L 1.859375 0 L 0.953125 0 L 0.953125 -6 Z M 1.421875 -8.234375 C 1.566406 -8.234375 1.691406 -8.1875 1.796875 -8.09375 C 1.910156 -8 1.96875 -7.847656 1.96875 -7.640625 C 1.96875 -7.441406 1.910156 -7.289062 1.796875 -7.1875 C 1.691406 -7.09375 1.566406 -7.046875 1.421875 -7.046875 C 1.265625 -7.046875 1.132812 -7.09375 1.03125 -7.1875 C 0.925781 -7.289062 0.875 -7.441406 0.875 -7.640625 C 0.875 -7.847656 0.925781 -8 1.03125 -8.09375 C 1.132812 -8.1875 1.265625 -8.234375 1.421875 -8.234375 Z M 1.421875 -8.234375 "/></g></g></g><g fill="#20204c" fill-opacity="1"><g transform="translate(201.150314, 56.175249)"><g><path d="M 3.359375 0.109375 C 2.816406 0.109375 2.335938 0 1.921875 -0.21875 C 1.515625 -0.445312 1.195312 -0.785156 0.96875 -1.234375 C 0.738281 -1.691406 0.625 -2.269531 0.625 -2.96875 C 0.625 -3.6875 0.742188 -4.273438 0.984375 -4.734375 C 1.222656 -5.203125 1.554688 -5.546875 1.984375 -5.765625 C 2.410156 -5.992188 2.898438 -6.109375 3.453125 -6.109375 C 3.742188 -6.109375 4.03125 -6.078125 4.3125 -6.015625 C 4.59375 -5.953125 4.820312 -5.875 5 -5.78125 L 4.71875 -5.03125 C 4.539062 -5.101562 4.332031 -5.164062 4.09375 -5.21875 C 3.851562 -5.28125 3.628906 -5.3125 3.421875 -5.3125 C 3.003906 -5.3125 2.65625 -5.222656 2.375 -5.046875 C 2.101562 -4.867188 1.898438 -4.601562 1.765625 -4.25 C 1.628906 -3.90625 1.5625 -3.476562 1.5625 -2.96875 C 1.5625 -2.488281 1.628906 -2.078125 1.765625 -1.734375 C 1.898438 -1.390625 2.097656 -1.125 2.359375 -0.9375 C 2.617188 -0.757812 2.953125 -0.671875 3.359375 -0.671875 C 3.671875 -0.671875 3.953125 -0.703125 4.203125 -0.765625 C 4.460938 -0.835938 4.695312 -0.921875 4.90625 -1.015625 L 4.90625 -0.203125 C 4.707031 -0.109375 4.484375 -0.0351562 4.234375 0.015625 C 3.992188 0.078125 3.703125 0.109375 3.359375 0.109375 Z M 3.359375 0.109375 "/></g></g></g><g fill="#20204c" fill-opacity="1"><g transform="translate(207.163953, 56.175249)"><g><path d="M 4.828125 -1.640625 C 4.828125 -1.253906 4.734375 -0.929688 4.546875 -0.671875 C 4.359375 -0.410156 4.082031 -0.210938 3.71875 -0.078125 C 3.363281 0.046875 2.941406 0.109375 2.453125 0.109375 C 2.035156 0.109375 1.671875 0.0703125 1.359375 0 C 1.054688 -0.0625 0.789062 -0.148438 0.5625 -0.265625 L 0.5625 -1.109375 C 0.8125 -0.984375 1.101562 -0.867188 1.4375 -0.765625 C 1.78125 -0.671875 2.128906 -0.625 2.484375 -0.625 C 2.992188 -0.625 3.363281 -0.707031 3.59375 -0.875 C 3.832031 -1.039062 3.953125 -1.269531 3.953125 -1.5625 C 3.953125 -1.726562 3.90625 -1.875 3.8125 -2 C 3.71875 -2.125 3.5625 -2.242188 3.34375 -2.359375 C 3.125 -2.484375 2.820312 -2.613281 2.4375 -2.75 C 2.050781 -2.894531 1.71875 -3.039062 1.4375 -3.1875 C 1.164062 -3.332031 0.953125 -3.507812 0.796875 -3.71875 C 0.648438 -3.925781 0.578125 -4.195312 0.578125 -4.53125 C 0.578125 -5.039062 0.78125 -5.429688 1.1875 -5.703125 C 1.601562 -5.972656 2.144531 -6.109375 2.8125 -6.109375 C 3.164062 -6.109375 3.5 -6.070312 3.8125 -6 C 4.132812 -5.925781 4.429688 -5.832031 4.703125 -5.71875 L 4.390625 -4.984375 C 4.148438 -5.085938 3.890625 -5.175781 3.609375 -5.25 C 3.328125 -5.320312 3.039062 -5.359375 2.75 -5.359375 C 2.320312 -5.359375 1.992188 -5.285156 1.765625 -5.140625 C 1.546875 -5.003906 1.4375 -4.816406 1.4375 -4.578125 C 1.4375 -4.398438 1.488281 -4.25 1.59375 -4.125 C 1.695312 -4 1.863281 -3.882812 2.09375 -3.78125 C 2.320312 -3.675781 2.628906 -3.550781 3.015625 -3.40625 C 3.390625 -3.269531 3.710938 -3.128906 3.984375 -2.984375 C 4.253906 -2.835938 4.460938 -2.660156 4.609375 -2.453125 C 4.753906 -2.242188 4.828125 -1.972656 4.828125 -1.640625 Z M 4.828125 -1.640625 "/></g></g></g></svg>