<svg xmlns="http://www.w3.org/2000/svg" xmlns:xlink="http://www.w3.org/1999/xlink" width="300" zoomAndPan="magnify" viewBox="0 0 224.87999 74.999997" height="100" preserveAspectRatio="xMidYMid meet" version="1.0"><defs><g/><clipPath id="3de6b11123"><path d="M 2.265625 25.90625 L 10.429688 25.90625 L 10.429688 34.070312 L 2.265625 34.070312 Z M 2.265625 25.90625 " clip-rule="nonzero"/></clipPath><clipPath id="fee64eeb7a"><path d="M 6.347656 25.90625 C 4.09375 25.90625 2.265625 27.734375 2.265625 29.988281 C 2.265625 32.242188 4.09375 34.070312 6.347656 34.070312 C 8.601562 34.070312 10.429688 32.242188 10.429688 29.988281 C 10.429688 27.734375 8.601562 25.90625 6.347656 25.90625 Z M 6.347656 25.90625 " clip-rule="nonzero"/></clipPath><clipPath id="f8428c01c0"><path d="M 33.878906 9.851562 L 42.042969 9.851562 L 42.042969 18.015625 L 33.878906 18.015625 Z M 33.878906 9.851562 " clip-rule="nonzero"/></clipPath><clipPath id="72a466b9b1"><path d="M 37.960938 9.851562 C 35.707031 9.851562 33.878906 11.679688 33.878906 13.933594 C 33.878906 16.1875 35.707031 18.015625 37.960938 18.015625 C 40.214844 18.015625 42.042969 16.1875 42.042969 13.933594 C 42.042969 11.679688 40.214844 9.851562 37.960938 9.851562 Z M 37.960938 9.851562 " clip-rule="nonzero"/></clipPath><clipPath id="25872042df"><path d="M 34.480469 57.796875 L 42.644531 57.796875 L 42.644531 65.960938 L 34.480469 65.960938 Z M 34.480469 57.796875 " clip-rule="nonzero"/></clipPath><clipPath id="377ef9033e"><path d="M 38.5625 57.796875 C 36.304688 57.796875 34.480469 59.625 34.480469 61.878906 C 34.480469 64.132812 36.304688 65.960938 38.5625 65.960938 C 40.816406 65.960938 42.644531 64.132812 42.644531 61.878906 C 42.644531 59.625 40.816406 57.796875 38.5625 57.796875 Z M 38.5625 57.796875 " clip-rule="nonzero"/></clipPath><clipPath id="c41780e562"><path d="M 16 39 L 60.71875 39 L 60.71875 68 L 16 68 Z M 16 39 " clip-rule="nonzero"/></clipPath><clipPath id="d7469d3a4d"><path d="M 31 7 L 60.71875 7 L 60.71875 52 L 31 52 Z M 31 7 " clip-rule="nonzero"/></clipPath><clipPath id="21898838a2"><path d="M 47 7 L 60.71875 7 L 60.71875 21 L 47 21 Z M 47 7 " clip-rule="nonzero"/></clipPath><clipPath id="29780fa45d"><path d="M 47 55 L 60.71875 55 L 60.71875 68 L 47 68 Z M 47 55 " clip-rule="nonzero"/></clipPath></defs><g clip-path="url(#3de6b11123)"><g clip-path="url(#fee64eeb7a)"><path fill="#20204c" d="M 2.265625 25.90625 L 10.429688 25.90625 L 10.429688 34.070312 L 2.265625 34.070312 Z M 2.265625 25.90625 " fill-opacity="1" fill-rule="nonzero"/></g></g><g clip-path="url(#f8428c01c0)"><g clip-path="url(#72a466b9b1)"><path fill="#20204c" d="M 33.878906 9.851562 L 42.042969 9.851562 L 42.042969 18.015625 L 33.878906 18.015625 Z M 33.878906 9.851562 " fill-opacity="1" fill-rule="nonzero"/></g></g><g clip-path="url(#25872042df)"><g clip-path="url(#377ef9033e)"><path fill="#20204c" d="M 34.480469 57.796875 L 42.644531 57.796875 L 42.644531 65.960938 L 34.480469 65.960938 Z M 34.480469 57.796875 " fill-opacity="1" fill-rule="nonzero"/></g></g><path fill="#209ce9" d="M 28.414062 13.964844 C 28.449219 15.023438 28.171875 16.007812 27.644531 16.914062 C 27.460938 17.230469 27.507812 17.402344 27.757812 17.648438 C 29.984375 19.855469 32.203125 22.074219 34.410156 24.304688 C 34.699219 24.597656 34.890625 24.609375 35.253906 24.414062 C 37.613281 23.152344 40.433594 23.515625 42.363281 25.296875 C 44.296875 27.074219 44.898438 29.914062 43.851562 32.3125 C 42.804688 34.714844 40.351562 36.203125 37.707031 36.039062 C 33.363281 35.765625 30.632812 30.964844 32.65625 27.09375 C 32.933594 26.558594 32.835938 26.304688 32.453125 25.925781 C 30.300781 23.804688 28.160156 21.664062 26.039062 19.507812 C 25.726562 19.195312 25.511719 19.179688 25.132812 19.378906 C 23.191406 20.398438 21.226562 20.394531 19.296875 19.351562 C 18.949219 19.164062 18.773438 19.203125 18.511719 19.46875 C 16.304688 21.695312 14.085938 23.914062 11.855469 26.121094 C 11.574219 26.398438 11.582031 26.597656 11.75 26.925781 C 13.96875 31.246094 10.921875 36.148438 6.089844 36.042969 C 2.773438 35.972656 0.0273438 33.136719 0.0546875 29.804688 C 0.078125 26.457031 2.84375 23.703125 6.179688 23.675781 C 7.285156 23.667969 8.3125 23.90625 9.257812 24.460938 C 9.539062 24.625 9.707031 24.605469 9.941406 24.371094 C 12.195312 22.125 14.449219 19.882812 16.730469 17.664062 C 17.066406 17.332031 16.9375 17.117188 16.773438 16.800781 C 14.90625 13.203125 16.832031 8.90625 20.742188 7.933594 C 24.675781 6.957031 28.417969 9.894531 28.414062 13.964844 Z M 25.859375 14.019531 C 25.867188 12.03125 24.222656 10.371094 22.238281 10.371094 C 20.242188 10.367188 18.601562 12.015625 18.617188 14.011719 C 18.632812 15.996094 20.21875 17.59375 22.207031 17.625 C 24.199219 17.652344 25.851562 16.023438 25.859375 14.019531 Z M 38.0625 26.234375 C 36.0625 26.25 34.441406 27.90625 34.472656 29.898438 C 34.507812 31.882812 36.109375 33.472656 38.085938 33.476562 C 40.0625 33.484375 41.734375 31.8125 41.722656 29.839844 C 41.714844 27.859375 40.046875 26.21875 38.0625 26.234375 Z M 6.289062 26.324219 C 4.238281 26.339844 2.710938 27.898438 2.71875 29.960938 C 2.730469 31.992188 4.3125 33.527344 6.375 33.511719 C 8.378906 33.5 9.933594 31.929688 9.929688 29.917969 C 9.921875 27.894531 8.320312 26.3125 6.289062 26.324219 Z M 6.289062 26.324219 " fill-opacity="1" fill-rule="nonzero"/><path fill="#209ce9" d="M 16 61.695312 C 15.984375 60.617188 16.238281 59.605469 16.789062 58.683594 C 16.964844 58.394531 16.921875 58.234375 16.695312 58.011719 C 14.441406 55.769531 12.179688 53.527344 9.957031 51.253906 C 9.589844 50.882812 9.375 51.121094 9.101562 51.261719 C 4.941406 53.386719 0.00390625 50.359375 0.0546875 45.703125 C 0.105469 41.121094 5.039062 38.152344 9.089844 40.296875 C 9.53125 40.53125 9.761719 40.492188 10.105469 40.148438 C 12.234375 38 14.382812 35.871094 16.542969 33.757812 C 16.914062 33.398438 17.003906 33.152344 16.75 32.636719 C 15.566406 30.238281 15.8125 27.914062 17.515625 25.871094 C 19.191406 23.863281 21.429688 23.222656 23.933594 23.917969 C 26.488281 24.625 28.003906 26.414062 28.363281 29.019531 C 28.699219 31.453125 27.8125 33.5 25.78125 34.914062 C 23.761719 36.316406 21.578125 36.449219 19.375 35.316406 C 18.945312 35.09375 18.734375 35.152344 18.417969 35.472656 C 16.261719 37.65625 14.09375 39.824219 11.910156 41.980469 C 11.605469 42.28125 11.554688 42.492188 11.761719 42.882812 C 12.785156 44.820312 12.796875 46.78125 11.738281 48.714844 C 11.53125 49.09375 11.621094 49.292969 11.894531 49.5625 C 14.082031 51.746094 16.261719 53.941406 18.425781 56.148438 C 18.75 56.476562 18.96875 56.511719 19.386719 56.292969 C 23.515625 54.132812 28.464844 57.15625 28.386719 61.769531 C 28.328125 65.167969 25.5625 67.902344 22.183594 67.902344 C 18.785156 67.902344 16.023438 65.132812 16 61.695312 Z M 22.203125 33.511719 C 24.257812 33.519531 25.847656 31.964844 25.859375 29.945312 C 25.867188 27.9375 24.261719 26.328125 22.242188 26.324219 C 20.207031 26.320312 18.605469 27.917969 18.617188 29.9375 C 18.632812 31.9375 20.203125 33.503906 22.207031 33.511719 Z M 22.148438 65.296875 C 24.109375 65.359375 25.789062 63.792969 25.855469 61.832031 C 25.925781 59.863281 24.40625 58.175781 22.503906 58.097656 C 20.324219 58.011719 18.664062 59.527344 18.617188 61.644531 C 18.574219 63.59375 20.152344 65.230469 22.148438 65.296875 Z M 6.320312 49.375 C 8.363281 49.375 9.9375 47.796875 9.925781 45.761719 C 9.914062 43.742188 8.375 42.195312 6.355469 42.175781 C 4.335938 42.152344 2.71875 43.746094 2.71875 45.765625 C 2.714844 47.808594 4.273438 49.375 6.320312 49.375 Z M 6.320312 49.375 " fill-opacity="1" fill-rule="nonzero"/><g clip-path="url(#c41780e562)"><path fill="#209ce9" d="M 53.792969 51.949219 C 53 51.972656 52.03125 51.71875 51.144531 51.203125 C 50.816406 51.011719 50.636719 51.003906 50.355469 51.289062 C 48.136719 53.535156 45.902344 55.769531 43.652344 57.992188 C 43.390625 58.253906 43.417969 58.421875 43.574219 58.726562 C 45.695312 62.816406 43.167969 67.496094 38.578125 67.867188 C 36.265625 68.050781 34.359375 67.09375 33.058594 65.164062 C 31.722656 63.195312 31.585938 61.066406 32.65625 58.929688 C 32.921875 58.402344 32.839844 58.148438 32.457031 57.773438 C 30.316406 55.667969 28.191406 53.542969 26.085938 51.402344 C 25.746094 51.0625 25.515625 51.027344 25.078125 51.246094 C 22.816406 52.367188 20.59375 52.242188 18.566406 50.722656 C 16.472656 49.160156 15.660156 46.992188 16.210938 44.441406 C 16.738281 42.007812 18.285156 40.402344 20.722656 39.792969 C 23.269531 39.15625 25.449219 39.90625 27.070312 41.945312 C 28.695312 43.988281 28.882812 46.277344 27.710938 48.617188 C 27.480469 49.074219 27.554688 49.292969 27.878906 49.621094 C 30.039062 51.773438 32.179688 53.941406 34.308594 56.121094 C 34.613281 56.429688 34.8125 56.457031 35.203125 56.253906 C 37.144531 55.246094 39.117188 55.234375 41.046875 56.28125 C 41.445312 56.496094 41.625 56.386719 41.882812 56.125 C 44.082031 53.953125 46.285156 51.78125 48.503906 49.628906 C 48.816406 49.324219 48.839844 49.117188 48.628906 48.726562 C 47.382812 46.402344 47.75 43.59375 49.507812 41.675781 C 51.261719 39.761719 54 39.136719 56.394531 40.101562 C 58.78125 41.0625 60.351562 43.488281 60.269531 46.085938 C 60.167969 49.335938 57.371094 51.96875 53.789062 51.953125 Z M 22.203125 49.375 C 24.253906 49.382812 25.847656 47.828125 25.859375 45.804688 C 25.871094 43.773438 24.292969 42.183594 22.257812 42.175781 C 20.25 42.167969 18.609375 43.796875 18.617188 45.789062 C 18.628906 47.789062 20.207031 49.367188 22.203125 49.375 Z M 54.074219 49.375 C 56.078125 49.378906 57.714844 47.75 57.710938 45.765625 C 57.703125 43.75 56.082031 42.15625 54.0625 42.175781 C 52.054688 42.191406 50.480469 43.757812 50.46875 45.746094 C 50.453125 47.75 52.066406 49.375 54.074219 49.375 Z M 41.753906 61.671875 C 41.746094 59.621094 40.191406 58.089844 38.128906 58.097656 C 36.09375 58.105469 34.5625 59.675781 34.574219 61.738281 C 34.585938 63.734375 36.167969 65.300781 38.164062 65.296875 C 40.191406 65.296875 41.761719 63.707031 41.753906 61.671875 Z M 41.753906 61.671875 " fill-opacity="1" fill-rule="nonzero"/></g><g clip-path="url(#d7469d3a4d)"><path fill="#209ce9" d="M 38.105469 51.972656 C 34.886719 51.953125 32.152344 49.457031 31.921875 46.308594 C 31.679688 43.011719 33.941406 40.175781 37.171875 39.664062 C 38.535156 39.445312 39.804688 39.675781 40.992188 40.332031 C 41.390625 40.550781 41.605469 40.476562 41.902344 40.179688 C 44.085938 37.996094 46.28125 35.820312 48.492188 33.65625 C 48.789062 33.363281 48.859375 33.164062 48.644531 32.757812 C 47.628906 30.824219 47.617188 28.851562 48.65625 26.921875 C 48.867188 26.535156 48.785156 26.351562 48.515625 26.082031 C 46.304688 23.886719 44.097656 21.691406 41.914062 19.472656 C 41.613281 19.171875 41.417969 19.199219 41.074219 19.371094 C 38.746094 20.542969 36.472656 20.410156 34.390625 18.828125 C 32.347656 17.273438 31.597656 15.117188 32.128906 12.636719 C 32.679688 10.054688 34.367188 8.40625 36.941406 7.882812 C 39.429688 7.371094 41.570312 8.179688 43.101562 10.238281 C 44.601562 12.261719 44.78125 14.480469 43.644531 16.742188 C 43.40625 17.210938 43.453125 17.441406 43.8125 17.796875 C 45.976562 19.941406 48.117188 22.109375 50.246094 24.285156 C 50.554688 24.597656 50.769531 24.699219 51.203125 24.472656 C 53.558594 23.21875 56.351562 23.582031 58.242188 25.335938 C 60.152344 27.113281 60.742188 29.910156 59.710938 32.296875 C 58.664062 34.71875 56.164062 36.234375 53.511719 36.03125 C 52.632812 35.960938 51.789062 35.722656 51.035156 35.253906 C 50.726562 35.0625 50.539062 35.121094 50.292969 35.367188 C 48.070312 37.609375 45.835938 39.84375 43.59375 42.066406 C 43.332031 42.324219 43.347656 42.503906 43.503906 42.808594 C 45.476562 46.601562 43.460938 50.929688 39.300781 51.839844 C 38.910156 51.921875 38.503906 51.925781 38.101562 51.96875 Z M 50.464844 29.875 C 50.476562 31.832031 52.105469 33.460938 54.0625 33.476562 C 56.03125 33.496094 57.710938 31.820312 57.707031 29.84375 C 57.703125 27.839844 56.078125 26.226562 54.070312 26.234375 C 52.058594 26.242188 50.449219 27.863281 50.464844 29.875 Z M 34.574219 45.777344 C 34.574219 47.808594 36.15625 49.378906 38.1875 49.375 C 40.175781 49.367188 41.746094 47.789062 41.753906 45.792969 C 41.761719 43.730469 40.226562 42.179688 38.167969 42.175781 C 36.117188 42.171875 34.570312 43.71875 34.570312 45.777344 Z M 41.753906 13.914062 C 41.746094 11.855469 40.203125 10.332031 38.132812 10.34375 C 36.125 10.351562 34.578125 11.910156 34.574219 13.921875 C 34.570312 15.988281 36.101562 17.523438 38.167969 17.519531 C 40.230469 17.519531 41.757812 15.984375 41.753906 13.914062 Z M 41.753906 13.914062 " fill-opacity="1" fill-rule="nonzero"/></g><path fill="#209ce9" d="M 12.527344 13.964844 C 12.507812 17.347656 9.644531 20.183594 6.285156 20.140625 C 2.832031 20.09375 0.121094 17.339844 0.144531 13.898438 C 0.167969 10.449219 2.945312 7.691406 6.355469 7.734375 C 9.800781 7.773438 12.546875 10.546875 12.527344 13.960938 Z M 2.71875 13.941406 C 2.707031 15.996094 4.253906 17.59375 6.28125 17.625 C 8.28125 17.652344 9.910156 16.046875 9.929688 14.023438 C 9.945312 12.027344 8.308594 10.371094 6.320312 10.371094 C 4.332031 10.371094 2.734375 11.953125 2.722656 13.941406 Z M 2.71875 13.941406 " fill-opacity="1" fill-rule="nonzero"/><path fill="#209ce9" d="M 6.320312 67.929688 C 2.882812 67.929688 0.144531 65.195312 0.148438 61.757812 C 0.148438 58.332031 2.914062 55.558594 6.324219 55.5625 C 9.691406 55.566406 12.503906 58.382812 12.527344 61.777344 C 12.546875 65.179688 9.773438 67.929688 6.320312 67.933594 Z M 6.34375 58.097656 C 4.292969 58.09375 2.722656 59.644531 2.71875 61.683594 C 2.71875 63.699219 4.316406 65.304688 6.332031 65.296875 C 8.328125 65.289062 9.902344 63.722656 9.925781 61.726562 C 9.949219 59.695312 8.375 58.101562 6.34375 58.097656 Z M 6.34375 58.097656 " fill-opacity="1" fill-rule="nonzero"/><g clip-path="url(#21898838a2)"><path fill="#209ce9" d="M 47.910156 13.917969 C 47.914062 10.503906 50.71875 7.703125 54.109375 7.734375 C 57.550781 7.761719 60.28125 10.515625 60.273438 13.949219 C 60.269531 17.347656 57.445312 20.160156 54.0625 20.136719 C 50.625 20.113281 47.90625 17.367188 47.910156 13.917969 Z M 50.464844 14 C 50.46875 16.011719 52.101562 17.636719 54.101562 17.625 C 56.101562 17.609375 57.738281 15.949219 57.707031 13.964844 C 57.675781 12.003906 56.042969 10.378906 54.089844 10.371094 C 52.089844 10.363281 50.460938 11.992188 50.464844 14.003906 Z M 50.464844 14 " fill-opacity="1" fill-rule="nonzero"/></g><g clip-path="url(#29780fa45d)"><path fill="#209ce9" d="M 54.058594 67.929688 C 50.597656 67.921875 47.902344 65.175781 47.910156 61.671875 C 47.921875 58.316406 50.722656 55.554688 54.101562 55.5625 C 57.496094 55.570312 60.292969 58.421875 60.273438 61.855469 C 60.257812 65.210938 57.464844 67.941406 54.058594 67.929688 Z M 54.117188 58.097656 C 52.070312 58.089844 50.476562 59.648438 50.464844 61.671875 C 50.453125 63.667969 52.078125 65.296875 54.082031 65.296875 C 56.085938 65.296875 57.730469 63.652344 57.710938 61.671875 C 57.691406 59.671875 56.113281 58.101562 54.117188 58.097656 Z M 54.117188 58.097656 " fill-opacity="1" fill-rule="nonzero"/></g><g fill="#20204c" fill-opacity="1"><g transform="translate(72.096419, 37.148793)"><g><path d="M 12.734375 -5.21875 C 12.773438 -4.15625 12.539062 -3.210938 12.03125 -2.390625 C 11.53125 -1.578125 10.773438 -0.929688 9.765625 -0.453125 C 8.765625 0.0234375 7.503906 0.265625 5.984375 0.265625 C 5.085938 0.265625 4.242188 0.164062 3.453125 -0.03125 C 2.671875 -0.238281 2 -0.554688 1.4375 -0.984375 C 1.3125 -1.066406 1.222656 -1.171875 1.171875 -1.296875 C 1.128906 -1.421875 1.132812 -1.582031 1.1875 -1.78125 L 1.640625 -3.390625 C 1.710938 -3.566406 1.847656 -3.695312 2.046875 -3.78125 C 2.253906 -3.875 2.460938 -3.875 2.671875 -3.78125 C 3.128906 -3.539062 3.648438 -3.320312 4.234375 -3.125 C 4.816406 -2.925781 5.472656 -2.828125 6.203125 -2.828125 C 7.066406 -2.828125 7.789062 -3.035156 8.375 -3.453125 C 8.957031 -3.867188 9.25 -4.445312 9.25 -5.1875 C 9.226562 -5.84375 8.929688 -6.40625 8.359375 -6.875 C 7.785156 -7.34375 7.019531 -7.78125 6.0625 -8.1875 C 5.164062 -8.539062 4.347656 -8.972656 3.609375 -9.484375 C 2.878906 -9.992188 2.289062 -10.582031 1.84375 -11.25 C 1.40625 -11.925781 1.171875 -12.6875 1.140625 -13.53125 C 1.117188 -14.550781 1.359375 -15.453125 1.859375 -16.234375 C 2.367188 -17.023438 3.09375 -17.648438 4.03125 -18.109375 C 4.976562 -18.566406 6.082031 -18.796875 7.34375 -18.796875 C 8.363281 -18.796875 9.222656 -18.671875 9.921875 -18.421875 C 10.628906 -18.179688 11.117188 -17.972656 11.390625 -17.796875 C 11.546875 -17.691406 11.660156 -17.582031 11.734375 -17.46875 C 11.816406 -17.351562 11.832031 -17.195312 11.78125 -17 L 11.046875 -15.25 C 10.773438 -14.78125 10.429688 -14.664062 10.015625 -14.90625 C 9.460938 -15.226562 8.953125 -15.453125 8.484375 -15.578125 C 8.015625 -15.703125 7.578125 -15.742188 7.171875 -15.703125 C 6.523438 -15.671875 5.9375 -15.46875 5.40625 -15.09375 C 4.875 -14.726562 4.625 -14.242188 4.65625 -13.640625 C 4.675781 -13.160156 4.867188 -12.71875 5.234375 -12.3125 C 5.609375 -11.90625 6.222656 -11.523438 7.078125 -11.171875 C 7.710938 -10.910156 8.351562 -10.609375 9 -10.265625 C 9.65625 -9.929688 10.257812 -9.53125 10.8125 -9.0625 C 11.375 -8.601562 11.832031 -8.054688 12.1875 -7.421875 C 12.539062 -6.796875 12.722656 -6.0625 12.734375 -5.21875 Z M 12.734375 -5.21875 "/></g></g></g><g fill="#20204c" fill-opacity="1"><g transform="translate(88.324499, 37.148793)"><g><path d="M 0.90625 -15.546875 C 0.6875 -15.546875 0.5 -15.601562 0.34375 -15.71875 C 0.195312 -15.832031 0.125 -15.976562 0.125 -16.15625 L 0.125 -17.9375 C 0.125 -18.101562 0.195312 -18.242188 0.34375 -18.359375 C 0.5 -18.484375 0.6875 -18.546875 0.90625 -18.546875 L 14.109375 -18.546875 C 14.335938 -18.546875 14.515625 -18.484375 14.640625 -18.359375 C 14.765625 -18.242188 14.828125 -18.101562 14.828125 -17.9375 L 14.828125 -16.15625 C 14.828125 -15.976562 14.765625 -15.832031 14.640625 -15.71875 C 14.515625 -15.601562 14.335938 -15.546875 14.109375 -15.546875 L 9.1875 -15.546875 L 9.1875 -0.609375 C 9.1875 -0.429688 9.113281 -0.285156 8.96875 -0.171875 C 8.832031 -0.0546875 8.664062 0 8.46875 0 L 6.515625 0 C 6.304688 0 6.125 -0.0546875 5.96875 -0.171875 C 5.820312 -0.285156 5.75 -0.429688 5.75 -0.609375 L 5.75 -15.546875 Z M 0.90625 -15.546875 "/></g></g></g><g fill="#20204c" fill-opacity="1"><g transform="translate(105.955546, 37.148793)"><g><path d="M 12.640625 -4.53125 L 5.265625 -4.53125 L 3.78125 -0.578125 C 3.695312 -0.441406 3.578125 -0.3125 3.421875 -0.1875 C 3.273438 -0.0625 3.125 0 2.96875 0 L 1.03125 0 C 0.726562 0 0.503906 -0.0820312 0.359375 -0.25 C 0.222656 -0.414062 0.203125 -0.613281 0.296875 -0.84375 L 7.046875 -17.953125 C 7.128906 -18.097656 7.25 -18.234375 7.40625 -18.359375 C 7.570312 -18.484375 7.722656 -18.546875 7.859375 -18.546875 L 10.46875 -18.546875 C 10.582031 -18.546875 10.722656 -18.5 10.890625 -18.40625 C 11.066406 -18.320312 11.171875 -18.234375 11.203125 -18.140625 L 17.5625 -0.828125 C 17.644531 -0.597656 17.609375 -0.398438 17.453125 -0.234375 C 17.296875 -0.078125 17.082031 0 16.8125 0 L 14.828125 0 C 14.703125 0 14.554688 -0.0390625 14.390625 -0.125 C 14.222656 -0.21875 14.125 -0.304688 14.09375 -0.390625 Z M 6.46875 -7.625 L 11.515625 -7.625 L 9.140625 -14.546875 Z M 6.46875 -7.625 "/></g></g></g><g fill="#20204c" fill-opacity="1"><g transform="translate(126.339574, 37.148793)"><g><path d="M 5.25 -0.609375 C 5.25 -0.429688 5.171875 -0.285156 5.015625 -0.171875 C 4.867188 -0.0546875 4.6875 0 4.46875 0 L 2.515625 0 C 2.285156 0 2.097656 -0.0546875 1.953125 -0.171875 C 1.816406 -0.285156 1.75 -0.429688 1.75 -0.609375 L 1.75 -17.9375 C 1.75 -18.101562 1.816406 -18.242188 1.953125 -18.359375 C 2.097656 -18.484375 2.285156 -18.546875 2.515625 -18.546875 L 4.796875 -18.546875 L 13.375 -11.390625 L 13.375 -17.9375 C 13.375 -18.101562 13.441406 -18.242188 13.578125 -18.359375 C 13.722656 -18.484375 13.910156 -18.546875 14.140625 -18.546875 L 16.125 -18.546875 C 16.34375 -18.546875 16.523438 -18.484375 16.671875 -18.359375 C 16.816406 -18.242188 16.890625 -18.101562 16.890625 -17.9375 L 16.890625 -0.609375 C 16.890625 -0.429688 16.816406 -0.285156 16.671875 -0.171875 C 16.523438 -0.0546875 16.34375 0 16.125 0 L 14.140625 0 C 13.910156 0 13.722656 -0.0546875 13.578125 -0.171875 C 13.441406 -0.285156 13.375 -0.429688 13.375 -0.609375 L 13.375 -7.234375 L 5.25 -13.875 Z M 5.25 -0.609375 "/></g></g></g><g fill="#20204c" fill-opacity="1"><g transform="translate(147.517732, 37.148793)"><g><path d="M 16.421875 -9.296875 C 16.421875 -8.097656 16.25 -6.953125 15.90625 -5.859375 C 15.5625 -4.765625 15.03125 -3.785156 14.3125 -2.921875 C 13.601562 -2.066406 12.695312 -1.378906 11.59375 -0.859375 C 10.488281 -0.335938 9.175781 -0.0507812 7.65625 0 L 2.546875 0 C 2.328125 0 2.144531 -0.0546875 2 -0.171875 C 1.851562 -0.285156 1.78125 -0.429688 1.78125 -0.609375 L 1.78125 -17.9375 C 1.78125 -18.101562 1.851562 -18.242188 2 -18.359375 C 2.144531 -18.484375 2.328125 -18.546875 2.546875 -18.546875 L 7.59375 -18.546875 C 9.332031 -18.546875 10.863281 -18.15625 12.1875 -17.375 C 13.507812 -16.59375 14.546875 -15.507812 15.296875 -14.125 C 16.046875 -12.738281 16.421875 -11.128906 16.421875 -9.296875 Z M 5.265625 -3.15625 L 7.59375 -3.15625 C 8.726562 -3.1875 9.6875 -3.488281 10.46875 -4.0625 C 11.257812 -4.632812 11.859375 -5.382812 12.265625 -6.3125 C 12.679688 -7.238281 12.890625 -8.234375 12.890625 -9.296875 C 12.890625 -10.359375 12.71875 -11.351562 12.375 -12.28125 C 12.03125 -13.207031 11.472656 -13.957031 10.703125 -14.53125 C 9.941406 -15.101562 8.90625 -15.390625 7.59375 -15.390625 L 5.265625 -15.390625 Z M 5.265625 -3.15625 "/></g></g></g><g fill="#20204c" fill-opacity="1"><g transform="translate(167.663518, 37.148793)"><g><path d="M 12.640625 -4.53125 L 5.265625 -4.53125 L 3.78125 -0.578125 C 3.695312 -0.441406 3.578125 -0.3125 3.421875 -0.1875 C 3.273438 -0.0625 3.125 0 2.96875 0 L 1.03125 0 C 0.726562 0 0.503906 -0.0820312 0.359375 -0.25 C 0.222656 -0.414062 0.203125 -0.613281 0.296875 -0.84375 L 7.046875 -17.953125 C 7.128906 -18.097656 7.25 -18.234375 7.40625 -18.359375 C 7.570312 -18.484375 7.722656 -18.546875 7.859375 -18.546875 L 10.46875 -18.546875 C 10.582031 -18.546875 10.722656 -18.5 10.890625 -18.40625 C 11.066406 -18.320312 11.171875 -18.234375 11.203125 -18.140625 L 17.5625 -0.828125 C 17.644531 -0.597656 17.609375 -0.398438 17.453125 -0.234375 C 17.296875 -0.078125 17.082031 0 16.8125 0 L 14.828125 0 C 14.703125 0 14.554688 -0.0390625 14.390625 -0.125 C 14.222656 -0.21875 14.125 -0.304688 14.09375 -0.390625 Z M 6.46875 -7.625 L 11.515625 -7.625 L 9.140625 -14.546875 Z M 6.46875 -7.625 "/></g></g></g><g fill="#20204c" fill-opacity="1"><g transform="translate(188.04755, 37.148793)"><g><path d="M 5.25 -0.609375 C 5.25 -0.429688 5.171875 -0.285156 5.015625 -0.171875 C 4.867188 -0.0546875 4.6875 0 4.46875 0 L 2.484375 0 C 2.253906 0 2.066406 -0.0546875 1.921875 -0.171875 C 1.785156 -0.285156 1.71875 -0.429688 1.71875 -0.609375 L 1.71875 -17.9375 C 1.71875 -18.101562 1.785156 -18.242188 1.921875 -18.359375 C 2.066406 -18.484375 2.253906 -18.546875 2.484375 -18.546875 L 7.078125 -18.546875 C 8.453125 -18.546875 9.679688 -18.34375 10.765625 -17.9375 C 11.847656 -17.53125 12.703125 -16.890625 13.328125 -16.015625 C 13.960938 -15.140625 14.28125 -13.992188 14.28125 -12.578125 C 14.28125 -9.859375 13.113281 -8.054688 10.78125 -7.171875 L 14.40625 -0.90625 C 14.53125 -0.675781 14.53125 -0.46875 14.40625 -0.28125 C 14.28125 -0.09375 14.066406 0 13.765625 0 L 11.421875 0 C 11.128906 0 10.890625 -0.148438 10.703125 -0.453125 L 7.28125 -6.546875 L 5.25 -6.546875 Z M 7.09375 -9.59375 C 8.457031 -9.59375 9.429688 -9.867188 10.015625 -10.421875 C 10.597656 -10.972656 10.890625 -11.679688 10.890625 -12.546875 C 10.890625 -12.796875 10.847656 -13.082031 10.765625 -13.40625 C 10.679688 -13.738281 10.507812 -14.054688 10.25 -14.359375 C 10 -14.671875 9.617188 -14.925781 9.109375 -15.125 C 8.597656 -15.332031 7.910156 -15.4375 7.046875 -15.4375 L 5.25 -15.4375 L 5.25 -9.59375 Z M 7.09375 -9.59375 "/></g></g></g><g fill="#20204c" fill-opacity="1"><g transform="translate(205.943306, 37.148793)"><g><path d="M 16.421875 -9.296875 C 16.421875 -8.097656 16.25 -6.953125 15.90625 -5.859375 C 15.5625 -4.765625 15.03125 -3.785156 14.3125 -2.921875 C 13.601562 -2.066406 12.695312 -1.378906 11.59375 -0.859375 C 10.488281 -0.335938 9.175781 -0.0507812 7.65625 0 L 2.546875 0 C 2.328125 0 2.144531 -0.0546875 2 -0.171875 C 1.851562 -0.285156 1.78125 -0.429688 1.78125 -0.609375 L 1.78125 -17.9375 C 1.78125 -18.101562 1.851562 -18.242188 2 -18.359375 C 2.144531 -18.484375 2.328125 -18.546875 2.546875 -18.546875 L 7.59375 -18.546875 C 9.332031 -18.546875 10.863281 -18.15625 12.1875 -17.375 C 13.507812 -16.59375 14.546875 -15.507812 15.296875 -14.125 C 16.046875 -12.738281 16.421875 -11.128906 16.421875 -9.296875 Z M 5.265625 -3.15625 L 7.59375 -3.15625 C 8.726562 -3.1875 9.6875 -3.488281 10.46875 -4.0625 C 11.257812 -4.632812 11.859375 -5.382812 12.265625 -6.3125 C 12.679688 -7.238281 12.890625 -8.234375 12.890625 -9.296875 C 12.890625 -10.359375 12.71875 -11.351562 12.375 -12.28125 C 12.03125 -13.207031 11.472656 -13.957031 10.703125 -14.53125 C 9.941406 -15.101562 8.90625 -15.390625 7.59375 -15.390625 L 5.265625 -15.390625 Z M 5.265625 -3.15625 "/></g></g></g><g fill="#20204c" fill-opacity="1"><g transform="translate(86.165267, 55.005575)"><g><path d="M 6.03125 0 L 5.15625 0 L 1.578125 -5.515625 L 1.53125 -5.515625 C 1.539062 -5.367188 1.550781 -5.203125 1.5625 -5.015625 C 1.582031 -4.828125 1.59375 -4.628906 1.59375 -4.421875 C 1.601562 -4.210938 1.609375 -4 1.609375 -3.78125 L 1.609375 0 L 0.90625 0 L 0.90625 -6.5625 L 1.78125 -6.5625 L 5.34375 -1.0625 L 5.375 -1.0625 C 5.363281 -1.175781 5.351562 -1.328125 5.34375 -1.515625 C 5.34375 -1.710938 5.335938 -1.921875 5.328125 -2.140625 C 5.316406 -2.359375 5.3125 -2.566406 5.3125 -2.765625 L 5.3125 -6.5625 L 6.03125 -6.5625 Z M 6.03125 0 "/></g></g></g><g fill="#20204c" fill-opacity="1"><g transform="translate(93.62185, 55.005575)"><g><path d="M 5.015625 0 L 4.203125 -2.078125 L 1.578125 -2.078125 L 0.765625 0 L 0 0 L 2.578125 -6.59375 L 3.265625 -6.59375 L 5.8125 0 Z M 3.984375 -2.765625 L 3.21875 -4.828125 C 3.195312 -4.890625 3.164062 -4.976562 3.125 -5.09375 C 3.082031 -5.21875 3.039062 -5.347656 3 -5.484375 C 2.957031 -5.617188 2.925781 -5.722656 2.90625 -5.796875 C 2.875 -5.671875 2.835938 -5.546875 2.796875 -5.421875 C 2.765625 -5.304688 2.734375 -5.195312 2.703125 -5.09375 C 2.671875 -4.988281 2.640625 -4.898438 2.609375 -4.828125 L 1.828125 -2.765625 Z M 3.984375 -2.765625 "/></g></g></g><g fill="#20204c" fill-opacity="1"><g transform="translate(99.969554, 55.005575)"><g><path d="M 6.03125 0 L 5.15625 0 L 1.578125 -5.515625 L 1.53125 -5.515625 C 1.539062 -5.367188 1.550781 -5.203125 1.5625 -5.015625 C 1.582031 -4.828125 1.59375 -4.628906 1.59375 -4.421875 C 1.601562 -4.210938 1.609375 -4 1.609375 -3.78125 L 1.609375 0 L 0.90625 0 L 0.90625 -6.5625 L 1.78125 -6.5625 L 5.34375 -1.0625 L 5.375 -1.0625 C 5.363281 -1.175781 5.351562 -1.328125 5.34375 -1.515625 C 5.34375 -1.710938 5.335938 -1.921875 5.328125 -2.140625 C 5.316406 -2.359375 5.3125 -2.566406 5.3125 -2.765625 L 5.3125 -6.5625 L 6.03125 -6.5625 Z M 6.03125 0 "/></g></g></g><g fill="#20204c" fill-opacity="1"><g transform="translate(107.426137, 55.005575)"><g><path d="M 6.59375 -3.296875 C 6.59375 -2.785156 6.523438 -2.320312 6.390625 -1.90625 C 6.265625 -1.5 6.078125 -1.144531 5.828125 -0.84375 C 5.578125 -0.539062 5.265625 -0.304688 4.890625 -0.140625 C 4.515625 0.015625 4.082031 0.09375 3.59375 0.09375 C 3.082031 0.09375 2.632812 0.015625 2.25 -0.140625 C 1.875 -0.304688 1.5625 -0.539062 1.3125 -0.84375 C 1.0625 -1.144531 0.875 -1.503906 0.75 -1.921875 C 0.625 -2.335938 0.5625 -2.796875 0.5625 -3.296875 C 0.5625 -3.972656 0.671875 -4.5625 0.890625 -5.0625 C 1.117188 -5.570312 1.457031 -5.96875 1.90625 -6.25 C 2.351562 -6.53125 2.914062 -6.671875 3.59375 -6.671875 C 4.25 -6.671875 4.796875 -6.53125 5.234375 -6.25 C 5.679688 -5.976562 6.019531 -5.585938 6.25 -5.078125 C 6.476562 -4.578125 6.59375 -3.984375 6.59375 -3.296875 Z M 1.359375 -3.296875 C 1.359375 -2.734375 1.4375 -2.25 1.59375 -1.84375 C 1.757812 -1.4375 2.003906 -1.125 2.328125 -0.90625 C 2.660156 -0.6875 3.082031 -0.578125 3.59375 -0.578125 C 4.09375 -0.578125 4.503906 -0.6875 4.828125 -0.90625 C 5.160156 -1.125 5.40625 -1.4375 5.5625 -1.84375 C 5.71875 -2.25 5.796875 -2.734375 5.796875 -3.296875 C 5.796875 -4.140625 5.617188 -4.800781 5.265625 -5.28125 C 4.910156 -5.757812 4.351562 -6 3.59375 -6 C 3.082031 -6 2.660156 -5.890625 2.328125 -5.671875 C 2.003906 -5.453125 1.757812 -5.140625 1.59375 -4.734375 C 1.4375 -4.335938 1.359375 -3.859375 1.359375 -3.296875 Z M 1.359375 -3.296875 "/></g></g></g><g fill="#20204c" fill-opacity="1"><g transform="translate(115.111685, 55.005575)"><g/></g></g><g fill="#20204c" fill-opacity="1"><g transform="translate(118.033965, 55.005575)"><g><path d="M 3.125 -5.015625 C 3.707031 -5.015625 4.144531 -4.867188 4.4375 -4.578125 C 4.738281 -4.296875 4.890625 -3.835938 4.890625 -3.203125 L 4.890625 0 L 4.15625 0 L 4.15625 -3.15625 C 4.15625 -3.570312 4.0625 -3.878906 3.875 -4.078125 C 3.6875 -4.285156 3.398438 -4.390625 3.015625 -4.390625 C 2.472656 -4.390625 2.085938 -4.234375 1.859375 -3.921875 C 1.640625 -3.609375 1.53125 -3.160156 1.53125 -2.578125 L 1.53125 0 L 0.78125 0 L 0.78125 -4.921875 L 1.390625 -4.921875 L 1.5 -4.21875 L 1.546875 -4.21875 C 1.648438 -4.382812 1.78125 -4.523438 1.9375 -4.640625 C 2.101562 -4.765625 2.285156 -4.859375 2.484375 -4.921875 C 2.679688 -4.984375 2.894531 -5.015625 3.125 -5.015625 Z M 3.125 -5.015625 "/></g></g></g><g fill="#20204c" fill-opacity="1"><g transform="translate(124.206578, 55.005575)"><g><path d="M 2.6875 -5.015625 C 3.101562 -5.015625 3.457031 -4.921875 3.75 -4.734375 C 4.050781 -4.546875 4.28125 -4.285156 4.4375 -3.953125 C 4.601562 -3.617188 4.6875 -3.226562 4.6875 -2.78125 L 4.6875 -2.328125 L 1.28125 -2.328125 C 1.289062 -1.742188 1.4375 -1.300781 1.71875 -1 C 2 -0.695312 2.390625 -0.546875 2.890625 -0.546875 C 3.203125 -0.546875 3.476562 -0.570312 3.71875 -0.625 C 3.957031 -0.6875 4.207031 -0.773438 4.46875 -0.890625 L 4.46875 -0.234375 C 4.21875 -0.117188 3.96875 -0.0351562 3.71875 0.015625 C 3.476562 0.0664062 3.191406 0.09375 2.859375 0.09375 C 2.390625 0.09375 1.976562 0 1.625 -0.1875 C 1.269531 -0.382812 0.992188 -0.671875 0.796875 -1.046875 C 0.609375 -1.421875 0.515625 -1.878906 0.515625 -2.421875 C 0.515625 -2.953125 0.601562 -3.410156 0.78125 -3.796875 C 0.957031 -4.191406 1.207031 -4.492188 1.53125 -4.703125 C 1.851562 -4.910156 2.238281 -5.015625 2.6875 -5.015625 Z M 2.671875 -4.40625 C 2.273438 -4.40625 1.957031 -4.273438 1.71875 -4.015625 C 1.476562 -3.753906 1.335938 -3.390625 1.296875 -2.921875 L 3.90625 -2.921875 C 3.90625 -3.210938 3.859375 -3.46875 3.765625 -3.6875 C 3.679688 -3.914062 3.546875 -4.09375 3.359375 -4.21875 C 3.179688 -4.34375 2.953125 -4.40625 2.671875 -4.40625 Z M 2.671875 -4.40625 "/></g></g></g><g fill="#20204c" fill-opacity="1"><g transform="translate(129.903313, 55.005575)"><g><path d="M 2.375 -0.515625 C 2.5 -0.515625 2.625 -0.523438 2.75 -0.546875 C 2.882812 -0.566406 2.988281 -0.59375 3.0625 -0.625 L 3.0625 -0.046875 C 2.976562 -0.00390625 2.859375 0.0234375 2.703125 0.046875 C 2.546875 0.078125 2.394531 0.09375 2.25 0.09375 C 1.988281 0.09375 1.753906 0.046875 1.546875 -0.046875 C 1.335938 -0.140625 1.164062 -0.296875 1.03125 -0.515625 C 0.90625 -0.734375 0.84375 -1.035156 0.84375 -1.421875 L 0.84375 -4.34375 L 0.140625 -4.34375 L 0.140625 -4.703125 L 0.84375 -5 L 1.140625 -6.0625 L 1.59375 -6.0625 L 1.59375 -4.921875 L 3.03125 -4.921875 L 3.03125 -4.34375 L 1.59375 -4.34375 L 1.59375 -1.4375 C 1.59375 -1.132812 1.660156 -0.90625 1.796875 -0.75 C 1.941406 -0.59375 2.132812 -0.515625 2.375 -0.515625 Z M 2.375 -0.515625 "/></g></g></g><g fill="#20204c" fill-opacity="1"><g transform="translate(133.714496, 55.005575)"><g><path d="M 4.796875 -0.015625 L 3.921875 -2.875 C 3.878906 -3 3.835938 -3.117188 3.796875 -3.234375 C 3.765625 -3.359375 3.734375 -3.472656 3.703125 -3.578125 C 3.679688 -3.691406 3.660156 -3.796875 3.640625 -3.890625 C 3.617188 -3.984375 3.597656 -4.0625 3.578125 -4.125 L 3.546875 -4.125 C 3.535156 -4.0625 3.519531 -3.984375 3.5 -3.890625 C 3.476562 -3.796875 3.453125 -3.691406 3.421875 -3.578125 C 3.398438 -3.460938 3.367188 -3.34375 3.328125 -3.21875 C 3.296875 -3.101562 3.257812 -2.984375 3.21875 -2.859375 L 2.3125 -0.015625 L 1.46875 -0.015625 L 0.109375 -4.9375 L 0.875 -4.9375 L 1.59375 -2.21875 C 1.632812 -2.039062 1.675781 -1.863281 1.71875 -1.6875 C 1.769531 -1.507812 1.8125 -1.34375 1.84375 -1.1875 C 1.875 -1.03125 1.894531 -0.894531 1.90625 -0.78125 L 1.953125 -0.78125 C 1.960938 -0.863281 1.976562 -0.957031 2 -1.0625 C 2.03125 -1.164062 2.054688 -1.273438 2.078125 -1.390625 C 2.109375 -1.503906 2.140625 -1.617188 2.171875 -1.734375 C 2.203125 -1.859375 2.238281 -1.972656 2.28125 -2.078125 L 3.1875 -4.9375 L 3.984375 -4.9375 L 4.859375 -2.078125 C 4.898438 -1.941406 4.941406 -1.796875 4.984375 -1.640625 C 5.035156 -1.484375 5.078125 -1.332031 5.109375 -1.1875 C 5.148438 -1.039062 5.175781 -0.910156 5.1875 -0.796875 L 5.21875 -0.796875 C 5.238281 -0.898438 5.265625 -1.023438 5.296875 -1.171875 C 5.328125 -1.316406 5.363281 -1.476562 5.40625 -1.65625 C 5.445312 -1.84375 5.492188 -2.03125 5.546875 -2.21875 L 6.265625 -4.9375 L 7.03125 -4.9375 L 5.65625 -0.015625 Z M 4.796875 -0.015625 "/></g></g></g><g fill="#20204c" fill-opacity="1"><g transform="translate(141.373109, 55.005575)"><g><path d="M 5.03125 -2.46875 C 5.03125 -2.0625 4.976562 -1.695312 4.875 -1.375 C 4.769531 -1.0625 4.617188 -0.796875 4.421875 -0.578125 C 4.222656 -0.359375 3.984375 -0.191406 3.703125 -0.078125 C 3.421875 0.0351562 3.101562 0.09375 2.75 0.09375 C 2.425781 0.09375 2.125 0.0351562 1.84375 -0.078125 C 1.570312 -0.191406 1.335938 -0.359375 1.140625 -0.578125 C 0.941406 -0.796875 0.785156 -1.0625 0.671875 -1.375 C 0.566406 -1.695312 0.515625 -2.0625 0.515625 -2.46875 C 0.515625 -3.007812 0.601562 -3.46875 0.78125 -3.84375 C 0.96875 -4.226562 1.226562 -4.519531 1.5625 -4.71875 C 1.90625 -4.914062 2.3125 -5.015625 2.78125 -5.015625 C 3.226562 -5.015625 3.617188 -4.910156 3.953125 -4.703125 C 4.296875 -4.503906 4.5625 -4.21875 4.75 -3.84375 C 4.9375 -3.46875 5.03125 -3.007812 5.03125 -2.46875 Z M 1.28125 -2.46875 C 1.28125 -2.070312 1.332031 -1.726562 1.4375 -1.4375 C 1.539062 -1.144531 1.703125 -0.921875 1.921875 -0.765625 C 2.140625 -0.609375 2.421875 -0.53125 2.765625 -0.53125 C 3.109375 -0.53125 3.390625 -0.609375 3.609375 -0.765625 C 3.835938 -0.921875 4.003906 -1.144531 4.109375 -1.4375 C 4.210938 -1.726562 4.265625 -2.070312 4.265625 -2.46875 C 4.265625 -2.863281 4.210938 -3.203125 4.109375 -3.484375 C 4.003906 -3.773438 3.84375 -4 3.625 -4.15625 C 3.40625 -4.3125 3.117188 -4.390625 2.765625 -4.390625 C 2.253906 -4.390625 1.878906 -4.21875 1.640625 -3.875 C 1.398438 -3.539062 1.28125 -3.070312 1.28125 -2.46875 Z M 1.28125 -2.46875 "/></g></g></g><g fill="#20204c" fill-opacity="1"><g transform="translate(147.437976, 55.005575)"><g><path d="M 3.03125 -5.015625 C 3.125 -5.015625 3.222656 -5.007812 3.328125 -5 C 3.441406 -4.988281 3.539062 -4.972656 3.625 -4.953125 L 3.53125 -4.265625 C 3.445312 -4.285156 3.351562 -4.300781 3.25 -4.3125 C 3.15625 -4.320312 3.066406 -4.328125 2.984375 -4.328125 C 2.785156 -4.328125 2.597656 -4.285156 2.421875 -4.203125 C 2.242188 -4.128906 2.085938 -4.019531 1.953125 -3.875 C 1.828125 -3.726562 1.722656 -3.550781 1.640625 -3.34375 C 1.566406 -3.132812 1.53125 -2.898438 1.53125 -2.640625 L 1.53125 0 L 0.78125 0 L 0.78125 -4.921875 L 1.40625 -4.921875 L 1.484375 -4.015625 L 1.515625 -4.015625 C 1.617188 -4.203125 1.742188 -4.367188 1.890625 -4.515625 C 2.035156 -4.671875 2.203125 -4.789062 2.390625 -4.875 C 2.578125 -4.96875 2.789062 -5.015625 3.03125 -5.015625 Z M 3.03125 -5.015625 "/></g></g></g><g fill="#20204c" fill-opacity="1"><g transform="translate(151.729532, 55.005575)"><g><path d="M 1.53125 -7 L 1.53125 -3.359375 C 1.53125 -3.242188 1.523438 -3.097656 1.515625 -2.921875 C 1.503906 -2.753906 1.492188 -2.601562 1.484375 -2.46875 L 1.515625 -2.46875 C 1.585938 -2.539062 1.679688 -2.65625 1.796875 -2.8125 C 1.921875 -2.96875 2.023438 -3.09375 2.109375 -3.1875 L 3.75 -4.921875 L 4.625 -4.921875 L 2.640625 -2.828125 L 4.765625 0 L 3.859375 0 L 2.125 -2.328125 L 1.53125 -1.78125 L 1.53125 0 L 0.78125 0 L 0.78125 -7 Z M 1.53125 -7 "/></g></g></g><g fill="#20204c" fill-opacity="1"><g transform="translate(157.094051, 55.005575)"><g/></g></g><g fill="#20204c" fill-opacity="1"><g transform="translate(160.016331, 55.005575)"><g><path d="M 1.53125 -4.921875 L 1.53125 0 L 0.78125 0 L 0.78125 -4.921875 Z M 1.171875 -6.765625 C 1.296875 -6.765625 1.398438 -6.722656 1.484375 -6.640625 C 1.578125 -6.566406 1.625 -6.445312 1.625 -6.28125 C 1.625 -6.113281 1.578125 -5.988281 1.484375 -5.90625 C 1.398438 -5.820312 1.296875 -5.78125 1.171875 -5.78125 C 1.035156 -5.78125 0.925781 -5.820312 0.84375 -5.90625 C 0.757812 -5.988281 0.71875 -6.113281 0.71875 -6.28125 C 0.71875 -6.445312 0.757812 -6.566406 0.84375 -6.640625 C 0.925781 -6.722656 1.035156 -6.765625 1.171875 -6.765625 Z M 1.171875 -6.765625 "/></g></g></g><g fill="#20204c" fill-opacity="1"><g transform="translate(162.871276, 55.005575)"><g><path d="M 3.125 -5.015625 C 3.707031 -5.015625 4.144531 -4.867188 4.4375 -4.578125 C 4.738281 -4.296875 4.890625 -3.835938 4.890625 -3.203125 L 4.890625 0 L 4.15625 0 L 4.15625 -3.15625 C 4.15625 -3.570312 4.0625 -3.878906 3.875 -4.078125 C 3.6875 -4.285156 3.398438 -4.390625 3.015625 -4.390625 C 2.472656 -4.390625 2.085938 -4.234375 1.859375 -3.921875 C 1.640625 -3.609375 1.53125 -3.160156 1.53125 -2.578125 L 1.53125 0 L 0.78125 0 L 0.78125 -4.921875 L 1.390625 -4.921875 L 1.5 -4.21875 L 1.546875 -4.21875 C 1.648438 -4.382812 1.78125 -4.523438 1.9375 -4.640625 C 2.101562 -4.765625 2.285156 -4.859375 2.484375 -4.921875 C 2.679688 -4.984375 2.894531 -5.015625 3.125 -5.015625 Z M 3.125 -5.015625 "/></g></g></g><g fill="#20204c" fill-opacity="1"><g transform="translate(169.043888, 55.005575)"><g><path d="M 2.375 -0.515625 C 2.5 -0.515625 2.625 -0.523438 2.75 -0.546875 C 2.882812 -0.566406 2.988281 -0.59375 3.0625 -0.625 L 3.0625 -0.046875 C 2.976562 -0.00390625 2.859375 0.0234375 2.703125 0.046875 C 2.546875 0.078125 2.394531 0.09375 2.25 0.09375 C 1.988281 0.09375 1.753906 0.046875 1.546875 -0.046875 C 1.335938 -0.140625 1.164062 -0.296875 1.03125 -0.515625 C 0.90625 -0.734375 0.84375 -1.035156 0.84375 -1.421875 L 0.84375 -4.34375 L 0.140625 -4.34375 L 0.140625 -4.703125 L 0.84375 -5 L 1.140625 -6.0625 L 1.59375 -6.0625 L 1.59375 -4.921875 L 3.03125 -4.921875 L 3.03125 -4.34375 L 1.59375 -4.34375 L 1.59375 -1.4375 C 1.59375 -1.132812 1.660156 -0.90625 1.796875 -0.75 C 1.941406 -0.59375 2.132812 -0.515625 2.375 -0.515625 Z M 2.375 -0.515625 "/></g></g></g><g fill="#20204c" fill-opacity="1"><g transform="translate(172.855072, 55.005575)"><g><path d="M 2.6875 -5.015625 C 3.101562 -5.015625 3.457031 -4.921875 3.75 -4.734375 C 4.050781 -4.546875 4.28125 -4.285156 4.4375 -3.953125 C 4.601562 -3.617188 4.6875 -3.226562 4.6875 -2.78125 L 4.6875 -2.328125 L 1.28125 -2.328125 C 1.289062 -1.742188 1.4375 -1.300781 1.71875 -1 C 2 -0.695312 2.390625 -0.546875 2.890625 -0.546875 C 3.203125 -0.546875 3.476562 -0.570312 3.71875 -0.625 C 3.957031 -0.6875 4.207031 -0.773438 4.46875 -0.890625 L 4.46875 -0.234375 C 4.21875 -0.117188 3.96875 -0.0351562 3.71875 0.015625 C 3.476562 0.0664062 3.191406 0.09375 2.859375 0.09375 C 2.390625 0.09375 1.976562 0 1.625 -0.1875 C 1.269531 -0.382812 0.992188 -0.671875 0.796875 -1.046875 C 0.609375 -1.421875 0.515625 -1.878906 0.515625 -2.421875 C 0.515625 -2.953125 0.601562 -3.410156 0.78125 -3.796875 C 0.957031 -4.191406 1.207031 -4.492188 1.53125 -4.703125 C 1.851562 -4.910156 2.238281 -5.015625 2.6875 -5.015625 Z M 2.671875 -4.40625 C 2.273438 -4.40625 1.957031 -4.273438 1.71875 -4.015625 C 1.476562 -3.753906 1.335938 -3.390625 1.296875 -2.921875 L 3.90625 -2.921875 C 3.90625 -3.210938 3.859375 -3.46875 3.765625 -3.6875 C 3.679688 -3.914062 3.546875 -4.09375 3.359375 -4.21875 C 3.179688 -4.34375 2.953125 -4.40625 2.671875 -4.40625 Z M 2.671875 -4.40625 "/></g></g></g><g fill="#20204c" fill-opacity="1"><g transform="translate(178.551807, 55.005575)"><g><path d="M 1.53125 0 L 0.78125 0 L 0.78125 -7 L 1.53125 -7 Z M 1.53125 0 "/></g></g></g><g fill="#20204c" fill-opacity="1"><g transform="translate(181.406751, 55.005575)"><g><path d="M 1.53125 0 L 0.78125 0 L 0.78125 -7 L 1.53125 -7 Z M 1.53125 0 "/></g></g></g><g fill="#20204c" fill-opacity="1"><g transform="translate(184.26169, 55.005575)"><g><path d="M 1.53125 -4.921875 L 1.53125 0 L 0.78125 0 L 0.78125 -4.921875 Z M 1.171875 -6.765625 C 1.296875 -6.765625 1.398438 -6.722656 1.484375 -6.640625 C 1.578125 -6.566406 1.625 -6.445312 1.625 -6.28125 C 1.625 -6.113281 1.578125 -5.988281 1.484375 -5.90625 C 1.398438 -5.820312 1.296875 -5.78125 1.171875 -5.78125 C 1.035156 -5.78125 0.925781 -5.820312 0.84375 -5.90625 C 0.757812 -5.988281 0.71875 -6.113281 0.71875 -6.28125 C 0.71875 -6.445312 0.757812 -6.566406 0.84375 -6.640625 C 0.925781 -6.722656 1.035156 -6.765625 1.171875 -6.765625 Z M 1.171875 -6.765625 "/></g></g></g><g fill="#20204c" fill-opacity="1"><g transform="translate(187.116635, 55.005575)"><g><path d="M 2.15625 2.203125 C 1.507812 2.203125 1.007812 2.082031 0.65625 1.84375 C 0.3125 1.601562 0.140625 1.265625 0.140625 0.828125 C 0.140625 0.523438 0.238281 0.265625 0.4375 0.046875 C 0.632812 -0.171875 0.90625 -0.316406 1.25 -0.390625 C 1.125 -0.453125 1.015625 -0.539062 0.921875 -0.65625 C 0.828125 -0.78125 0.78125 -0.921875 0.78125 -1.078125 C 0.78125 -1.253906 0.828125 -1.410156 0.921875 -1.546875 C 1.023438 -1.679688 1.179688 -1.8125 1.390625 -1.9375 C 1.128906 -2.039062 0.921875 -2.21875 0.765625 -2.46875 C 0.609375 -2.71875 0.53125 -3.007812 0.53125 -3.34375 C 0.53125 -3.695312 0.601562 -4 0.75 -4.25 C 0.894531 -4.5 1.101562 -4.691406 1.375 -4.828125 C 1.65625 -4.960938 1.992188 -5.03125 2.390625 -5.03125 C 2.484375 -5.03125 2.570312 -5.023438 2.65625 -5.015625 C 2.75 -5.003906 2.832031 -4.992188 2.90625 -4.984375 C 2.988281 -4.972656 3.0625 -4.957031 3.125 -4.9375 L 4.8125 -4.9375 L 4.8125 -4.453125 L 3.90625 -4.34375 C 4 -4.226562 4.070312 -4.085938 4.125 -3.921875 C 4.1875 -3.753906 4.21875 -3.570312 4.21875 -3.375 C 4.21875 -2.882812 4.050781 -2.492188 3.71875 -2.203125 C 3.382812 -1.910156 2.925781 -1.765625 2.34375 -1.765625 C 2.207031 -1.765625 2.066406 -1.773438 1.921875 -1.796875 C 1.773438 -1.722656 1.664062 -1.632812 1.59375 -1.53125 C 1.519531 -1.4375 1.484375 -1.320312 1.484375 -1.1875 C 1.484375 -1.09375 1.507812 -1.015625 1.5625 -0.953125 C 1.625 -0.898438 1.707031 -0.859375 1.8125 -0.828125 C 1.925781 -0.804688 2.0625 -0.796875 2.21875 -0.796875 L 3.09375 -0.796875 C 3.625 -0.796875 4.03125 -0.679688 4.3125 -0.453125 C 4.601562 -0.234375 4.75 0.0859375 4.75 0.515625 C 4.75 1.066406 4.523438 1.484375 4.078125 1.765625 C 3.640625 2.054688 3 2.203125 2.15625 2.203125 Z M 2.1875 1.625 C 2.59375 1.625 2.925781 1.582031 3.1875 1.5 C 3.457031 1.414062 3.660156 1.296875 3.796875 1.140625 C 3.929688 0.992188 4 0.8125 4 0.59375 C 4 0.394531 3.953125 0.242188 3.859375 0.140625 C 3.773438 0.046875 3.644531 -0.015625 3.46875 -0.046875 C 3.289062 -0.0859375 3.078125 -0.109375 2.828125 -0.109375 L 1.984375 -0.109375 C 1.753906 -0.109375 1.554688 -0.0703125 1.390625 0 C 1.234375 0.0703125 1.109375 0.171875 1.015625 0.296875 C 0.929688 0.429688 0.890625 0.601562 0.890625 0.8125 C 0.890625 1.070312 1 1.269531 1.21875 1.40625 C 1.445312 1.550781 1.769531 1.625 2.1875 1.625 Z M 2.375 -2.3125 C 2.726562 -2.3125 2.992188 -2.398438 3.171875 -2.578125 C 3.359375 -2.753906 3.453125 -3.015625 3.453125 -3.359375 C 3.453125 -3.734375 3.359375 -4.007812 3.171875 -4.1875 C 2.992188 -4.375 2.726562 -4.46875 2.375 -4.46875 C 2.03125 -4.46875 1.765625 -4.375 1.578125 -4.1875 C 1.390625 -4 1.296875 -3.722656 1.296875 -3.359375 C 1.296875 -3.015625 1.390625 -2.753906 1.578125 -2.578125 C 1.765625 -2.398438 2.03125 -2.3125 2.375 -2.3125 Z M 2.375 -2.3125 "/></g></g></g><g fill="#20204c" fill-opacity="1"><g transform="translate(192.642772, 55.005575)"><g><path d="M 2.6875 -5.015625 C 3.101562 -5.015625 3.457031 -4.921875 3.75 -4.734375 C 4.050781 -4.546875 4.28125 -4.285156 4.4375 -3.953125 C 4.601562 -3.617188 4.6875 -3.226562 4.6875 -2.78125 L 4.6875 -2.328125 L 1.28125 -2.328125 C 1.289062 -1.742188 1.4375 -1.300781 1.71875 -1 C 2 -0.695312 2.390625 -0.546875 2.890625 -0.546875 C 3.203125 -0.546875 3.476562 -0.570312 3.71875 -0.625 C 3.957031 -0.6875 4.207031 -0.773438 4.46875 -0.890625 L 4.46875 -0.234375 C 4.21875 -0.117188 3.96875 -0.0351562 3.71875 0.015625 C 3.476562 0.0664062 3.191406 0.09375 2.859375 0.09375 C 2.390625 0.09375 1.976562 0 1.625 -0.1875 C 1.269531 -0.382812 0.992188 -0.671875 0.796875 -1.046875 C 0.609375 -1.421875 0.515625 -1.878906 0.515625 -2.421875 C 0.515625 -2.953125 0.601562 -3.410156 0.78125 -3.796875 C 0.957031 -4.191406 1.207031 -4.492188 1.53125 -4.703125 C 1.851562 -4.910156 2.238281 -5.015625 2.6875 -5.015625 Z M 2.671875 -4.40625 C 2.273438 -4.40625 1.957031 -4.273438 1.71875 -4.015625 C 1.476562 -3.753906 1.335938 -3.390625 1.296875 -2.921875 L 3.90625 -2.921875 C 3.90625 -3.210938 3.859375 -3.46875 3.765625 -3.6875 C 3.679688 -3.914062 3.546875 -4.09375 3.359375 -4.21875 C 3.179688 -4.34375 2.953125 -4.40625 2.671875 -4.40625 Z M 2.671875 -4.40625 "/></g></g></g><g fill="#20204c" fill-opacity="1"><g transform="translate(198.339508, 55.005575)"><g><path d="M 3.125 -5.015625 C 3.707031 -5.015625 4.144531 -4.867188 4.4375 -4.578125 C 4.738281 -4.296875 4.890625 -3.835938 4.890625 -3.203125 L 4.890625 0 L 4.15625 0 L 4.15625 -3.15625 C 4.15625 -3.570312 4.0625 -3.878906 3.875 -4.078125 C 3.6875 -4.285156 3.398438 -4.390625 3.015625 -4.390625 C 2.472656 -4.390625 2.085938 -4.234375 1.859375 -3.921875 C 1.640625 -3.609375 1.53125 -3.160156 1.53125 -2.578125 L 1.53125 0 L 0.78125 0 L 0.78125 -4.921875 L 1.390625 -4.921875 L 1.5 -4.21875 L 1.546875 -4.21875 C 1.648438 -4.382812 1.78125 -4.523438 1.9375 -4.640625 C 2.101562 -4.765625 2.285156 -4.859375 2.484375 -4.921875 C 2.679688 -4.984375 2.894531 -5.015625 3.125 -5.015625 Z M 3.125 -5.015625 "/></g></g></g><g fill="#20204c" fill-opacity="1"><g transform="translate(204.51212, 55.005575)"><g><path d="M 2.765625 0.09375 C 2.316406 0.09375 1.921875 0.00390625 1.578125 -0.171875 C 1.242188 -0.359375 0.984375 -0.640625 0.796875 -1.015625 C 0.609375 -1.390625 0.515625 -1.863281 0.515625 -2.4375 C 0.515625 -3.03125 0.613281 -3.515625 0.8125 -3.890625 C 1.007812 -4.273438 1.28125 -4.554688 1.625 -4.734375 C 1.976562 -4.921875 2.378906 -5.015625 2.828125 -5.015625 C 3.078125 -5.015625 3.316406 -4.988281 3.546875 -4.9375 C 3.773438 -4.882812 3.960938 -4.820312 4.109375 -4.75 L 3.875 -4.125 C 3.726562 -4.1875 3.554688 -4.238281 3.359375 -4.28125 C 3.160156 -4.332031 2.976562 -4.359375 2.8125 -4.359375 C 2.46875 -4.359375 2.179688 -4.285156 1.953125 -4.140625 C 1.734375 -3.992188 1.566406 -3.773438 1.453125 -3.484375 C 1.335938 -3.203125 1.28125 -2.851562 1.28125 -2.4375 C 1.28125 -2.039062 1.332031 -1.703125 1.4375 -1.421875 C 1.550781 -1.140625 1.71875 -0.925781 1.9375 -0.78125 C 2.15625 -0.632812 2.425781 -0.5625 2.75 -0.5625 C 3.007812 -0.5625 3.242188 -0.585938 3.453125 -0.640625 C 3.671875 -0.691406 3.863281 -0.753906 4.03125 -0.828125 L 4.03125 -0.171875 C 3.863281 -0.0859375 3.675781 -0.0234375 3.46875 0.015625 C 3.269531 0.0664062 3.035156 0.09375 2.765625 0.09375 Z M 2.765625 0.09375 "/></g></g></g><g fill="#20204c" fill-opacity="1"><g transform="translate(209.450151, 55.005575)"><g><path d="M 2.6875 -5.015625 C 3.101562 -5.015625 3.457031 -4.921875 3.75 -4.734375 C 4.050781 -4.546875 4.28125 -4.285156 4.4375 -3.953125 C 4.601562 -3.617188 4.6875 -3.226562 4.6875 -2.78125 L 4.6875 -2.328125 L 1.28125 -2.328125 C 1.289062 -1.742188 1.4375 -1.300781 1.71875 -1 C 2 -0.695312 2.390625 -0.546875 2.890625 -0.546875 C 3.203125 -0.546875 3.476562 -0.570312 3.71875 -0.625 C 3.957031 -0.6875 4.207031 -0.773438 4.46875 -0.890625 L 4.46875 -0.234375 C 4.21875 -0.117188 3.96875 -0.0351562 3.71875 0.015625 C 3.476562 0.0664062 3.191406 0.09375 2.859375 0.09375 C 2.390625 0.09375 1.976562 0 1.625 -0.1875 C 1.269531 -0.382812 0.992188 -0.671875 0.796875 -1.046875 C 0.609375 -1.421875 0.515625 -1.878906 0.515625 -2.421875 C 0.515625 -2.953125 0.601562 -3.410156 0.78125 -3.796875 C 0.957031 -4.191406 1.207031 -4.492188 1.53125 -4.703125 C 1.851562 -4.910156 2.238281 -5.015625 2.6875 -5.015625 Z M 2.671875 -4.40625 C 2.273438 -4.40625 1.957031 -4.273438 1.71875 -4.015625 C 1.476562 -3.753906 1.335938 -3.390625 1.296875 -2.921875 L 3.90625 -2.921875 C 3.90625 -3.210938 3.859375 -3.46875 3.765625 -3.6875 C 3.679688 -3.914062 3.546875 -4.09375 3.359375 -4.21875 C 3.179688 -4.34375 2.953125 -4.40625 2.671875 -4.40625 Z M 2.671875 -4.40625 "/></g></g></g></svg>